Interface-Black.ufo
<glyph name="dollar" format="1">
  <advance width="1792"/>
  <unicode hex="0024"/>
  <outline>
    <contour>
      <point x="1584" y="552" type="curve"/>
      <point x="1584" y="912"/>
      <point x="1348" y="1052"/>
      <point x="1016" y="1200" type="curve"/>
      <point x="1024" y="1700" type="line"/>
      <point x="1100" y="1660"/>
      <point x="1148" y="1572"/>
      <point x="1148" y="1416" type="curve"/>
      <point x="1592" y="1416" type="line"/>
      <point x="1592" y="1796"/>
      <point x="1368" y="2036"/>
      <point x="1028" y="2072" type="curve"/>
      <point x="1032" y="2360" type="line"/>
      <point x="848" y="2360" type="line"/>
      <point x="844" y="2072" type="line"/>
      <point x="504" y="2040"/>
      <point x="276" y="1824"/>
      <point x="276" y="1504" type="curve"/>
      <point x="276" y="1144"/>
      <point x="504" y="1004"/>
      <point x="832" y="860" type="curve"/>
      <point x="828" y="348" type="line"/>
      <point x="724" y="380"/>
      <point x="644" y="468"/>
      <point x="644" y="664" type="curve"/>
      <point x="200" y="664" type="line"/>
      <point x="200" y="196"/>
      <point x="508" y="12"/>
      <point x="824" y="-20" type="curve"/>
      <point x="820" y="-260" type="line"/>
      <point x="1000" y="-260" type="line"/>
      <point x="1004" y="-20" type="line"/>
      <point x="1352" y="4"/>
      <point x="1584" y="208"/>
    </contour>
    <contour>
      <point x="720" y="1504" type="curve"/>
      <point x="720" y="1596"/>
      <point x="756" y="1672"/>
      <point x="840" y="1708" type="curve"/>
      <point x="836" y="1292" type="line"/>
      <point x="748" y="1352"/>
      <point x="720" y="1412"/>
    </contour>
    <contour>
      <point x="1144" y="548" type="curve"/>
      <point x="1144" y="452"/>
      <point x="1100" y="376"/>
      <point x="1008" y="348" type="curve"/>
      <point x="1012" y="776" type="line"/>
      <point x="1104" y="724"/>
      <point x="1144" y="656"/>
    </contour>
  </outline>
</glyph>
<glyph name="parenleft" format="1">
  <advance width="1024"/>
  <unicode hex="0028"/>
  <outline>
    <contour>
      <point x="892" y="-384" type="line"/>
      <point x="656" y="24"/>
      <point x="556" y="404"/>
      <point x="556" y="832" type="curve" smooth="yes"/>
      <point x="556" y="1276"/>
      <point x="656" y="1640"/>
      <point x="896" y="2048" type="curve"/>
      <point x="596" y="2048" type="line"/>
      <point x="364" y="1752"/>
      <point x="200" y="1304"/>
      <point x="200" y="832" type="curve" smooth="yes"/>
      <point x="200" y="360"/>
      <point x="364" y="-88"/>
      <point x="592" y="-384" type="curve"/>
    </contour>
  </outline>
</glyph>
<glyph name="hyphen" format="1">
  <advance width="1280"/>
  <unicode hex="002D"/>
  <outline>
    <contour>
      <point x="1148" y="1028" type="line"/>
      <point x="128" y="1028" type="line"/>
      <point x="128" y="700" type="line"/>
      <point x="1148" y="700" type="line"/>
    </contour>
  </outline>
</glyph>
<glyph name="period" format="1">
  <advance width="768"/>
  <unicode hex="002E"/>
  <outline>
    <contour>
      <point x="384" y="-16" type="curve" smooth="yes"/>
      <point x="532" y="-16"/>
      <point x="632" y="84"/>
      <point x="632" y="216" type="curve" smooth="yes"/>
      <point x="632" y="348"/>
      <point x="532" y="452"/>
      <point x="384" y="452" type="curve" smooth="yes"/>
      <point x="236" y="452"/>
      <point x="136" y="348"/>
      <point x="136" y="216" type="curve" smooth="yes"/>
      <point x="136" y="84"/>
      <point x="236" y="-16"/>
    </contour>
  </outline>
</glyph>
<glyph name="zero" format="1">
  <advance width="1664"/>
  <unicode hex="0030"/>
  <outline>
    <contour>
      <point x="1560" y="1204" type="line" smooth="yes"/>
      <point x="1560" y="1776"/>
      <point x="1248" y="2076"/>
      <point x="832" y="2076" type="curve" smooth="yes"/>
      <point x="416" y="2076"/>
      <point x="104" y="1776"/>
      <point x="104" y="1204" type="curve" smooth="yes"/>
      <point x="104" y="864" type="line" smooth="yes"/>
      <point x="104" y="260"/>
      <point x="412" y="-28"/>
      <point x="832" y="-28" type="curve" smooth="yes"/>
      <point x="1248" y="-28"/>
      <point x="1560" y="260"/>
      <point x="1560" y="864" type="curve" smooth="yes"/>
    </contour>
    <contour>
      <point x="1108" y="804" type="line" smooth="yes"/>
      <point x="1108" y="464"/>
      <point x="988" y="352"/>
      <point x="832" y="352" type="curve" smooth="yes"/>
      <point x="672" y="352"/>
      <point x="556" y="464"/>
      <point x="556" y="804" type="curve" smooth="yes"/>
      <point x="556" y="1264" type="line" smooth="yes"/>
      <point x="556" y="1572"/>
      <point x="672" y="1700"/>
      <point x="832" y="1700" type="curve" smooth="yes"/>
      <point x="992" y="1700"/>
      <point x="1108" y="1572"/>
      <point x="1108" y="1264" type="curve" smooth="yes"/>
    </contour>
  </outline>
</glyph>
<glyph name="eight" format="1">
  <advance width="1792"/>
  <unicode hex="0038"/>
  <outline>
    <contour>
      <point x="1588" y="564" type="curve" smooth="yes"/>
      <point x="1588" y="920"/>
      <point x="1296" y="1136"/>
      <point x="896" y="1136" type="curve" smooth="yes"/>
      <point x="504" y="1136"/>
      <point x="204" y="920"/>
      <point x="204" y="564" type="curve" smooth="yes"/>
      <point x="204" y="172"/>
      <point x="504" y="-28"/>
      <point x="900" y="-28" type="curve" smooth="yes"/>
      <point x="1296" y="-28"/>
      <point x="1588" y="172"/>
    </contour>
    <contour>
      <point x="1144" y="600" type="curve" smooth="yes"/>
      <point x="1144" y="436"/>
      <point x="1048" y="340"/>
      <point x="900" y="340" type="curve" smooth="yes"/>
      <point x="752" y="340"/>
      <point x="648" y="436"/>
      <point x="648" y="600" type="curve" smooth="yes"/>
      <point x="648" y="768"/>
      <point x="752" y="868"/>
      <point x="896" y="868" type="curve" smooth="yes"/>
      <point x="1044" y="868"/>
      <point x="1144" y="768"/>
    </contour>
    <contour>
      <point x="1548" y="1500" type="curve" smooth="yes"/>
      <point x="1548" y="1876"/>
      <point x="1280" y="2076"/>
      <point x="896" y="2076" type="curve" smooth="yes"/>
      <point x="520" y="2076"/>
      <point x="248" y="1876"/>
      <point x="248" y="1500" type="curve" smooth="yes"/>
      <point x="248" y="1180"/>
      <point x="520" y="964"/>
      <point x="900" y="964" type="curve" smooth="yes"/>
      <point x="1280" y="964"/>
      <point x="1548" y="1180"/>
    </contour>
    <contour>
      <point x="1104" y="1476" type="curve" smooth="yes"/>
      <point x="1104" y="1328"/>
      <point x="1036" y="1232"/>
      <point x="900" y="1232" type="curve" smooth="yes"/>
      <point x="764" y="1232"/>
      <point x="692" y="1328"/>
      <point x="692" y="1476" type="curve" smooth="yes"/>
      <point x="692" y="1624"/>
      <point x="764" y="1708"/>
      <point x="896" y="1708" type="curve" smooth="yes"/>
      <point x="1032" y="1708"/>
      <point x="1104" y="1620"/>
    </contour>
  </outline>
</glyph>
<glyph name="question" format="1">
  <advance width="1536"/>
  <unicode hex="003F"/>
  <outline>
    <contour>
      <point x="936" y="636" type="line"/>
      <point x="947.0193917183321" y="1032.6981018599563"/>
      <point x="1408" y="1092"/>
      <point x="1408" y="1528" type="curve" smooth="yes"/>
      <point x="1408" y="1884"/>
      <point x="1168" y="2076"/>
      <point x="772" y="2076" type="curve" smooth="yes"/>
      <point x="416" y="2076"/>
      <point x="136" y="1904"/>
      <point x="132" y="1492" type="curve"/>
      <point x="576" y="1492" type="line"/>
      <point x="580" y="1652"/>
      <point x="672" y="1716"/>
      <point x="772" y="1716" type="curve" smooth="yes"/>
      <point x="900" y="1716"/>
      <point x="964" y="1652"/>
      <point x="964" y="1508" type="curve" smooth="yes"/>
      <point x="964" y="1224"/>
      <point x="556" y="1228"/>
      <point x="556" y="636" type="curve"/>
    </contour>
    <contour>
      <point x="504" y="216" type="curve" smooth="yes"/>
      <point x="504" y="84"/>
      <point x="604" y="-16"/>
      <point x="752" y="-16" type="curve" smooth="yes"/>
      <point x="896" y="-16"/>
      <point x="996" y="84"/>
      <point x="996" y="216" type="curve" smooth="yes"/>
      <point x="996" y="348"/>
      <point x="896" y="448"/>
      <point x="752" y="448" type="curve" smooth="yes"/>
      <point x="604" y="448"/>
      <point x="504" y="348"/>
    </contour>
  </outline>
</glyph>
<glyph name="B" format="1">
  <advance width="1792"/>
  <unicode hex="0042"/>
  <outline>
    <contour>
      <point x="936" y="876" type="line"/>
      <point x="1068" y="1000" type="line"/>
      <point x="1472" y="1004"/>
      <point x="1620" y="1232"/>
      <point x="1620" y="1480" type="curve"/>
      <point x="1620" y="1864"/>
      <point x="1328" y="2048"/>
      <point x="844" y="2048" type="curve"/>
      <point x="132" y="2048" type="line"/>
      <point x="132" y="8" type="line"/>
      <point x="592" y="8" type="line"/>
      <point x="592" y="1664" type="line"/>
      <point x="844" y="1664" type="line"/>
      <point x="1064" y="1664"/>
      <point x="1160" y="1596"/>
      <point x="1160" y="1424" type="curve"/>
      <point x="1160" y="1272"/>
      <point x="1068" y="1196"/>
      <point x="844" y="1196" type="curve"/>
      <point x="420" y="1196" type="line"/>
      <point x="424" y="876" type="line"/>
    </contour>
    <contour>
      <point x="920" y="8" type="line"/>
      <point x="1404" y="8"/>
      <point x="1660" y="212"/>
      <point x="1660" y="612" type="curve" smooth="yes"/>
      <point x="1660" y="848"/>
      <point x="1524" y="1084"/>
      <point x="1132" y="1068" type="curve"/>
      <point x="1028" y="1196" type="line"/>
      <point x="536" y="1196" type="line"/>
      <point x="536" y="876" type="line"/>
      <point x="936" y="876" type="line" smooth="yes"/>
      <point x="1128" y="876"/>
      <point x="1204" y="776"/>
      <point x="1204" y="620" type="curve" smooth="yes"/>
      <point x="1204" y="488"/>
      <point x="1120" y="388"/>
      <point x="920" y="388" type="curve" smooth="yes"/>
      <point x="472" y="388" type="line"/>
      <point x="308" y="8" type="line"/>
    </contour>
    <contour>
      <point x="860" y="2260" type="move" name="top"/>
    </contour>
    <contour>
      <point x="916" y="24" type="move" name="bottom"/>
    </contour>
    <contour>
      <point x="1908" y="2244" type="move" name="top_dd"/>
    </contour>
    <contour>
      <point x="1908" y="-560" type="move" name="bottom_dd"/>
    </contour>
    <contour>
      <point x="1908" y="2260" type="move" name="top0315"/>
    </contour>
  </outline>
</glyph>
<glyph name="F" format="1">
  <advance width="1664"/>
  <unicode hex="0046"/>
  <outline>
    <contour>
      <point x="592" y="2048" type="line"/>
      <point x="128" y="2048" type="line"/>
      <point x="128" y="0" type="line"/>
      <point x="592" y="0" type="line"/>
    </contour>
    <contour>
      <point x="1356" y="1216" type="line"/>
      <point x="444" y="1216" type="line"/>
      <point x="444" y="832" type="line"/>
      <point x="1356" y="832" type="line"/>
    </contour>
    <contour>
      <point x="1496" y="2048" type="line"/>
      <point x="460" y="2048" type="line"/>
      <point x="460" y="1664" type="line"/>
      <point x="1496" y="1664" type="line"/>
    </contour>
    <contour>
      <point x="524" y="400" type="move" name="cross"/>
    </contour>
    <contour>
      <point x="952" y="2216" type="move" name="top"/>
    </contour>
    <contour>
      <point x="800" y="16" type="move" name="bottom"/>
    </contour>
    <contour>
      <point x="1612" y="2200" type="move" name="top_dd"/>
    </contour>
    <contour>
      <point x="1612" y="-560" type="move" name="bottom_dd"/>
    </contour>
    <contour>
      <point x="1612" y="2216" type="move" name="top0315"/>
    </contour>
  </outline>
</glyph>
<glyph name="G" format="1">
  <advance width="1920"/>
  <unicode hex="0047"/>
  <outline>
    <contour>
      <point x="1800" y="1096" type="line"/>
      <point x="992" y="1096" type="line"/>
      <point x="992" y="756" type="line"/>
      <point x="1356" y="756" type="line"/>
      <point x="1356" y="472"/>
      <point x="1248" y="352"/>
      <point x="1044" y="352" type="curve" smooth="yes"/>
      <point x="744" y="352"/>
      <point x="604" y="556"/>
      <point x="604" y="1020" type="curve"/>
      <point x="604" y="1496"/>
      <point x="756" y="1696"/>
      <point x="1000" y="1696" type="curve" smooth="yes"/>
      <point x="1232" y="1696"/>
      <point x="1328" y="1580"/>
      <point x="1356" y="1376" type="curve"/>
      <point x="1800" y="1376" type="line"/>
      <point x="1756" y="1784"/>
      <point x="1528" y="2076"/>
      <point x="988" y="2076" type="curve" smooth="yes"/>
      <point x="488" y="2076"/>
      <point x="136" y="1716"/>
      <point x="136" y="1024" type="curve"/>
      <point x="136" y="332"/>
      <point x="488" y="-28"/>
      <point x="1016" y="-28" type="curve" smooth="yes"/>
      <point x="1448" y="-28"/>
      <point x="1800" y="220"/>
      <point x="1800" y="720" type="curve"/>
    </contour>
    <contour>
      <point x="1044.0" y="2200.0" type="move" name="top"/>
    </contour>
    <contour>
      <point x="1072.0" y="0.0" type="move" name="bottom"/>
    </contour>
    <contour>
      <point x="1996.0" y="2200.0" type="move" name="top_dd"/>
    </contour>
    <contour>
      <point x="1996.0" y="-560.0" type="move" name="bottom_dd"/>
    </contour>
    <contour>
      <point x="1996.0" y="2200.0" type="move" name="top0315"/>
    </contour>
  </outline>
</glyph>
<glyph name="J" format="1">
  <advance width="1536"/>
  <unicode hex="004A"/>
  <outline>
    <contour>
      <point x="992" y="628" type="line"/>
      <point x="992" y="452"/>
      <point x="908" y="344"/>
      <point x="768" y="344" type="curve" smooth="yes"/>
      <point x="628" y="344"/>
      <point x="548" y="404"/>
      <point x="548" y="604" type="curve"/>
      <point x="84" y="604" type="line"/>
      <point x="84" y="172"/>
      <point x="372" y="-28"/>
      <point x="768" y="-28" type="curve" smooth="yes"/>
      <point x="1156" y="-28"/>
      <point x="1452" y="228"/>
      <point x="1452" y="628" type="curve"/>
      <point x="1452" y="2048" type="line"/>
      <point x="992" y="2048" type="line"/>
    </contour>
    <contour>
      <point x="1212" y="2200" type="move" name="top"/>
    </contour>
    <contour>
      <point x="736" y="-16" type="move" name="bottom"/>
    </contour>
    <contour>
      <point x="1612" y="2200" type="move" name="top_dd"/>
    </contour>
    <contour>
      <point x="1612" y="-560" type="move" name="bottom_dd"/>
    </contour>
    <contour>
      <point x="1612" y="2200" type="move" name="top0315"/>
    </contour>
  </outline>
</glyph>
<glyph name="V" format="1">
  <advance width="2048"/>
  <unicode hex="0056"/>
  <outline>
    <contour>
      <point x="600" y="2048" type="line"/>
      <point x="1012" y="580" type="line"/>
      <point x="1036" y="580" type="line"/>
      <point x="1448" y="2048" type="line"/>
      <point x="1956" y="2048" type="line"/>
      <point x="1272" y="0" type="line"/>
      <point x="776" y="0" type="line"/>
      <point x="92" y="2048" type="line"/>
    </contour>
    <contour>
      <point x="1020" y="2216" type="move" name="top"/>
    </contour>
    <contour>
      <point x="1020" y="16" type="move" name="bottom"/>
    </contour>
    <contour>
      <point x="1952" y="2200" type="move" name="top_dd"/>
    </contour>
    <contour>
      <point x="1952" y="-560" type="move" name="bottom_dd"/>
    </contour>
    <contour>
      <point x="1952" y="2216" type="move" name="top0315"/>
    </contour>
  </outline>
</glyph>
<glyph name="X" format="1">
  <advance width="2048"/>
  <unicode hex="0058"/>
  <outline>
    <contour>
      <point x="684" y="2076" type="line"/>
      <point x="156" y="2076" type="line"/>
      <point x="720" y="1044" type="line"/>
      <point x="140" y="0" type="line"/>
      <point x="672" y="0" type="line"/>
      <point x="1012" y="672" type="line" smooth="yes"/>
      <point x="1020" y="692"/>
      <point x="1024" y="696"/>
      <point x="1024" y="712" type="curve"/>
      <point x="1032" y="712" type="line"/>
      <point x="1032" y="696"/>
      <point x="1032" y="692"/>
      <point x="1040" y="672" type="curve" smooth="yes"/>
      <point x="1376" y="0" type="line"/>
      <point x="1908" y="0" type="line"/>
      <point x="1328" y="1044" type="line"/>
      <point x="1892" y="2076" type="line"/>
      <point x="1368" y="2076" type="line"/>
      <point x="1040" y="1412" type="line" smooth="yes"/>
      <point x="1032" y="1396"/>
      <point x="1032" y="1392"/>
      <point x="1032" y="1376" type="curve"/>
      <point x="1024" y="1376" type="line"/>
      <point x="1024" y="1392"/>
      <point x="1020" y="1396"/>
      <point x="1012" y="1412" type="curve" smooth="yes"/>
    </contour>
    <contour>
      <point x="1024" y="28" type="move" name="bottom"/>
    </contour>
    <contour>
      <point x="1688" y="0" type="move" name="right"/>
    </contour>
    <contour>
      <point x="1020" y="1020" type="move" name="cross"/>
    </contour>
    <contour>
      <point x="1004" y="2216" type="move" name="top"/>
    </contour>
    <contour>
      <point x="1924" y="2200" type="move" name="top_dd"/>
    </contour>
    <contour>
      <point x="1924" y="-560" type="move" name="bottom_dd"/>
    </contour>
    <contour>
      <point x="1924" y="2216" type="move" name="top0315"/>
    </contour>
  </outline>
</glyph>
<glyph name="Z" format="1">
  <advance width="1792"/>
  <unicode hex="005A"/>
  <outline>
    <contour>
      <point x="1672" y="372" type="line"/>
      <point x="236" y="372" type="line"/>
      <point x="236" y="0" type="line"/>
      <point x="1672" y="0" type="line"/>
    </contour>
    <contour>
      <point x="1660" y="1800" type="line"/>
      <point x="1660" y="2048" type="line"/>
      <point x="1340" y="2048" type="line"/>
      <point x="124" y="256" type="line"/>
      <point x="124" y="0" type="line"/>
      <point x="456" y="0" type="line"/>
    </contour>
    <contour>
      <point x="1508" y="2048" type="line"/>
      <point x="120" y="2048" type="line"/>
      <point x="120" y="1672" type="line"/>
      <point x="1508" y="1672" type="line"/>
    </contour>
    <contour>
      <point x="900" y="2200" type="move" name="top"/>
    </contour>
    <contour>
      <point x="900" y="16" type="move" name="bottom"/>
    </contour>
    <contour>
      <point x="1744" y="2200" type="move" name="top_dd"/>
    </contour>
    <contour>
      <point x="1744" y="-560" type="move" name="bottom_dd"/>
    </contour>
    <contour>
      <point x="1744" y="2200" type="move" name="top0315"/>
    </contour>
  </outline>
</glyph>
<glyph name="a" format="1">
  <advance width="1536"/>
  <unicode hex="0061"/>
  <outline>
    <contour>
      <point x="940" y="660" type="line"/>
      <point x="940" y="492" type="line" smooth="yes"/>
      <point x="940" y="384"/>
      <point x="820" y="304"/>
      <point x="700" y="304" type="curve" smooth="yes"/>
      <point x="600" y="304"/>
      <point x="536" y="360"/>
      <point x="536" y="444" type="curve" smooth="yes"/>
      <point x="536" y="556"/>
      <point x="604" y="660"/>
      <point x="788" y="660" type="curve" smooth="yes"/>
    </contour>
    <contour>
      <point x="964.0" y="0.0" type="line"/>
      <point x="1384.0" y="0.0" type="line"/>
      <point x="1384.0" y="1024.0" type="line" smooth="yes"/>
      <point x="1384.0" y="1380.0"/>
      <point x="1124.0" y="1556.0"/>
      <point x="772.0" y="1556.0" type="curve" smooth="yes"/>
      <point x="451.0" y="1556.0"/>
      <point x="180" y="1408"/>
      <point x="100" y="1116" type="curve"/>
      <point x="504" y="1060" type="line"/>
      <point x="540" y="1164"/>
      <point x="636" y="1232"/>
      <point x="748" y="1232" type="curve" smooth="yes"/>
      <point x="904" y="1232"/>
      <point x="940.0" y="1152.0"/>
      <point x="940.0" y="1028.0" type="curve" smooth="yes"/>
      <point x="940.0" y="944.0" type="line"/>
      <point x="784" y="944" type="line" smooth="yes"/>
      <point x="276" y="944"/>
      <point x="92.0" y="728.0"/>
      <point x="92.0" y="420.0" type="curve" smooth="yes"/>
      <point x="92.0" y="156.0"/>
      <point x="320.0" y="-28.0"/>
      <point x="596.0" y="-28.0" type="curve" smooth="yes"/>
      <point x="788.0" y="-28.0"/>
      <point x="904" y="52"/>
      <point x="952.0" y="132.0" type="curve"/>
      <point x="964.0" y="132.0" type="line"/>
    </contour>
    <contour>
      <point x="768.0" y="1776.0" type="move" name="top"/>
    </contour>
    <contour>
      <point x="660.0" y="32.0" type="move" name="bottom"/>
    </contour>
    <contour>
      <point x="1372.0" y="0.0" type="move" name="ogonek"/>
    </contour>
    <contour>
      <point x="976.0" y="1776.0" type="move" name="rhalfring"/>
    </contour>
    <contour>
      <point x="1520.0" y="2200.0" type="move" name="top_dd"/>
    </contour>
    <contour>
      <point x="1520.0" y="-560.0" type="move" name="bottom_dd"/>
    </contour>
    <contour>
      <point x="1196.0" y="900.0" type="move" name="rhotichook"/>
    </contour>
    <contour>
      <point x="1528.0" y="1776.0" type="move" name="top0315"/>
    </contour>
  </outline>
</glyph>
<glyph name="c" format="1">
  <advance width="1536"/>
  <unicode hex="0063"/>
  <outline>
    <contour>
      <point x="1456" y="1024" type="line"/>
      <point x="1412" y="1324"/>
      <point x="1188" y="1556"/>
      <point x="800" y="1556" type="curve" smooth="yes"/>
      <point x="340" y="1556"/>
      <point x="80" y="1220"/>
      <point x="80" y="764" type="curve"/>
      <point x="80" y="304"/>
      <point x="340" y="-28"/>
      <point x="804" y="-28" type="curve"/>
      <point x="1152" y="-28"/>
      <point x="1412" y="160"/>
      <point x="1456" y="476" type="curve"/>
      <point x="1044" y="548" type="line"/>
      <point x="1024" y="464"/>
      <point x="968" y="340"/>
      <point x="796" y="340" type="curve" smooth="yes"/>
      <point x="588" y="340"/>
      <point x="516" y="520"/>
      <point x="516" y="764" type="curve"/>
      <point x="516" y="1000"/>
      <point x="588" y="1192"/>
      <point x="792" y="1192" type="curve"/>
      <point x="992" y="1192"/>
      <point x="1036" y="1004"/>
      <point x="1048" y="948" type="curve"/>
    </contour>
    <contour>
      <point x="768.0" y="1776.0" type="move" name="top"/>
    </contour>
    <contour>
      <point x="804.0" y="0.0" type="move" name="bottom"/>
    </contour>
    <contour>
      <point x="768.0" y="1776.0" type="move" name="marktop"/>
    </contour>
    <contour>
      <point x="1496.0" y="2200.0" type="move" name="top_dd"/>
    </contour>
    <contour>
      <point x="1496.0" y="-560.0" type="move" name="bottom_dd"/>
    </contour>
    <contour>
      <point x="1496.0" y="1776.0" type="move" name="top0315"/>
    </contour>
  </outline>
</glyph>
<glyph name="e" format="1">
  <advance width="1536"/>
  <unicode hex="0065"/>
  <outline>
    <contour>
      <point x="836" y="-28" type="curve"/>
      <point x="1124" y="-28"/>
      <point x="1328" y="108"/>
      <point x="1420" y="244" type="curve"/>
      <point x="1160" y="496" type="line"/>
      <point x="1072" y="388"/>
      <point x="996" y="340"/>
      <point x="864" y="340" type="curve" smooth="yes"/>
      <point x="652" y="340"/>
      <point x="512" y="476"/>
      <point x="512" y="744" type="curve"/>
      <point x="512" y="1004"/>
      <point x="588" y="1192"/>
      <point x="784" y="1192" type="curve" smooth="yes"/>
      <point x="956" y="1192"/>
      <point x="1032" y="1044"/>
      <point x="1032" y="912" type="curve"/>
      <point x="252" y="912" type="line"/>
      <point x="252" y="616" type="line"/>
      <point x="1460" y="616" type="line"/>
      <point x="1460" y="808" type="line" smooth="yes"/>
      <point x="1460" y="1264"/>
      <point x="1212" y="1556"/>
      <point x="788" y="1556" type="curve" smooth="yes"/>
      <point x="328" y="1556"/>
      <point x="80" y="1212"/>
      <point x="80" y="744" type="curve"/>
      <point x="80" y="312"/>
      <point x="360" y="-28"/>
    </contour>
    <contour>
      <point x="768" y="1776" type="move" name="top"/>
    </contour>
    <contour>
      <point x="772.0" y="0.0" type="move" name="bottom"/>
    </contour>
    <contour>
      <point x="1188.0" y="48.0" type="move" name="ogonek"/>
    </contour>
    <contour>
      <point x="1520.0" y="2200.0" type="move" name="top_dd"/>
    </contour>
    <contour>
      <point x="1520.0" y="-560.0" type="move" name="bottom_dd"/>
    </contour>
    <contour>
      <point x="1256.0" y="900.0" type="move" name="rhotichook"/>
    </contour>
    <contour>
      <point x="1520.0" y="1776.0" type="move" name="top0315"/>
    </contour>
  </outline>
</glyph>
<glyph name="g" format="1">
  <advance width="1536"/>
  <unicode hex="0067"/>
  <outline>
    <contour>
      <point x="1048" y="1528" type="line"/>
      <point x="1012" y="1240" type="line"/>
      <point x="1188" y="740" type="line"/>
      <point x="968" y="148" type="line"/>
      <point x="1016" y="108" type="line"/>
      <point x="1016" y="92" type="line"/>
      <point x="1016" y="-140"/>
      <point x="908" y="-232"/>
      <point x="704" y="-232" type="curve" smooth="yes"/>
      <point x="544" y="-232"/>
      <point x="416" y="-172"/>
      <point x="320" y="-100" type="curve"/>
      <point x="128" y="-396" type="line"/>
      <point x="212" y="-480"/>
      <point x="444" y="-588"/>
      <point x="720" y="-588" type="curve" smooth="yes"/>
      <point x="1164" y="-588"/>
      <point x="1464" y="-356"/>
      <point x="1464" y="68" type="curve" smooth="yes"/>
      <point x="1464" y="1528" type="line"/>
    </contour>
    <contour>
      <point x="72" y="752" type="line"/>
      <point x="72" y="304"/>
      <point x="304" y="-20"/>
      <point x="676" y="-20" type="curve" smooth="yes"/>
      <point x="1036" y="-20"/>
      <point x="1184" y="328"/>
      <point x="1244" y="740" type="curve"/>
      <point x="1244" y="772" type="line"/>
      <point x="1184" y="1212"/>
      <point x="1080" y="1556"/>
      <point x="680" y="1556" type="curve" smooth="yes"/>
      <point x="304" y="1556"/>
      <point x="72" y="1240"/>
      <point x="72" y="780" type="curve" smooth="yes"/>
    </contour>
    <contour>
      <point x="512" y="780" type="line"/>
      <point x="512" y="1016"/>
      <point x="596" y="1192"/>
      <point x="792" y="1192" type="curve" smooth="yes"/>
      <point x="968" y="1192"/>
      <point x="1076" y="1056"/>
      <point x="1076" y="812" type="curve"/>
      <point x="1076" y="784"/>
      <point x="1076" y="728"/>
      <point x="1076" y="700" type="curve"/>
      <point x="1076" y="484"/>
      <point x="956" y="348"/>
      <point x="788" y="348" type="curve" smooth="yes"/>
      <point x="596" y="348"/>
      <point x="512" y="524"/>
      <point x="512" y="752" type="curve" smooth="yes"/>
    </contour>
    <contour>
      <point x="752.0" y="1776.0" type="move" name="top"/>
    </contour>
    <contour>
      <point x="752.0" y="-616.0" type="move" name="bottom"/>
    </contour>
    <contour>
      <point x="1604.0" y="2200.0" type="move" name="top_dd"/>
    </contour>
    <contour>
      <point x="1604.0" y="-560.0" type="move" name="bottom_dd"/>
    </contour>
    <contour>
      <point x="1604.0" y="1776.0" type="move" name="top0315"/>
    </contour>
  </outline>
</glyph>
<glyph name="i" format="1">
  <advance width="768"/>
  <unicode hex="0069"/>
  <outline>
    <contour>
      <point x="608" y="1536" type="line"/>
      <point x="164" y="1536" type="line"/>
      <point x="164" y="0" type="line"/>
      <point x="608" y="0" type="line"/>
    </contour>
    <contour>
      <point x="140" y="1860" type="curve" smooth="yes"/>
      <point x="140" y="1728"/>
      <point x="236" y="1636"/>
      <point x="384" y="1636" type="curve" smooth="yes"/>
      <point x="532" y="1636"/>
      <point x="632" y="1728"/>
      <point x="632" y="1860" type="curve" smooth="yes"/>
      <point x="632" y="1992"/>
      <point x="532" y="2084"/>
      <point x="384" y="2084" type="curve" smooth="yes"/>
      <point x="236" y="2084"/>
      <point x="140" y="1992"/>
    </contour>
    <contour>
      <point x="384" y="16" type="move" name="bottom"/>
    </contour>
    <contour>
      <point x="536" y="0" type="move" name="ogonek"/>
    </contour>
    <contour>
      <point x="384" y="2200" type="move" name="top"/>
    </contour>
    <contour>
      <point x="768" y="2200" type="move" name="top_dd"/>
    </contour>
    <contour>
      <point x="768" y="-560" type="move" name="bottom_dd"/>
    </contour>
    <contour>
      <point x="488" y="900" type="move" name="rhotichook"/>
    </contour>
    <contour>
      <point x="768" y="2200" type="move" name="top0315"/>
    </contour>
  </outline>
</glyph>
<glyph name="k" format="1">
  <advance width="1536"/>
  <unicode hex="006B"/>
  <outline>
    <contour>
      <point x="572" y="2048" type="line"/>
      <point x="128" y="2048" type="line"/>
      <point x="128" y="0" type="line"/>
      <point x="572" y="0" type="line"/>
    </contour>
    <contour>
      <point x="1532" y="1536" type="line"/>
      <point x="1000" y="1536" type="line"/>
      <point x="592" y="1028" type="line"/>
      <point x="528" y="1028" type="line"/>
      <point x="528" y="344" type="line"/>
    </contour>
    <contour>
      <point x="1060" y="0" type="line"/>
      <point x="1556" y="0" type="line"/>
      <point x="956" y="920" type="line"/>
      <point x="644" y="648" type="line"/>
    </contour>
    <contour>
      <point x="708" y="44" type="move" name="bottom"/>
    </contour>
    <contour>
      <point x="276" y="1784" type="move" name="cross"/>
    </contour>
    <contour>
      <point x="860" y="2200" type="move" name="top"/>
    </contour>
    <contour>
      <point x="860" y="2200" type="move" name="marktop"/>
    </contour>
    <contour>
      <point x="1444" y="2200" type="move" name="top_dd"/>
    </contour>
    <contour>
      <point x="1444" y="-560" type="move" name="bottom_dd"/>
    </contour>
    <contour>
      <point x="1264" y="2200" type="move" name="top0315"/>
    </contour>
  </outline>
</glyph>
<glyph name="q" format="1">
  <advance width="1536"/>
  <unicode hex="0071"/>
  <outline>
    <contour>
      <point x="1452" y="1536" type="line"/>
      <point x="1068" y="1536" type="line"/>
      <point x="1016" y="1264" type="line"/>
      <point x="1012.0" y="1196.0" type="line"/>
      <point x="1144.0" y="748.0" type="line"/>
      <point x="1008.0" y="277.0" type="line"/>
      <point x="1008.0" y="-572.0" type="line"/>
      <point x="1452.0" y="-572.0" type="line"/>
    </contour>
    <component base="leftloop.cn"/>
    <contour>
      <point x="744" y="1776" type="move" name="top"/>
    </contour>
    <contour>
      <point x="1240" y="-560" type="move" name="bottom"/>
    </contour>
    <contour>
      <point x="744" y="1776" type="move" name="marktop"/>
    </contour>
    <contour>
      <point x="1592" y="2200" type="move" name="top_dd"/>
    </contour>
    <contour>
      <point x="1592" y="-560" type="move" name="bottom_dd"/>
    </contour>
    <contour>
      <point x="1592" y="1776" type="move" name="top0315"/>
    </contour>
  </outline>
</glyph>
<glyph name="s" format="1">
  <advance width="1408"/>
  <unicode hex="0073"/>
  <outline>
    <contour>
      <point x="132" y="1104" type="curve"/>
      <point x="132" y="936"/>
      <point x="232" y="756"/>
      <point x="492" y="660" type="curve" smooth="yes"/>
      <point x="580" y="628" type="line" smooth="yes"/>
      <point x="744" y="568"/>
      <point x="844" y="532"/>
      <point x="844" y="452" type="curve" smooth="yes"/>
      <point x="844" y="396"/>
      <point x="772" y="356"/>
      <point x="680" y="356" type="curve" smooth="yes"/>
      <point x="520" y="356"/>
      <point x="444" y="464"/>
      <point x="412" y="512" type="curve"/>
      <point x="80" y="268" type="line"/>
      <point x="232" y="48"/>
      <point x="492" y="-28"/>
      <point x="704" y="-28" type="curve" smooth="yes"/>
      <point x="1008" y="-28"/>
      <point x="1284" y="176"/>
      <point x="1284" y="448" type="curve" smooth="yes"/>
      <point x="1284" y="644"/>
      <point x="1144" y="836"/>
      <point x="860" y="936" type="curve" smooth="yes"/>
      <point x="780" y="964" type="line" smooth="yes"/>
      <point x="660" y="1004"/>
      <point x="580" y="1012"/>
      <point x="580" y="1092" type="curve" smooth="yes"/>
      <point x="580" y="1140"/>
      <point x="636" y="1184"/>
      <point x="736" y="1184" type="curve" smooth="yes"/>
      <point x="876" y="1184"/>
      <point x="956" y="1096"/>
      <point x="980" y="1064" type="curve"/>
      <point x="1296" y="1292" type="line"/>
      <point x="1180" y="1472"/>
      <point x="964" y="1556"/>
      <point x="712" y="1556" type="curve" smooth="yes"/>
      <point x="356" y="1556"/>
      <point x="132" y="1356"/>
    </contour>
    <contour>
      <point x="772.0" y="1776.0" type="move" name="top"/>
    </contour>
    <contour>
      <point x="772.0" y="-16.0" type="move" name="bottom"/>
    </contour>
    <contour>
      <point x="1508.0" y="2200.0" type="move" name="top_dd"/>
    </contour>
    <contour>
      <point x="1508.0" y="-560.0" type="move" name="bottom_dd"/>
    </contour>
    <contour>
      <point x="1508.0" y="1776.0" type="move" name="top0315"/>
    </contour>
  </outline>
</glyph>
<glyph name="braceleft" format="1">
  <advance width="1024"/>
  <unicode hex="007B"/>
  <outline>
    <contour>
      <point x="832" y="2196" type="line"/>
      <point x="456" y="2092"/>
      <point x="340" y="1844"/>
      <point x="340" y="1556" type="curve"/>
      <point x="340" y="1276" type="line"/>
      <point x="340" y="1112"/>
      <point x="272" y="1008"/>
      <point x="108" y="1008" type="curve"/>
      <point x="108" y="780" type="line"/>
      <point x="544" y="780"/>
      <point x="728" y="1000"/>
      <point x="728" y="1276" type="curve"/>
      <point x="728" y="1556" type="line"/>
      <point x="728" y="1744"/>
      <point x="768" y="1900"/>
      <point x="916" y="1956" type="curve"/>
    </contour>
    <contour>
      <point x="916" y="-252" type="line"/>
      <point x="768" y="-196"/>
      <point x="728" y="-40"/>
      <point x="728" y="148" type="curve" smooth="yes"/>
      <point x="728" y="424" type="line" smooth="yes"/>
      <point x="728" y="704"/>
      <point x="544" y="924"/>
      <point x="108" y="924" type="curve"/>
      <point x="108" y="696" type="line"/>
      <point x="272" y="696"/>
      <point x="340" y="588"/>
      <point x="340" y="424" type="curve" smooth="yes"/>
      <point x="340" y="148" type="line" smooth="yes"/>
      <point x="340" y="-144"/>
      <point x="456" y="-388"/>
      <point x="832" y="-496" type="curve"/>
    </contour>
  </outline>
</glyph>
<glyph name="currency" format="1">
  <advance width="2048"/>
  <unicode hex="00A4"/>
  <outline>
    <contour>
      <point x="460" y="836" type="curve"/>
      <point x="460" y="1176"/>
      <point x="708" y="1432"/>
      <point x="1024" y="1432" type="curve" smooth="yes"/>
      <point x="1332" y="1432"/>
      <point x="1584" y="1176"/>
      <point x="1584" y="836" type="curve" smooth="yes"/>
      <point x="1584" y="500"/>
      <point x="1332" y="240"/>
      <point x="1024" y="240" type="curve" smooth="yes"/>
      <point x="708" y="240"/>
      <point x="460" y="500"/>
    </contour>
    <contour>
      <point x="204" y="836" type="curve"/>
      <point x="204" y="348"/>
      <point x="572" y="-28"/>
      <point x="1024" y="-28" type="curve" smooth="yes"/>
      <point x="1472" y="-28"/>
      <point x="1840" y="348"/>
      <point x="1840" y="836" type="curve" smooth="yes"/>
      <point x="1840" y="1324"/>
      <point x="1472" y="1696"/>
      <point x="1024" y="1696" type="curve" smooth="yes"/>
      <point x="572" y="1696"/>
      <point x="204" y="1324"/>
    </contour>
    <contour>
      <point x="1896" y="1540" type="line"/>
      <point x="1700" y="1740" type="line"/>
      <point x="1424" y="1456" type="line"/>
      <point x="1616" y="1256" type="line"/>
    </contour>
    <contour>
      <point x="628" y="248" type="line"/>
      <point x="432" y="444" type="line"/>
      <point x="156" y="164" type="line"/>
      <point x="348" y="-36" type="line"/>
    </contour>
    <contour>
      <point x="1700" y="-36" type="line"/>
      <point x="1896" y="164" type="line"/>
      <point x="1616" y="444" type="line"/>
      <point x="1424" y="248" type="line"/>
    </contour>
    <contour>
      <point x="432" y="1256" type="line"/>
      <point x="628" y="1456" type="line"/>
      <point x="348" y="1740" type="line"/>
      <point x="156" y="1540" type="line"/>
    </contour>
  </outline>
</glyph>
<glyph name="section" format="1">
  <advance width="1792"/>
  <unicode hex="00A7"/>
  <outline>
    <contour>
      <point x="936" y="208" type="line"/>
      <point x="1368" y="208"/>
      <point x="1652" y="368"/>
      <point x="1652" y="688" type="curve" smooth="yes"/>
      <point x="1652" y="1016"/>
      <point x="1408" y="1160"/>
      <point x="984" y="1264" type="curve" smooth="yes"/>
      <point x="680" y="1344"/>
      <point x="616" y="1388"/>
      <point x="616" y="1504" type="curve" smooth="yes"/>
      <point x="616" y="1596"/>
      <point x="696" y="1672"/>
      <point x="896" y="1672" type="curve" smooth="yes"/>
      <point x="1088" y="1672"/>
      <point x="1180" y="1572"/>
      <point x="1180" y="1444" type="curve"/>
      <point x="1624" y="1444" type="line"/>
      <point x="1624" y="1824"/>
      <point x="1348" y="2032"/>
      <point x="896" y="2032" type="curve" smooth="yes"/>
      <point x="456" y="2032"/>
      <point x="172" y="1820"/>
      <point x="172" y="1500" type="curve" smooth="yes"/>
      <point x="172" y="1144"/>
      <point x="420" y="1016"/>
      <point x="836" y="896" type="curve" smooth="yes"/>
      <point x="1128" y="812"/>
      <point x="1216" y="748"/>
      <point x="1216" y="636" type="curve" smooth="yes"/>
      <point x="1216" y="504"/>
      <point x="1112" y="416"/>
      <point x="936" y="416" type="curve"/>
    </contour>
    <contour>
      <point x="836" y="1208" type="line"/>
      <point x="416" y="1208"/>
      <point x="144" y="1036"/>
      <point x="144" y="728" type="curve" smooth="yes"/>
      <point x="144" y="400"/>
      <point x="392" y="260"/>
      <point x="808" y="152" type="curve" smooth="yes"/>
      <point x="1100" y="72"/>
      <point x="1180" y="16"/>
      <point x="1180" y="-84" type="curve" smooth="yes"/>
      <point x="1180" y="-188"/>
      <point x="1084" y="-244"/>
      <point x="900" y="-244" type="curve" smooth="yes"/>
      <point x="744" y="-244"/>
      <point x="584" y="-212"/>
      <point x="584" y="-36" type="curve"/>
      <point x="144" y="-36" type="line"/>
      <point x="144" y="-472"/>
      <point x="524" y="-600"/>
      <point x="900" y="-600" type="curve" smooth="yes"/>
      <point x="1336" y="-600"/>
      <point x="1624" y="-420"/>
      <point x="1624" y="-84" type="curve" smooth="yes"/>
      <point x="1624" y="272"/>
      <point x="1384" y="404"/>
      <point x="956" y="516" type="curve" smooth="yes"/>
      <point x="652" y="608"/>
      <point x="584" y="652"/>
      <point x="584" y="780" type="curve" smooth="yes"/>
      <point x="584" y="908"/>
      <point x="660" y="996"/>
      <point x="836" y="996" type="curve"/>
    </contour>
  </outline>
</glyph>
<glyph name="plusminus" format="1">
  <advance width="1536"/>
  <unicode hex="00B1"/>
  <outline>
    <contour>
      <point x="1456" y="396" type="line"/>
      <point x="84" y="396" type="line"/>
      <point x="84" y="0" type="line"/>
      <point x="1456" y="0" type="line"/>
    </contour>
    <contour>
      <point x="1460" y="1300" type="line"/>
      <point x="964" y="1300" type="line"/>
      <point x="964" y="1700" type="line"/>
      <point x="580" y="1700" type="line"/>
      <point x="580" y="1300" type="line"/>
      <point x="84" y="1300" type="line"/>
      <point x="84" y="912" type="line"/>
      <point x="580" y="912" type="line"/>
      <point x="580" y="512" type="line"/>
      <point x="964" y="512" type="line"/>
      <point x="964" y="912" type="line"/>
      <point x="1460" y="912" type="line"/>
    </contour>
  </outline>
</glyph>
<glyph name="mu" format="1">
  <advance width="1792"/>
  <unicode hex="00B5"/>
  <outline>
    <contour>
      <point x="1140" y="1488" type="line"/>
      <point x="1140" y="344" type="line"/>
      <point x="1168" y="0" type="line"/>
      <point x="1584" y="0" type="line"/>
      <point x="1584" y="1488" type="line"/>
    </contour>
    <contour>
      <point x="1192" y="692" type="line"/>
      <point x="1192" y="488"/>
      <point x="1116" y="336"/>
      <point x="884" y="336" type="curve" smooth="yes"/>
      <point x="740" y="336"/>
      <point x="652" y="388"/>
      <point x="652" y="636" type="curve"/>
      <point x="420" y="636" type="line"/>
      <point x="452" y="296" type="line"/>
      <point x="528" y="72"/>
      <point x="672" y="-28"/>
      <point x="868" y="-28" type="curve" smooth="yes"/>
      <point x="1204" y="-28"/>
      <point x="1376" y="280"/>
      <point x="1376" y="696" type="curve"/>
    </contour>
    <contour>
      <point x="208" y="1488" type="line"/>
      <point x="208" y="-572" type="line"/>
      <point x="652" y="-572" type="line"/>
      <point x="652" y="1488" type="line"/>
    </contour>
  </outline>
</glyph>
<glyph name="ordmasculine" format="1">
  <advance width="1280"/>
  <unicode hex="00BA"/>
  <outline>
    <contour>
      <point x="164" y="1436" type="line"/>
      <point x="164" y="1152"/>
      <point x="348" y="948"/>
      <point x="644" y="948" type="curve" smooth="yes"/>
      <point x="936" y="948"/>
      <point x="1116" y="1152"/>
      <point x="1116" y="1436" type="curve"/>
      <point x="1116" y="1540" type="line"/>
      <point x="1116" y="1828"/>
      <point x="936" y="2032"/>
      <point x="640" y="2032" type="curve" smooth="yes"/>
      <point x="348" y="2032"/>
      <point x="164" y="1828"/>
      <point x="164" y="1540" type="curve"/>
    </contour>
    <contour>
      <point x="404" y="1540" type="line"/>
      <point x="404" y="1704"/>
      <point x="484" y="1828"/>
      <point x="640" y="1828" type="curve" smooth="yes"/>
      <point x="800" y="1828"/>
      <point x="876" y="1704"/>
      <point x="876" y="1540" type="curve"/>
      <point x="876" y="1436" type="line"/>
      <point x="876" y="1272"/>
      <point x="800" y="1152"/>
      <point x="644" y="1152" type="curve" smooth="yes"/>
      <point x="484" y="1152"/>
      <point x="404" y="1272"/>
      <point x="404" y="1436" type="curve"/>
    </contour>
  </outline>
</glyph>
<glyph name="AE" format="1">
  <advance width="2710"/>
  <unicode hex="00C6"/>
  <outline>
    <contour>
      <point x="1428" y="1828" type="line"/>
      <point x="1376" y="2048" type="line"/>
      <point x="1096" y="2048" type="line"/>
      <point x="64" y="0" type="line"/>
      <point x="580" y="0" type="line"/>
    </contour>
    <contour>
      <point x="1548" y="756" type="line"/>
      <point x="516" y="756" type="line"/>
      <point x="516" y="384" type="line"/>
      <point x="1548" y="384" type="line"/>
    </contour>
    <contour>
      <point x="2600" y="364" type="line"/>
      <point x="1596" y="364" type="line"/>
      <point x="1596" y="0" type="line"/>
      <point x="2600" y="0" type="line"/>
    </contour>
    <contour>
      <point x="1728" y="2048" type="line"/>
      <point x="1284" y="2048" type="line"/>
      <point x="1368" y="0" type="line"/>
      <point x="1808" y="0" type="line"/>
    </contour>
    <contour>
      <point x="2404" y="1204" type="line"/>
      <point x="1536" y="1204" type="line"/>
      <point x="1536" y="844" type="line"/>
      <point x="2404" y="844" type="line"/>
    </contour>
    <contour>
      <point x="2516" y="2048" type="line"/>
      <point x="1512" y="2048" type="line"/>
      <point x="1512" y="1684" type="line"/>
      <point x="2516" y="1684" type="line"/>
    </contour>
    <contour>
      <point x="1332.0" y="2216.0" type="move" name="top"/>
    </contour>
    <contour>
      <point x="2696.0" y="2200.0" type="move" name="top_dd"/>
    </contour>
    <contour>
      <point x="2696.0" y="2216.0" type="move" name="top0315"/>
    </contour>
  </outline>
</glyph>
<glyph name="multiply" format="1">
  <advance width="1536"/>
  <unicode hex="00D7"/>
  <outline>
    <contour>
      <point x="360" y="272" type="line"/>
      <point x="1432" y="1364" type="line"/>
      <point x="1176" y="1616" type="line"/>
      <point x="104" y="524" type="line"/>
    </contour>
    <contour>
      <point x="1176" y="272" type="line"/>
      <point x="1432" y="524" type="line"/>
      <point x="360" y="1616" type="line"/>
      <point x="104" y="1364" type="line"/>
    </contour>
  </outline>
</glyph>
<glyph name="Thorn" format="1">
  <advance width="1792"/>
  <unicode hex="00DE"/>
  <outline>
    <contour>
      <point x="128" y="2048" type="line"/>
      <point x="128" y="0" type="line"/>
      <point x="592" y="0" type="line"/>
      <point x="592" y="2048" type="line"/>
    </contour>
    <contour>
      <point x="288" y="1660" type="line"/>
      <point x="592" y="1304" type="line"/>
      <point x="856" y="1304" type="line" smooth="yes"/>
      <point x="1084" y="1304"/>
      <point x="1172" y="1172"/>
      <point x="1172" y="1024" type="curve" smooth="yes"/>
      <point x="1172" y="880"/>
      <point x="1084" y="752"/>
      <point x="856" y="752" type="curve" smooth="yes"/>
      <point x="536" y="752" type="line"/>
      <point x="536" y="396" type="line"/>
      <point x="856" y="396" type="line" smooth="yes"/>
      <point x="1348" y="396"/>
      <point x="1616" y="660"/>
      <point x="1616" y="1028" type="curve" smooth="yes"/>
      <point x="1616" y="1396"/>
      <point x="1348" y="1660"/>
      <point x="856" y="1660" type="curve" smooth="yes"/>
    </contour>
  </outline>
</glyph>
<glyph name="lslash" format="1">
  <advance width="1020"/>
  <unicode hex="0142"/>
  <outline>
    <contour>
      <point x="916" y="1332" type="line"/>
      <point x="104" y="1072" type="line"/>
      <point x="104" y="824" type="line"/>
      <point x="916" y="1084" type="line"/>
    </contour>
    <component base="l" xOffset="128"/>
    <contour>
      <point x="512" y="2308" type="move" name="top"/>
    </contour>
    <contour>
      <point x="512" y="16" type="move" name="bottom"/>
    </contour>
    <contour>
      <point x="964" y="2308" type="move" name="top0315"/>
    </contour>
  </outline>
</glyph>
<glyph name="Eng" format="1">
  <advance width="2048"/>
  <unicode hex="014A"/>
  <outline>
    <contour>
      <point x="1028" y="2200" type="move" name="top"/>
    </contour>
    <contour>
      <point x="1028" y="0" type="move" name="bottom"/>
    </contour>
    <contour>
      <point x="2020" y="2200" type="move" name="top0315"/>
    </contour>
    <contour>
      <point x="192" y="2004" type="line"/>
      <point x="192" y="0" type="line"/>
      <point x="652" y="0" type="line"/>
      <point x="652" y="2004" type="line"/>
    </contour>
    <contour>
      <point x="328" y="1836" type="line"/>
      <point x="1396" y="0" type="line"/>
      <point x="1724" y="168" type="line"/>
      <point x="652" y="2004" type="line"/>
    </contour>
    <contour>
      <point x="1396" y="2004" type="line"/>
      <point x="1396" y="-12" type="line" smooth="yes"/>
      <point x="1396" y="-156"/>
      <point x="1340" y="-228"/>
      <point x="1236" y="-228" type="curve" smooth="yes"/>
      <point x="1172" y="-228"/>
      <point x="1144" y="-224"/>
      <point x="1096" y="-212" type="curve"/>
      <point x="1080" y="-580" type="line"/>
      <point x="1156" y="-596"/>
      <point x="1220" y="-600"/>
      <point x="1296" y="-600" type="curve" smooth="yes"/>
      <point x="1648" y="-600"/>
      <point x="1860" y="-392"/>
      <point x="1860" y="-12" type="curve" smooth="yes"/>
      <point x="1860" y="2004" type="line"/>
    </contour>
  </outline>
</glyph>
<glyph name="Bhook" format="1">
  <advance width="2304"/>
  <unicode hex="0181"/>
  <outline>
    <contour>
      <point x="944" y="1628" type="line" name="hr00"/>
      <point x="944" y="2004" type="line"/>
      <point x="632" y="2004" type="line" smooth="yes"/>
      <point x="256" y="2004"/>
      <point x="52" y="1796"/>
      <point x="52" y="1452" type="curve" smooth="yes"/>
      <point x="52" y="1376"/>
      <point x="60" y="1316"/>
      <point x="76" y="1240" type="curve"/>
      <point x="444" y="1240" type="line"/>
      <point x="440" y="1284"/>
      <point x="432" y="1324"/>
      <point x="432" y="1368" type="curve" smooth="yes"/>
      <point x="432" y="1492"/>
      <point x="472" y="1628"/>
      <point x="632" y="1628" type="curve" smooth="yes"/>
    </contour>
    <component base="B" xOffset="464"/>
  </outline>
</glyph>
<glyph name="Ibar" format="1">
  <advance width="1280"/>
  <unicode hex="0197"/>
  <outline>
    <component base="I" xOffset="268"/>
    <component base="crossbar"/>
    <contour>
      <point x="688" y="2200" type="move" name="top"/>
    </contour>
    <contour>
      <point x="1212" y="2200" type="move" name="top0315"/>
    </contour>
    <contour>
      <point x="688" y="0" type="move" name="bottom"/>
    </contour>
  </outline>
</glyph>
<glyph name="lambdabar" format="1">
  <advance width="1792"/>
  <unicode hex="019B"/>
  <outline>
    <contour>
      <point x="1460" y="2200" type="move" name="top0315"/>
    </contour>
    <contour>
      <point x="1072" y="1876" type="line"/>
      <point x="260" y="1620" type="line"/>
      <point x="260" y="1340" type="line"/>
      <point x="1072" y="1600" type="line"/>
    </contour>
    <component base="lambda"/>
  </outline>
</glyph>
<glyph name="Esh" format="1">
  <advance width="1792"/>
  <unicode hex="01A9"/>
  <outline>
    <component base="Sigma"/>
    <contour>
      <point x="812" y="2200" type="move" name="top"/>
    </contour>
    <contour>
      <point x="1592" y="2200" type="move" name="top0315"/>
    </contour>
    <contour>
      <point x="812" y="16" type="move" name="bottom"/>
    </contour>
  </outline>
</glyph>
<glyph name="Vcursive" format="1">
  <advance width="1792"/>
  <unicode hex="01B2"/>
  <outline>
    <contour>
      <point x="900" y="-28" type="curve" smooth="yes"/>
      <point x="1364" y="-28"/>
      <point x="1680" y="228"/>
      <point x="1680" y="696" type="curve" smooth="yes"/>
      <point x="1680" y="1448" type="line" smooth="yes"/>
      <point x="1680" y="1824"/>
      <point x="1472" y="2028"/>
      <point x="1128" y="2028" type="curve" smooth="yes"/>
      <point x="1052" y="2028"/>
      <point x="992" y="2024"/>
      <point x="916" y="2004" type="curve"/>
      <point x="916" y="1636" type="line"/>
      <point x="960" y="1644"/>
      <point x="1000" y="1648"/>
      <point x="1044" y="1648" type="curve" smooth="yes"/>
      <point x="1168" y="1648"/>
      <point x="1216" y="1612"/>
      <point x="1216" y="1448" type="curve" smooth="yes"/>
      <point x="1216" y="696" type="line" smooth="yes"/>
      <point x="1216" y="448"/>
      <point x="1104" y="344"/>
      <point x="900" y="344" type="curve" smooth="yes"/>
      <point x="692" y="344"/>
      <point x="576" y="448"/>
      <point x="576" y="696" type="curve" smooth="yes"/>
      <point x="576" y="2004" type="line"/>
      <point x="116" y="2004" type="line"/>
      <point x="116" y="696" type="line" smooth="yes"/>
      <point x="116" y="228"/>
      <point x="436" y="-28"/>
    </contour>
  </outline>
</glyph>
<glyph name="tonefive" format="1">
  <advance width="1792"/>
  <unicode hex="01BD"/>
  <outline>
    <contour>
      <point x="744" y="632" type="line" name="hr00"/>
      <point x="772" y="660"/>
      <point x="832" y="684"/>
      <point x="948" y="684" type="curve" smooth="yes"/>
      <point x="1088" y="684"/>
      <point x="1172" y="616"/>
      <point x="1172" y="512" type="curve" smooth="yes"/>
      <point x="1172" y="404"/>
      <point x="1104" y="336"/>
      <point x="956" y="336" type="curve" smooth="yes"/>
      <point x="816" y="336"/>
      <point x="728" y="376"/>
      <point x="716" y="468" type="curve"/>
      <point x="276" y="448" type="line"/>
      <point x="276" y="116"/>
      <point x="604" y="-24"/>
      <point x="956" y="-24" type="curve" smooth="yes"/>
      <point x="1420" y="-24"/>
      <point x="1612" y="188"/>
      <point x="1612" y="480" type="curve" smooth="yes"/>
      <point x="1612" y="792"/>
      <point x="1416" y="972"/>
      <point x="1076" y="972" type="curve" smooth="yes"/>
      <point x="948" y="972"/>
      <point x="836" y="940"/>
      <point x="776" y="908" type="curve"/>
      <point x="812" y="1140" type="line"/>
      <point x="1504" y="1140" type="line"/>
      <point x="1504" y="1488" type="line"/>
      <point x="452" y="1488" type="line"/>
      <point x="340" y="648" type="line"/>
    </contour>
    <contour>
      <point x="608" y="1488" type="line"/>
      <point x="180" y="1488" type="line"/>
      <point x="180" y="1140" type="line"/>
      <point x="608" y="1140" type="line"/>
    </contour>
  </outline>
</glyph>
<glyph name="uni0223" format="1">
  <advance width="1792"/>
  <unicode hex="0223"/>
  <outline>
    <contour>
      <point x="884" y="1256" type="line" name="hr00"/>
      <point x="444" y="1256"/>
      <point x="132" y="1072"/>
      <point x="132" y="636" type="curve" smooth="yes"/>
      <point x="132" y="204"/>
      <point x="444" y="-28"/>
      <point x="884" y="-28" type="curve" smooth="yes"/>
      <point x="912" y="-28" type="line" smooth="yes"/>
      <point x="1348" y="-28"/>
      <point x="1660" y="204"/>
      <point x="1660" y="636" type="curve" smooth="yes"/>
      <point x="1660" y="1072"/>
      <point x="1348" y="1256"/>
      <point x="912" y="1256" type="curve" smooth="yes"/>
    </contour>
    <contour>
      <point x="912" y="940" type="line"/>
      <point x="1112" y="940"/>
      <point x="1216" y="820"/>
      <point x="1216" y="636" type="curve" smooth="yes"/>
      <point x="1216" y="452"/>
      <point x="1112" y="332"/>
      <point x="912" y="332" type="curve" smooth="yes"/>
      <point x="884" y="332" type="line" smooth="yes"/>
      <point x="688" y="332"/>
      <point x="576" y="452"/>
      <point x="576" y="636" type="curve" smooth="yes"/>
      <point x="576" y="820"/>
      <point x="688" y="940"/>
      <point x="884" y="940" type="curve" smooth="yes"/>
    </contour>
    <contour>
      <point x="912" y="1296" type="curve" smooth="yes"/>
      <point x="880" y="1296" type="line" smooth="yes"/>
      <point x="664" y="1296"/>
      <point x="576" y="1384"/>
      <point x="576" y="1564" type="curve" smooth="yes"/>
      <point x="576" y="1704"/>
      <point x="640" y="1768"/>
      <point x="720" y="1796" type="curve"/>
      <point x="720" y="2140" type="line"/>
      <point x="368" y="2140"/>
      <point x="132" y="1944"/>
      <point x="132" y="1572" type="curve" smooth="yes"/>
      <point x="132" y="1140"/>
      <point x="448" y="984"/>
      <point x="880" y="984" type="curve" smooth="yes"/>
      <point x="912" y="984" type="line" smooth="yes"/>
      <point x="1348" y="984"/>
      <point x="1660" y="1140"/>
      <point x="1660" y="1572" type="curve" smooth="yes"/>
      <point x="1660" y="1944"/>
      <point x="1428" y="2140"/>
      <point x="1072" y="2140" type="curve"/>
      <point x="1072" y="1796" type="line"/>
      <point x="1152" y="1768"/>
      <point x="1220" y="1704"/>
      <point x="1220" y="1564" type="curve" smooth="yes"/>
      <point x="1220" y="1384"/>
      <point x="1132" y="1296"/>
    </contour>
  </outline>
</glyph>
<glyph name="uni0236" format="1">
  <advance width="1536"/>
  <unicode hex="0236"/>
  <outline>
    <contour>
      <point x="420" y="1860" type="line"/>
      <point x="420" y="520" type="line"/>
      <point x="420" y="220"/>
      <point x="544" y="-28"/>
      <point x="980" y="-28" type="curve" smooth="yes"/>
      <point x="1324" y="-28"/>
      <point x="1492" y="132"/>
      <point x="1492" y="364" type="curve" smooth="yes"/>
      <point x="1492" y="596"/>
      <point x="1328" y="744"/>
      <point x="1016" y="744" type="curve" smooth="yes"/>
      <point x="792" y="744"/>
      <point x="608" y="696"/>
      <point x="444" y="588" type="curve"/>
      <point x="48" y="276" type="line"/>
      <point x="236" y="0" type="line"/>
      <point x="508" y="224" type="line"/>
      <point x="692" y="372"/>
      <point x="824" y="448"/>
      <point x="972" y="448" type="curve" smooth="yes"/>
      <point x="1052" y="448"/>
      <point x="1108" y="420"/>
      <point x="1108" y="352" type="curve" smooth="yes"/>
      <point x="1108" y="276"/>
      <point x="1048" y="252"/>
      <point x="984" y="252" type="curve" smooth="yes"/>
      <point x="896" y="252"/>
      <point x="864" y="308"/>
      <point x="864" y="404" type="curve" smooth="yes"/>
      <point x="864" y="444"/>
      <point x="864" y="1860"/>
      <point x="864" y="1860" type="curve"/>
    </contour>
    <contour>
      <point x="1112" y="1488" type="line"/>
      <point x="224" y="1488" type="line"/>
      <point x="224" y="1168" type="line"/>
      <point x="1112" y="1168" type="line"/>
    </contour>
  </outline>
</glyph>
<glyph name="dotlessj" format="1">
  <advance width="768"/>
  <unicode hex="0237"/>
  <outline>
    <contour>
      <point x="504" y="1744" type="move" name="top"/>
    </contour>
    <contour>
      <point x="768" y="0" type="move" name="_right"/>
    </contour>
    <contour>
      <point x="948" y="1744" type="move" name="top0315"/>
    </contour>
    <contour>
      <point x="324" y="1488" type="line"/>
      <point x="324" y="-20" type="line"/>
      <point x="324" y="-168"/>
      <point x="264" y="-244"/>
      <point x="160" y="-244" type="curve" smooth="yes"/>
      <point x="104" y="-244"/>
      <point x="68" y="-240"/>
      <point x="24" y="-228" type="curve"/>
      <point x="4" y="-580" type="line"/>
      <point x="80" y="-596"/>
      <point x="140" y="-600"/>
      <point x="216" y="-600" type="curve" smooth="yes"/>
      <point x="560" y="-600"/>
      <point x="768" y="-396"/>
      <point x="768" y="-20" type="curve"/>
      <point x="768" y="1488" type="line"/>
    </contour>
  </outline>
</glyph>
<glyph name="uni0242" format="1">
  <advance width="1536"/>
  <unicode hex="0242"/>
  <outline>
    <contour>
      <point x="140" y="944" type="curve" name="hr00"/>
      <point x="584" y="944" type="line"/>
      <point x="584" y="1080"/>
      <point x="656" y="1160"/>
      <point x="760" y="1160" type="curve" smooth="yes"/>
      <point x="916" y="1160"/>
      <point x="952" y="1056"/>
      <point x="952" y="936" type="curve" smooth="yes"/>
      <point x="952" y="812"/>
      <point x="908" y="684"/>
      <point x="708" y="684" type="curve" smooth="yes"/>
      <point x="612" y="684" type="line"/>
      <point x="612" y="444" type="line"/>
      <point x="856" y="444" type="line" smooth="yes"/>
      <point x="1168" y="444"/>
      <point x="1396" y="608"/>
      <point x="1396" y="944" type="curve" smooth="yes"/>
      <point x="1396" y="1248"/>
      <point x="1212" y="1516"/>
      <point x="760" y="1516" type="curve" smooth="yes"/>
      <point x="368" y="1516"/>
      <point x="140" y="1256"/>
    </contour>
    <contour>
      <point x="548" y="684" type="line"/>
      <point x="548" y="0" type="line"/>
      <point x="992" y="0" type="line"/>
      <point x="992" y="684" type="line"/>
    </contour>
  </outline>
</glyph>
<glyph name="uni024C" format="1">
  <advance width="2048"/>
  <unicode hex="024C"/>
  <outline>
    <contour>
      <point x="900" y="2200" type="move" name="top"/>
    </contour>
    <contour>
      <point x="928" y="16" type="move" name="bottom"/>
    </contour>
    <contour>
      <point x="2004" y="2200" type="move" name="top0315"/>
    </contour>
    <contour>
      <point x="340" y="2004" type="line"/>
      <point x="340" y="0" type="line"/>
      <point x="800" y="0" type="line"/>
      <point x="800" y="1628" type="line"/>
      <point x="1116" y="1628" type="line" smooth="yes"/>
      <point x="1308" y="1628"/>
      <point x="1404" y="1524"/>
      <point x="1404" y="1352" type="curve" smooth="yes"/>
      <point x="1404" y="1184"/>
      <point x="1308" y="1080"/>
      <point x="1116" y="1080" type="curve" smooth="yes"/>
      <point x="112" y="1080" type="line"/>
      <point x="112" y="708" type="line"/>
      <point x="1288" y="708" type="line"/>
      <point x="1436" y="796" type="line"/>
      <point x="1696" y="892"/>
      <point x="1868" y="1052"/>
      <point x="1868" y="1396" type="curve" smooth="yes"/>
      <point x="1868" y="1792"/>
      <point x="1576" y="2004"/>
      <point x="1116" y="2004" type="curve" smooth="yes"/>
    </contour>
    <contour>
      <point x="1444" y="0" type="line"/>
      <point x="1936" y="0" type="line"/>
      <point x="1936" y="20" type="line"/>
      <point x="1484" y="888" type="line"/>
      <point x="996" y="888" type="line"/>
    </contour>
  </outline>
</glyph>
<glyph name="ccurl" format="1">
  <advance width="1536"/>
  <unicode hex="0255"/>
  <outline>
    <contour>
      <point x="824" y="1776" type="move" name="top"/>
    </contour>
    <contour>
      <point x="824" y="0" type="move" name="bottom"/>
    </contour>
    <contour>
      <point x="1528" y="1776" type="move" name="top0315"/>
    </contour>
    <contour>
      <point x="864" y="332" type="curve" smooth="yes"/>
      <point x="616" y="332"/>
      <point x="576" y="480"/>
      <point x="576" y="728" type="curve" smooth="yes"/>
      <point x="576" y="760" type="line" smooth="yes"/>
      <point x="576" y="976"/>
      <point x="608" y="1160"/>
      <point x="812" y="1160" type="curve"/>
      <point x="960" y="1160"/>
      <point x="1036" y="1052"/>
      <point x="1036" y="920" type="curve"/>
      <point x="1448" y="920" type="line"/>
      <point x="1448" y="1296"/>
      <point x="1192" y="1516"/>
      <point x="824" y="1516" type="curve" smooth="yes"/>
      <point x="364" y="1516"/>
      <point x="132" y="1188"/>
      <point x="132" y="760" type="curve" smooth="yes"/>
      <point x="132" y="728" type="line" smooth="yes"/>
      <point x="132" y="296"/>
      <point x="364" y="-28"/>
      <point x="824" y="-28" type="curve" smooth="yes"/>
      <point x="1248" y="-28"/>
      <point x="1448" y="196"/>
      <point x="1448" y="464" type="curve" smooth="yes"/>
      <point x="1448" y="652"/>
      <point x="1328" y="840"/>
      <point x="1020" y="840" type="curve" smooth="yes"/>
      <point x="720" y="840"/>
      <point x="560" y="676"/>
      <point x="268" y="260" type="curve"/>
      <point x="88" y="0" type="line"/>
      <point x="348" y="-200" type="line"/>
      <point x="508" y="44" type="line"/>
      <point x="696" y="320"/>
      <point x="840" y="504"/>
      <point x="948" y="504" type="curve" smooth="yes"/>
      <point x="996" y="504"/>
      <point x="1028" y="484"/>
      <point x="1028" y="436" type="curve" smooth="yes"/>
      <point x="1028" y="364"/>
      <point x="952" y="332"/>
    </contour>
  </outline>
</glyph>
<glyph name="epsilon1revhook" format="1">
  <advance width="2304"/>
  <unicode hex="025D"/>
  <outline>
    <contour>
      <point x="812" y="1776" type="move" name="top"/>
    </contour>
    <contour>
      <point x="812" y="0" type="move" name="bottom"/>
    </contour>
    <contour>
      <point x="2188" y="1776" type="move" name="top0315"/>
    </contour>
    <contour>
      <point x="1348" y="920" type="line"/>
      <point x="1552" y="972" type="line"/>
      <point x="1608" y="732"/>
      <point x="1664" y="540"/>
      <point x="1936" y="540" type="curve" smooth="yes"/>
      <point x="2016" y="540"/>
      <point x="2096" y="560"/>
      <point x="2160" y="596" type="curve"/>
      <point x="2104" y="876" type="line"/>
      <point x="2080" y="872"/>
      <point x="2052" y="872"/>
      <point x="2024" y="872" type="curve" smooth="yes"/>
      <point x="1872" y="872"/>
      <point x="1868" y="1040"/>
      <point x="1824" y="1324" type="curve"/>
      <point x="1348" y="1220" type="line"/>
    </contour>
    <contour>
      <point x="580" y="808" type="line"/>
      <point x="580" y="620" type="line"/>
      <point x="824" y="620" type="line" smooth="yes"/>
      <point x="976" y="620"/>
      <point x="1080" y="580"/>
      <point x="1080" y="464" type="curve" smooth="yes"/>
      <point x="1080" y="384"/>
      <point x="1000" y="304"/>
      <point x="836" y="304" type="curve" smooth="yes"/>
      <point x="668" y="304"/>
      <point x="588" y="364"/>
      <point x="588" y="440" type="curve"/>
      <point x="144" y="440" type="line"/>
      <point x="144" y="116"/>
      <point x="484" y="-28"/>
      <point x="808" y="-28" type="curve" smooth="yes"/>
      <point x="1208" y="-28"/>
      <point x="1520" y="140"/>
      <point x="1520" y="420" type="curve" smooth="yes"/>
      <point x="1520" y="672"/>
      <point x="1296" y="808"/>
      <point x="928" y="808" type="curve"/>
    </contour>
    <contour>
      <point x="928" y="712" type="line"/>
      <point x="1260" y="712"/>
      <point x="1496" y="876"/>
      <point x="1496" y="1080" type="curve"/>
      <point x="1496" y="1364"/>
      <point x="1208" y="1516"/>
      <point x="808" y="1516" type="curve" smooth="yes"/>
      <point x="456" y="1516"/>
      <point x="168" y="1344"/>
      <point x="168" y="1056" type="curve"/>
      <point x="612" y="1056" type="line"/>
      <point x="612" y="1144"/>
      <point x="704" y="1184"/>
      <point x="836" y="1184" type="curve" smooth="yes"/>
      <point x="992" y="1184"/>
      <point x="1052" y="1108"/>
      <point x="1052" y="1040" type="curve"/>
      <point x="1052" y="956"/>
      <point x="968" y="904"/>
      <point x="824" y="904" type="curve" smooth="yes"/>
      <point x="580" y="904" type="line"/>
      <point x="580" y="712" type="line"/>
    </contour>
  </outline>
</glyph>
<glyph name="ibar" format="1">
  <advance width="1280"/>
  <unicode hex="0268"/>
  <outline>
    <component base="i" xOffset="308"/>
    <component base="crossbar" yOffset="-244"/>
    <contour>
      <point x="688" y="2200" type="move" name="top"/>
    </contour>
    <contour>
      <point x="1212" y="2200" type="move" name="top0315"/>
    </contour>
    <contour>
      <point x="688" y="0" type="move" name="bottom"/>
    </contour>
  </outline>
</glyph>
<glyph name="iota1" format="1">
  <advance width="1024"/>
  <unicode hex="0269"/>
  <outline>
    <contour>
      <point x="340" y="1776" type="move" name="top"/>
    </contour>
    <contour>
      <point x="340" y="0" type="move" name="bottom"/>
    </contour>
    <contour>
      <point x="976" y="1776" type="move" name="top0315"/>
    </contour>
    <contour>
      <point x="364" y="896" type="move" name="rhotichook"/>
    </contour>
    <contour>
      <point x="120" y="1488" type="line"/>
      <point x="120" y="468" type="line" smooth="yes"/>
      <point x="120" y="24"/>
      <point x="432" y="-28"/>
      <point x="672" y="-28" type="curve" smooth="yes"/>
      <point x="772" y="-28"/>
      <point x="844" y="-20"/>
      <point x="908" y="-8" type="curve"/>
      <point x="908" y="292" type="line"/>
      <point x="868" y="284"/>
      <point x="836" y="280"/>
      <point x="796" y="280" type="curve" smooth="yes"/>
      <point x="692" y="280"/>
      <point x="564" y="316"/>
      <point x="564" y="468" type="curve" smooth="yes"/>
      <point x="564" y="1488" type="line"/>
    </contour>
  </outline>
</glyph>
<glyph name="lrthook" format="1">
  <advance width="1024"/>
  <unicode hex="026D"/>
  <outline>
    <contour>
      <point x="336" y="2200" type="move" name="top"/>
    </contour>
    <contour>
      <point x="336" y="-616" type="move" name="bottom"/>
    </contour>
    <contour>
      <point x="908" y="2200" type="move" name="top0315"/>
    </contour>
    <contour>
      <point x="120" y="2112" type="line"/>
      <point x="120" y="-108" type="line" smooth="yes"/>
      <point x="120" y="-548"/>
      <point x="432" y="-600"/>
      <point x="672" y="-600" type="curve" smooth="yes"/>
      <point x="772" y="-600"/>
      <point x="840" y="-592"/>
      <point x="908" y="-580" type="curve"/>
      <point x="908" y="-284" type="line"/>
      <point x="868" y="-288"/>
      <point x="836" y="-292"/>
      <point x="796" y="-292" type="curve" smooth="yes"/>
      <point x="692" y="-292"/>
      <point x="564" y="-256"/>
      <point x="564" y="-108" type="curve" smooth="yes"/>
      <point x="564" y="2112" type="line"/>
    </contour>
  </outline>
</glyph>
<glyph name="lyogh" format="1">
  <advance width="1792"/>
  <unicode hex="026E"/>
  <outline>
    <contour>
      <point x="260" y="1488" type="line"/>
      <point x="260" y="1132" type="line"/>
      <point x="1088" y="1132" type="line"/>
      <point x="748" y="632" type="line"/>
      <point x="748" y="460" type="line"/>
      <point x="1068" y="460" type="line"/>
      <point x="1596" y="1192" type="line"/>
      <point x="1596" y="1488" type="line"/>
    </contour>
    <contour>
      <point x="748" y="624" type="line"/>
      <point x="748" y="364" type="line"/>
      <point x="816" y="364" type="line" smooth="yes"/>
      <point x="1056" y="364"/>
      <point x="1184" y="260"/>
      <point x="1184" y="56" type="curve" smooth="yes"/>
      <point x="1184" y="-136"/>
      <point x="1072" y="-244"/>
      <point x="880" y="-244" type="curve" smooth="yes"/>
      <point x="712" y="-244"/>
      <point x="644" y="-208"/>
      <point x="608" y="-100" type="curve"/>
      <point x="164" y="-100" type="line"/>
      <point x="244" y="-480"/>
      <point x="528" y="-600"/>
      <point x="880" y="-600" type="curve" smooth="yes"/>
      <point x="1312" y="-600"/>
      <point x="1628" y="-384"/>
      <point x="1628" y="-12" type="curve" smooth="yes"/>
      <point x="1628" y="420"/>
      <point x="1356" y="652"/>
      <point x="892" y="652" type="curve"/>
    </contour>
    <component base="l" xOffset="4"/>
    <contour>
      <point x="884" y="1776" type="move" name="top"/>
    </contour>
    <contour>
      <point x="884" y="-616" type="move" name="bottom"/>
    </contour>
    <contour>
      <point x="1688" y="1776" type="move" name="top0315"/>
    </contour>
  </outline>
</glyph>
<glyph name="Nsmallcap" format="1">
  <advance width="1536"/>
  <unicode hex="0274"/>
  <outline>
    <contour>
      <point x="772" y="1776" type="move" name="top"/>
    </contour>
    <contour>
      <point x="772" y="0" type="move" name="bottom"/>
    </contour>
    <contour>
      <point x="1572" y="1776" type="move" name="top0315"/>
    </contour>
    <contour>
      <point x="548" y="1488" type="line"/>
      <point x="1236" y="132" type="line"/>
      <point x="988" y="0" type="line"/>
      <point x="304" y="1356" type="line"/>
    </contour>
    <contour>
      <point x="548" y="0" type="line"/>
      <point x="108" y="0" type="line"/>
      <point x="108" y="1488" type="line"/>
      <point x="548" y="1488" type="line"/>
    </contour>
    <contour>
      <point x="1432" y="0" type="line"/>
      <point x="988" y="0" type="line"/>
      <point x="988" y="1488" type="line"/>
      <point x="1432" y="1488" type="line"/>
    </contour>
  </outline>
</glyph>
<glyph name="philatin" format="1">
  <advance width="2048"/>
  <unicode hex="0278"/>
  <outline>
    <contour>
      <point x="1024" y="2200" type="move" name="top"/>
    </contour>
    <contour>
      <point x="1024" y="-616" type="move" name="bottom"/>
    </contour>
    <contour>
      <point x="1956" y="2200" type="move" name="top0315"/>
    </contour>
    <contour>
      <point x="172" y="728" type="line"/>
      <point x="172" y="156"/>
      <point x="564" y="-28"/>
      <point x="1024" y="-28" type="curve" smooth="yes"/>
      <point x="1488" y="-28"/>
      <point x="1876" y="156"/>
      <point x="1876" y="728" type="curve" smooth="yes"/>
      <point x="1876" y="760" type="line" smooth="yes"/>
      <point x="1876" y="1332"/>
      <point x="1488" y="1516"/>
      <point x="1024" y="1516" type="curve" smooth="yes"/>
      <point x="564" y="1516"/>
      <point x="172" y="1332"/>
      <point x="172" y="760" type="curve" smooth="yes"/>
    </contour>
    <contour>
      <point x="616" y="760" type="line"/>
      <point x="616" y="1084"/>
      <point x="820" y="1160"/>
      <point x="1024" y="1160" type="curve" smooth="yes"/>
      <point x="1232" y="1160"/>
      <point x="1432" y="1084"/>
      <point x="1432" y="760" type="curve" smooth="yes"/>
      <point x="1432" y="728" type="line" smooth="yes"/>
      <point x="1432" y="396"/>
      <point x="1228" y="332"/>
      <point x="1024" y="332" type="curve" smooth="yes"/>
      <point x="820" y="332"/>
      <point x="616" y="396"/>
      <point x="616" y="728" type="curve" smooth="yes"/>
    </contour>
    <contour>
      <point x="804" y="-572" type="line"/>
      <point x="1244" y="-572" type="line"/>
      <point x="1244" y="2112" type="line"/>
      <point x="804" y="2112" type="line"/>
    </contour>
  </outline>
</glyph>
<glyph name="rturn" format="1">
  <advance width="1024"/>
  <unicode hex="0279"/>
  <outline>
    <contour>
      <point x="356" y="1776" type="move" name="top"/>
    </contour>
    <contour>
      <point x="356" y="0" type="move" name="bottom"/>
    </contour>
    <contour>
      <point x="1096" y="1776" type="move" name="top0315"/>
    </contour>
    <contour>
      <point x="196" y="-28" type="curve" smooth="yes"/>
      <point x="464" y="-28"/>
      <point x="624" y="248"/>
      <point x="624" y="648" type="curve"/>
      <point x="540" y="700" type="line"/>
      <point x="540" y="508"/>
      <point x="448" y="408"/>
      <point x="228" y="408" type="curve" smooth="yes"/>
      <point x="188" y="408"/>
      <point x="116" y="416"/>
      <point x="76" y="420" type="curve"/>
      <point x="72" y="-12" type="line"/>
      <point x="104" y="-24"/>
      <point x="152" y="-28"/>
    </contour>
    <contour>
      <point x="512" y="368" type="line"/>
      <point x="540" y="0" type="line"/>
      <point x="956" y="0" type="line"/>
      <point x="956" y="1488" type="line"/>
      <point x="512" y="1488" type="line"/>
    </contour>
  </outline>
</glyph>
<glyph name="rrthook" format="1">
  <advance width="1280"/>
  <unicode hex="027D"/>
  <outline>
    <contour>
      <point x="200" y="296" type="line" name="hr00"/>
      <point x="200" y="-108" type="line" smooth="yes"/>
      <point x="200" y="-548"/>
      <point x="512" y="-600"/>
      <point x="752" y="-600" type="curve" smooth="yes"/>
      <point x="852" y="-600"/>
      <point x="920" y="-592"/>
      <point x="984" y="-580" type="curve"/>
      <point x="984" y="-284" type="line"/>
      <point x="948" y="-288"/>
      <point x="912" y="-292"/>
      <point x="876" y="-292" type="curve" smooth="yes"/>
      <point x="772" y="-292"/>
      <point x="640" y="-256"/>
      <point x="640" y="-108" type="curve" smooth="yes"/>
      <point x="640" y="296" type="line"/>
    </contour>
    <component base="r" xOffset="60"/>
    <contour>
      <point x="592" y="-424" type="move" name="parenthesses.w1"/>
    </contour>
    <contour>
      <point x="796" y="1776" type="move" name="top"/>
    </contour>
    <contour>
      <point x="796" y="-616" type="move" name="bottom"/>
    </contour>
    <contour>
      <point x="1112" y="1776" type="move" name="top0315"/>
    </contour>
  </outline>
</glyph>
<glyph name="srthook" format="1">
  <advance width="1536"/>
  <unicode hex="0282"/>
  <outline>
    <contour>
      <point x="88" y="476" type="line"/>
      <point x="88" y="-80" type="line" smooth="yes"/>
      <point x="88" y="-396"/>
      <point x="264" y="-572"/>
      <point x="556" y="-572" type="curve" smooth="yes"/>
      <point x="620" y="-572"/>
      <point x="672" y="-568"/>
      <point x="740" y="-552" type="curve"/>
      <point x="740" y="-256" type="line"/>
      <point x="700" y="-260"/>
      <point x="668" y="-264"/>
      <point x="628" y="-264" type="curve" smooth="yes"/>
      <point x="524" y="-264"/>
      <point x="392" y="-232"/>
      <point x="392" y="-80" type="curve" smooth="yes"/>
      <point x="392" y="476" type="line"/>
    </contour>
    <component base="s" xOffset="32"/>
    <contour>
      <point x="740" y="1776" type="move" name="top"/>
    </contour>
    <contour>
      <point x="740" y="-616" type="move" name="bottom"/>
    </contour>
    <contour>
      <point x="1476" y="1776" type="move" name="top0315"/>
    </contour>
  </outline>
</glyph>
<glyph name="vscript" format="1">
  <advance width="1536"/>
  <unicode hex="028B"/>
  <outline>
    <contour>
      <point x="772" y="1776" type="move" name="top"/>
    </contour>
    <contour>
      <point x="772" y="0" type="move" name="bottom"/>
    </contour>
    <contour>
      <point x="1564" y="1776" type="move" name="top0315"/>
    </contour>
    <contour>
      <point x="768" y="332" type="line"/>
      <point x="620" y="332"/>
      <point x="548" y="408"/>
      <point x="548" y="580" type="curve"/>
      <point x="548" y="1488" type="line"/>
      <point x="104" y="1488" type="line"/>
      <point x="104" y="580" type="line"/>
      <point x="104" y="148"/>
      <point x="376" y="-28"/>
      <point x="768" y="-28" type="curve"/>
    </contour>
    <contour>
      <point x="768" y="-28" type="line"/>
      <point x="1164" y="-28"/>
      <point x="1432" y="148"/>
      <point x="1432" y="580" type="curve" smooth="yes"/>
      <point x="1432" y="1044" type="line" smooth="yes"/>
      <point x="1432" y="1336"/>
      <point x="1316" y="1516"/>
      <point x="1036" y="1516" type="curve" smooth="yes"/>
      <point x="948" y="1516"/>
      <point x="840" y="1496"/>
      <point x="716" y="1456" type="curve"/>
      <point x="760" y="1144" type="line"/>
      <point x="784" y="1148"/>
      <point x="808" y="1152"/>
      <point x="828" y="1152" type="curve" smooth="yes"/>
      <point x="936" y="1152"/>
      <point x="992" y="1084"/>
      <point x="992" y="956" type="curve" smooth="yes"/>
      <point x="992" y="580" type="line" smooth="yes"/>
      <point x="992" y="408"/>
      <point x="916" y="332"/>
      <point x="768" y="332" type="curve"/>
    </contour>
  </outline>
</glyph>
<glyph name="wturn" format="1">
  <advance width="2304"/>
  <unicode hex="028D"/>
  <outline>
    <contour>
      <point x="1152" y="1776" type="move" name="top"/>
    </contour>
    <contour>
      <point x="1152" y="0" type="move" name="bottom"/>
    </contour>
    <contour>
      <point x="2180" y="1776" type="move" name="top0315"/>
    </contour>
    <contour>
      <point x="776" y="1016" type="line"/>
      <point x="792" y="1488" type="line"/>
      <point x="520" y="1488" type="line"/>
      <point x="164" y="0" type="line"/>
      <point x="588" y="0" type="line"/>
    </contour>
    <contour>
      <point x="996" y="0" type="line"/>
      <point x="1268" y="0" type="line"/>
      <point x="1176" y="528" type="line"/>
      <point x="896" y="1488" type="line"/>
      <point x="668" y="1488" type="line"/>
      <point x="708" y="1044" type="line"/>
    </contour>
    <contour>
      <point x="1596" y="1044" type="line"/>
      <point x="1636" y="1488" type="line"/>
      <point x="1412" y="1488" type="line"/>
      <point x="1128" y="524" type="line"/>
      <point x="1032" y="0" type="line"/>
      <point x="1308" y="0" type="line"/>
    </contour>
    <contour>
      <point x="1720" y="0" type="line"/>
      <point x="2144" y="0" type="line"/>
      <point x="1784" y="1488" type="line"/>
      <point x="1512" y="1488" type="line"/>
      <point x="1532" y="1036" type="line"/>
    </contour>
  </outline>
</glyph>
<glyph name="Ysmallcap" format="1">
  <advance width="1536"/>
  <unicode hex="028F"/>
  <outline>
    <contour>
      <point x="768" y="1776" type="move" name="top"/>
    </contour>
    <contour>
      <point x="768" y="0" type="move" name="bottom"/>
    </contour>
    <contour>
      <point x="1524" y="1776" type="move" name="top0315"/>
    </contour>
    <contour>
      <point x="684" y="660" type="line"/>
      <point x="728" y="424" type="line"/>
      <point x="960" y="424" type="line"/>
      <point x="1524" y="1488" type="line"/>
      <point x="1048" y="1488" type="line"/>
    </contour>
    <contour>
      <point x="492" y="1488" type="line"/>
      <point x="12" y="1488" type="line"/>
      <point x="576" y="424" type="line"/>
      <point x="808" y="424" type="line"/>
      <point x="860" y="652" type="line"/>
    </contour>
    <contour>
      <point x="984" y="652" type="line"/>
      <point x="544" y="652" type="line"/>
      <point x="544" y="0" type="line"/>
      <point x="984" y="0" type="line"/>
    </contour>
  </outline>
</glyph>
<glyph name="zcurl" format="1">
  <advance width="2048"/>
  <unicode hex="0291"/>
  <outline>
    <contour>
      <point x="776" y="1776" type="move" name="top"/>
    </contour>
    <contour>
      <point x="776" y="-616" type="move" name="bottom"/>
    </contour>
    <contour>
      <point x="1924" y="1776" type="move" name="top0315"/>
    </contour>
    <contour>
      <point x="752" y="0" type="line"/>
      <point x="1376" y="0" type="line" smooth="yes"/>
      <point x="1684" y="0"/>
      <point x="1880" y="192"/>
      <point x="1880" y="484" type="curve" smooth="yes"/>
      <point x="1880" y="736"/>
      <point x="1760" y="868"/>
      <point x="1532" y="868" type="curve" smooth="yes"/>
      <point x="1272" y="868"/>
      <point x="1092" y="636"/>
      <point x="660" y="20" type="curve"/>
      <point x="508" y="-196" type="line"/>
      <point x="760" y="-376" type="line"/>
      <point x="1024" y="24" type="line"/>
      <point x="1336" y="492"/>
      <point x="1400" y="576"/>
      <point x="1472" y="576" type="curve" smooth="yes"/>
      <point x="1528" y="576"/>
      <point x="1560" y="548"/>
      <point x="1560" y="484" type="curve" smooth="yes"/>
      <point x="1560" y="424"/>
      <point x="1528" y="360"/>
      <point x="1404" y="360" type="curve" smooth="yes"/>
      <point x="752" y="360" type="line"/>
    </contour>
    <contour>
      <point x="1340" y="360" type="line"/>
      <point x="280" y="360" type="line"/>
      <point x="280" y="0" type="line"/>
      <point x="1340" y="0" type="line"/>
    </contour>
    <contour>
      <point x="1404" y="1240" type="line"/>
      <point x="1404" y="1488" type="line"/>
      <point x="1104" y="1488" type="line"/>
      <point x="168" y="260" type="line"/>
      <point x="168" y="0" type="line"/>
      <point x="468" y="0" type="line"/>
    </contour>
    <contour>
      <point x="1256" y="1488" type="line"/>
      <point x="196" y="1488" type="line"/>
      <point x="196" y="1132" type="line"/>
      <point x="1256" y="1132" type="line"/>
    </contour>
  </outline>
</glyph>
<glyph name="glottalstop" format="1">
  <advance width="1536"/>
  <unicode hex="0294"/>
  <outline>
    <contour>
      <point x="736" y="2244" type="move" name="top"/>
    </contour>
    <contour>
      <point x="784" y="0" type="move" name="bottom"/>
    </contour>
    <contour>
      <point x="1508" y="2244" type="move" name="top0315"/>
    </contour>
    <contour>
      <point x="580" y="780" type="line" name="hr00"/>
      <point x="580" y="424" type="line"/>
      <point x="744" y="424" type="line" smooth="yes"/>
      <point x="1196" y="424"/>
      <point x="1428" y="748"/>
      <point x="1428" y="1180" type="curve" smooth="yes"/>
      <point x="1428" y="1388" type="line" smooth="yes"/>
      <point x="1428" y="1816"/>
      <point x="1196" y="2140"/>
      <point x="732" y="2140" type="curve" smooth="yes"/>
      <point x="380" y="2140"/>
      <point x="108" y="1920"/>
      <point x="108" y="1584" type="curve"/>
      <point x="524" y="1584" type="line"/>
      <point x="524" y="1708"/>
      <point x="608" y="1784"/>
      <point x="744" y="1784" type="curve" smooth="yes"/>
      <point x="952" y="1784"/>
      <point x="984" y="1608"/>
      <point x="984" y="1388" type="curve" smooth="yes"/>
      <point x="984" y="1180" type="line" smooth="yes"/>
      <point x="984" y="964"/>
      <point x="948" y="780"/>
      <point x="744" y="780" type="curve" smooth="yes"/>
    </contour>
    <contour>
      <point x="1000" y="780" type="line"/>
      <point x="556" y="780" type="line"/>
      <point x="556" y="0" type="line"/>
      <point x="1000" y="0" type="line"/>
    </contour>
  </outline>
</glyph>
<glyph name="finalmem" format="1">
  <advance width="1280"/>
  <unicode hex="02AD"/>
  <outline>
    <contour>
      <point x="648" y="2200" type="move" name="top"/>
    </contour>
    <contour>
      <point x="648" y="0" type="move" name="bottom"/>
    </contour>
    <contour>
      <point x="1344" y="2200" type="move" name="top0315"/>
    </contour>
    <contour>
      <point x="904" y="804" type="line"/>
      <point x="372" y="804" type="line"/>
      <point x="372" y="552" type="line"/>
      <point x="904" y="552" type="line"/>
    </contour>
    <contour>
      <point x="396" y="804" type="line"/>
      <point x="76" y="804" type="line"/>
      <point x="76" y="0" type="line"/>
      <point x="396" y="0" type="line"/>
    </contour>
    <contour>
      <point x="1204" y="804" type="line"/>
      <point x="884" y="804" type="line"/>
      <point x="884" y="0" type="line"/>
      <point x="1204" y="0" type="line"/>
    </contour>
    <contour>
      <point x="904" y="2004" type="line"/>
      <point x="372" y="2004" type="line"/>
      <point x="372" y="1748" type="line"/>
      <point x="904" y="1748" type="line"/>
    </contour>
    <contour>
      <point x="396" y="2004" type="line"/>
      <point x="76" y="2004" type="line"/>
      <point x="76" y="1200" type="line"/>
      <point x="396" y="1200" type="line"/>
    </contour>
    <contour>
      <point x="1204" y="2004" type="line"/>
      <point x="884" y="2004" type="line"/>
      <point x="884" y="1200" type="line"/>
      <point x="1204" y="1200" type="line"/>
    </contour>
  </outline>
</glyph>
<glyph name="rsuper" format="1">
  <advance width="1024"/>
  <unicode hex="02B3"/>
  <outline>
    <contour>
      <point x="504" y="1768" type="line"/>
      <point x="444" y="2004" type="line"/>
      <point x="196" y="2004" type="line"/>
      <point x="196" y="900" type="line"/>
      <point x="504" y="900" type="line"/>
    </contour>
    <contour>
      <point x="828" y="2008" type="line"/>
      <point x="816" y="2012"/>
      <point x="792" y="2016"/>
      <point x="756" y="2016" type="curve" smooth="yes"/>
      <point x="548" y="2016"/>
      <point x="408" y="1792"/>
      <point x="408" y="1480" type="curve"/>
      <point x="472" y="1484" type="line"/>
      <point x="472" y="1632"/>
      <point x="560" y="1704"/>
      <point x="696" y="1704" type="curve" smooth="yes"/>
      <point x="752" y="1704"/>
      <point x="792" y="1696"/>
      <point x="828" y="1684" type="curve"/>
    </contour>
  </outline>
</glyph>
<glyph name="finaltsadi" format="1">
  <advance width="1024"/>
  <unicode hex="02B5"/>
  <outline>
    <contour>
      <point x="80" y="896" type="line"/>
      <point x="92" y="892"/>
      <point x="116" y="888"/>
      <point x="152" y="888" type="curve" smooth="yes"/>
      <point x="364" y="888"/>
      <point x="500" y="1112"/>
      <point x="500" y="1424" type="curve"/>
      <point x="436" y="1420" type="line"/>
      <point x="436" y="1272"/>
      <point x="348" y="1200"/>
      <point x="212" y="1200" type="curve" smooth="yes"/>
      <point x="156" y="1200"/>
      <point x="116" y="1208"/>
      <point x="80" y="1220" type="curve"/>
    </contour>
    <contour>
      <point x="944" y="484" type="curve"/>
      <point x="944" y="760" type="line"/>
      <point x="912" y="752"/>
      <point x="888" y="748"/>
      <point x="864" y="748" type="curve" smooth="yes"/>
      <point x="756" y="748"/>
      <point x="712" y="812"/>
      <point x="712" y="892" type="curve" smooth="yes"/>
      <point x="712" y="2004" type="line"/>
      <point x="404" y="2004" type="line"/>
      <point x="404" y="856" type="line" smooth="yes"/>
      <point x="404" y="540"/>
      <point x="540" y="468"/>
      <point x="748" y="468" type="curve" smooth="yes"/>
      <point x="808" y="468"/>
      <point x="872" y="476"/>
    </contour>
  </outline>
</glyph>
<glyph name="commareversedmod" format="1">
  <advance width="768"/>
  <unicode hex="02BD"/>
  <outline>
    <contour>
      <point x="152" y="2200" type="line"/>
      <point x="512" y="2200" type="line"/>
      <point x="512" y="1924" type="line" smooth="yes"/>
      <point x="512" y="1732"/>
      <point x="556" y="1604"/>
      <point x="616" y="1492" type="curve"/>
      <point x="404" y="1384" type="line"/>
      <point x="276" y="1504"/>
      <point x="152" y="1728"/>
      <point x="152" y="1924" type="curve" smooth="yes"/>
    </contour>
  </outline>
</glyph>
<glyph name="glottalstopreversedmod" format="1">
  <advance width="1280"/>
  <unicode hex="02C1"/>
  <outline>
    <contour>
      <point x="1096" y="2096" type="line"/>
      <point x="1096" y="2344"/>
      <point x="920" y="2488"/>
      <point x="660" y="2488" type="curve" smooth="yes"/>
      <point x="344" y="2488"/>
      <point x="188" y="2296"/>
      <point x="188" y="1956" type="curve" smooth="yes"/>
      <point x="188" y="1668" type="line" smooth="yes"/>
      <point x="188" y="1356"/>
      <point x="344" y="1164"/>
      <point x="660" y="1164" type="curve" smooth="yes"/>
      <point x="784" y="1164" type="line"/>
      <point x="784" y="1424" type="line"/>
      <point x="708" y="1424" type="line" smooth="yes"/>
      <point x="576" y="1424"/>
      <point x="508" y="1508"/>
      <point x="508" y="1652" type="curve" smooth="yes"/>
      <point x="508" y="1944" type="line" smooth="yes"/>
      <point x="508" y="2140"/>
      <point x="532" y="2228"/>
      <point x="652" y="2228" type="curve" smooth="yes"/>
      <point x="748" y="2228"/>
      <point x="788" y="2168"/>
      <point x="788" y="2096" type="curve"/>
    </contour>
    <contour>
      <point x="488" y="1424" type="line"/>
      <point x="488" y="900" type="line"/>
      <point x="812" y="900" type="line"/>
      <point x="812" y="1424" type="line"/>
    </contour>
  </outline>
</glyph>
<glyph name="uni02F3" format="1">
  <advance width="1024"/>
  <unicode hex="02F3"/>
  <outline>
    <contour>
      <point x="520" y="0" type="move" name="_bottom"/>
    </contour>
    <contour>
      <point x="252" y="-308" type="curve" smooth="yes"/>
      <point x="252" y="-444"/>
      <point x="364" y="-544"/>
      <point x="516" y="-544" type="curve" smooth="yes"/>
      <point x="660" y="-544"/>
      <point x="776" y="-448"/>
      <point x="776" y="-308" type="curve" smooth="yes"/>
      <point x="776" y="-176"/>
      <point x="660" y="-72"/>
      <point x="516" y="-72" type="curve" smooth="yes"/>
      <point x="364" y="-72"/>
      <point x="252" y="-176"/>
    </contour>
    <contour>
      <point x="416" y="-308" type="curve" smooth="yes"/>
      <point x="416" y="-252"/>
      <point x="456" y="-212"/>
      <point x="516" y="-212" type="curve" smooth="yes"/>
      <point x="568" y="-212"/>
      <point x="608" y="-252"/>
      <point x="608" y="-308" type="curve" smooth="yes"/>
      <point x="608" y="-368"/>
      <point x="568" y="-408"/>
      <point x="516" y="-408" type="curve" smooth="yes"/>
      <point x="456" y="-408"/>
      <point x="416" y="-368"/>
    </contour>
  </outline>
</glyph>
<glyph name="uni02FA" format="1">
  <advance width="1024"/>
  <unicode hex="02FA"/>
  <outline>
    <contour>
      <point x="524" y="2112" type="line"/>
      <point x="800" y="2112" type="line"/>
      <point x="800" y="1556" type="line"/>
      <point x="524" y="1556" type="line"/>
    </contour>
    <contour>
      <point x="800" y="2112" type="line"/>
      <point x="800" y="1852" type="line"/>
      <point x="224" y="1852" type="line"/>
      <point x="224" y="2112" type="line"/>
    </contour>
  </outline>
</glyph>
<glyph name="uni02FD" format="1">
  <advance width="1280"/>
  <unicode hex="02FD"/>
  <outline>
    <contour>
      <point x="880" y="-352" type="line"/>
      <point x="328" y="-352" type="line"/>
      <point x="328" y="-612" type="line"/>
      <point x="880" y="-612" type="line"/>
    </contour>
    <contour>
      <point x="420" y="-84" type="line"/>
      <point x="144" y="-84" type="line"/>
      <point x="144" y="-612" type="line"/>
      <point x="420" y="-612" type="line"/>
    </contour>
    <contour>
      <point x="1136" y="-84" type="line"/>
      <point x="860" y="-84" type="line"/>
      <point x="860" y="-612" type="line"/>
      <point x="1136" y="-612" type="line"/>
    </contour>
  </outline>
</glyph>
<glyph name="tildecomb" format="1">
  <advance width="0"/>
  <unicode hex="0303"/>
  <outline>
    <contour>
      <point x="-800" y="1727" type="move" name="_top"/>
    </contour>
    <contour>
      <point x="-800" y="1727" type="move" name="_marktop"/>
    </contour>
    <contour>
      <point x="-765" y="1922" type="move" name="parent_top"/>
    </contour>
    <contour>
      <point x="-800" y="2305" type="move" name="mkmktop"/>
    </contour>
    <component base="tilde" xOffset="-1449"/>
  </outline>
</glyph>
<glyph name="dotnosp" format="1">
  <advance width="0"/>
  <unicode hex="0307"/>
  <outline>
    <contour>
      <point x="-792" y="1774" type="move" name="_marktop"/>
    </contour>
    <contour>
      <point x="-792" y="2255" type="move" name="mkmktop"/>
    </contour>
    <contour>
      <point x="-792" y="1871" type="move" name="parent_top"/>
    </contour>
    <contour>
      <point x="-1038" y="1871" type="curve" smooth="yes"/>
      <point x="-1038" y="1739"/>
      <point x="-939" y="1646"/>
      <point x="-792" y="1646" type="curve" smooth="yes"/>
      <point x="-645" y="1646"/>
      <point x="-546" y="1739"/>
      <point x="-546" y="1871" type="curve" smooth="yes"/>
      <point x="-546" y="2003"/>
      <point x="-645" y="2097"/>
      <point x="-792" y="2097" type="curve" smooth="yes"/>
      <point x="-939" y="2097"/>
      <point x="-1038" y="2003"/>
    </contour>
  </outline>
</glyph>
<glyph name="acutedblnosp" format="1">
  <advance width="0"/>
  <unicode hex="030B"/>
  <outline>
    <contour>
      <point x="-909" y="1774" type="move" name="_marktop"/>
    </contour>
    <contour>
      <point x="-806" y="1896" type="move" name="parent_top"/>
    </contour>
    <contour>
      <point x="-909" y="2255" type="move" name="mkmktop"/>
    </contour>
    <component base="acute" xOffset="-1650"/>
    <component base="acute" xOffset="-963"/>
  </outline>
</glyph>
<glyph name="linevertdblnosp" format="1">
  <advance width="0"/>
  <unicode hex="030E"/>
  <outline>
    <contour>
      <point x="-798" y="1623" type="move" name="_marktop"/>
    </contour>
    <contour>
      <point x="-795" y="1867" type="move" name="parent_top"/>
    </contour>
    <contour>
      <point x="-798" y="2310" type="move" name="mkmktop"/>
    </contour>
    <component base="linevert" xOffset="-1249"/>
    <component base="linevert" xOffset="-836"/>
  </outline>
</glyph>
<glyph name="candrabindunosp" format="1">
  <advance width="0"/>
  <unicode hex="0310"/>
  <outline>
    <contour>
      <point x="-792" y="1595" type="move" name="_top"/>
    </contour>
    <contour>
      <point x="-792" y="1595" type="move" name="_marktop"/>
    </contour>
    <contour>
      <point x="-792" y="2626" type="move" name="mkmktop"/>
    </contour>
    <contour>
      <point x="-792" y="2097" type="move" name="parent_top"/>
    </contour>
    <contour>
      <point x="-601" y="2115" type="line"/>
      <point x="-601" y="2024"/>
      <point x="-652" y="1940"/>
      <point x="-792" y="1940" type="curve" smooth="yes"/>
      <point x="-934" y="1940"/>
      <point x="-986" y="2024"/>
      <point x="-986" y="2115" type="curve"/>
      <point x="-1291" y="2115" type="line"/>
      <point x="-1291" y="1866"/>
      <point x="-1099" y="1693"/>
      <point x="-792" y="1693" type="curve" smooth="yes"/>
      <point x="-487" y="1693"/>
      <point x="-294" y="1866"/>
      <point x="-294" y="2115" type="curve"/>
    </contour>
    <contour>
      <point x="-1038" y="2296" type="curve" smooth="yes"/>
      <point x="-1038" y="2179"/>
      <point x="-939" y="2091"/>
      <point x="-792" y="2091" type="curve" smooth="yes"/>
      <point x="-645" y="2091"/>
      <point x="-546" y="2179"/>
      <point x="-546" y="2296" type="curve" smooth="yes"/>
      <point x="-546" y="2413"/>
      <point x="-645" y="2501"/>
      <point x="-792" y="2501" type="curve" smooth="yes"/>
      <point x="-939" y="2501"/>
      <point x="-1038" y="2413"/>
    </contour>
  </outline>
</glyph>
<glyph name="breveinvnosp" format="1">
  <advance width="0"/>
  <unicode hex="0311"/>
  <outline>
    <contour>
      <point x="-792" y="1595" type="move" name="_top"/>
    </contour>
    <contour>
      <point x="-792" y="1595" type="move" name="_marktop"/>
    </contour>
    <contour>
      <point x="-792" y="2145" type="move" name="mkmktop"/>
    </contour>
    <contour>
      <point x="-792" y="2145" type="move" name="mkmktop_acc"/>
    </contour>
    <contour>
      <point x="-792" y="1790" type="move" name="parent_top"/>
    </contour>
    <contour>
      <point x="-294" y="1580" type="line"/>
      <point x="-294" y="1829"/>
      <point x="-487" y="2002"/>
      <point x="-792" y="2002" type="curve" smooth="yes"/>
      <point x="-1099" y="2002"/>
      <point x="-1291" y="1829"/>
      <point x="-1291" y="1580" type="curve"/>
      <point x="-986" y="1580" type="line"/>
      <point x="-986" y="1671"/>
      <point x="-934" y="1755"/>
      <point x="-792" y="1755" type="curve" smooth="yes"/>
      <point x="-652" y="1755"/>
      <point x="-601" y="1671"/>
      <point x="-601" y="1580" type="curve"/>
    </contour>
  </outline>
</glyph>
<glyph name="tackleftsubnosp" format="1">
  <advance width="0"/>
  <unicode hex="0318"/>
  <outline>
    <contour>
      <point x="-755" y="-17" type="move" name="_markbottom"/>
    </contour>
    <contour>
      <point x="-755" y="-732" type="move" name="mkmkbottom_acc"/>
    </contour>
    <contour>
      <point x="-435" y="-91" type="line"/>
      <point x="-711" y="-91" type="line"/>
      <point x="-711" y="-732" type="line"/>
      <point x="-435" y="-732" type="line"/>
    </contour>
    <contour>
      <point x="-1152" y="-281" type="line"/>
      <point x="-1152" y="-542" type="line"/>
      <point x="-461" y="-542" type="line"/>
      <point x="-461" y="-281" type="line"/>
    </contour>
  </outline>
</glyph>
<glyph name="anglesupnosp" format="1">
  <advance width="0"/>
  <unicode hex="031A"/>
  <outline>
    <contour>
      <point x="-708" y="1737" type="move" name="_marktop"/>
    </contour>
    <contour>
      <point x="-708" y="2338" type="move" name="mkmktop"/>
    </contour>
    <contour>
      <point x="-1176" y="2020" type="line"/>
      <point x="-421" y="2020" type="line"/>
      <point x="-421" y="2281" type="line"/>
      <point x="-1176" y="2281" type="line"/>
    </contour>
    <contour>
      <point x="-514" y="1764" type="line"/>
      <point x="-239" y="1764" type="line"/>
      <point x="-239" y="2281" type="line"/>
      <point x="-514" y="2281" type="line"/>
    </contour>
  </outline>
</glyph>
<glyph name="hornnosp" format="1">
  <advance width="0"/>
  <unicode hex="031B"/>
  <outline>
    <contour>
      <point x="-162" y="2200" type="line"/>
      <point x="-521" y="2200" type="line"/>
      <point x="-521" y="1786"/>
      <point x="-549" y="1683"/>
      <point x="-626" y="1493" type="curve"/>
      <point x="-414" y="1383" type="line"/>
      <point x="-283" y="1504"/>
      <point x="-162" y="1728"/>
      <point x="-162" y="1922" type="curve" smooth="yes"/>
    </contour>
  </outline>
</glyph>
<glyph name="ringlefthalfsubnosp" format="1">
  <advance width="0"/>
  <unicode hex="031C"/>
  <outline>
    <contour>
      <point x="-806" y="0" type="move" name="_markbottom"/>
    </contour>
    <contour>
      <point x="-806" y="-616" type="move" name="mkmkbottom_acc"/>
    </contour>
    <contour>
      <point x="-681" y="-616" type="line"/>
      <point x="-844" y="-616"/>
      <point x="-971" y="-507"/>
      <point x="-971" y="-356" type="curve" smooth="yes"/>
      <point x="-971" y="-206"/>
      <point x="-844" y="-91"/>
      <point x="-681" y="-91" type="curve"/>
      <point x="-681" y="-224" type="line"/>
      <point x="-756" y="-224"/>
      <point x="-806" y="-276"/>
      <point x="-806" y="-356" type="curve" smooth="yes"/>
      <point x="-806" y="-433"/>
      <point x="-756" y="-485"/>
      <point x="-681" y="-485" type="curve"/>
    </contour>
  </outline>
</glyph>
<glyph name="hooksubretronosp" format="1">
  <advance width="0"/>
  <unicode hex="0322"/>
  <outline>
    <contour>
      <point x="-110" y="358" type="line"/>
      <point x="-110" y="-78" type="line" smooth="yes"/>
      <point x="-110" y="-230"/>
      <point x="21" y="-264"/>
      <point x="125" y="-264" type="curve" smooth="yes"/>
      <point x="164" y="-264"/>
      <point x="197" y="-260"/>
      <point x="235" y="-254" type="curve"/>
      <point x="235" y="-551" type="line"/>
      <point x="171" y="-568"/>
      <point x="118" y="-572"/>
      <point x="54" y="-572" type="curve" smooth="yes"/>
      <point x="-238" y="-572"/>
      <point x="-414" y="-397"/>
      <point x="-414" y="-78" type="curve" smooth="yes"/>
      <point x="-414" y="358" type="line"/>
    </contour>
  </outline>
</glyph>
<glyph name="bridgesubnosp" format="1">
  <advance width="0"/>
  <unicode hex="032A"/>
  <outline>
    <contour>
      <point x="-793" y="0" type="move" name="_markbottom"/>
    </contour>
    <contour>
      <point x="-793" y="-682" type="move" name="mkmkbottom_acc"/>
    </contour>
    <contour>
      <point x="-556" y="-385" type="line"/>
      <point x="-1110" y="-385" type="line"/>
      <point x="-1110" y="-124" type="line"/>
      <point x="-556" y="-124" type="line"/>
    </contour>
    <contour>
      <point x="-1015" y="-655" type="line"/>
      <point x="-1291" y="-655" type="line"/>
      <point x="-1291" y="-124" type="line"/>
      <point x="-1015" y="-124" type="line"/>
    </contour>
    <contour>
      <point x="-300" y="-655" type="line"/>
      <point x="-576" y="-655" type="line"/>
      <point x="-576" y="-124" type="line"/>
      <point x="-300" y="-124" type="line"/>
    </contour>
  </outline>
</glyph>
<glyph name="breveinvsubnosp" format="1">
  <advance width="0"/>
  <unicode hex="032F"/>
  <outline>
    <contour>
      <point x="-804" y="0" type="move" name="_markbottom"/>
    </contour>
    <contour>
      <point x="-804" y="-549" type="move" name="mkmkbottom_acc"/>
    </contour>
    <contour>
      <point x="-296" y="-549" type="line"/>
      <point x="-296" y="-300"/>
      <point x="-488" y="-127"/>
      <point x="-793" y="-127" type="curve" smooth="yes"/>
      <point x="-1100" y="-127"/>
      <point x="-1293" y="-300"/>
      <point x="-1293" y="-549" type="curve"/>
      <point x="-987" y="-549" type="line"/>
      <point x="-987" y="-458"/>
      <point x="-935" y="-374"/>
      <point x="-793" y="-374" type="curve" smooth="yes"/>
      <point x="-653" y="-374"/>
      <point x="-602" y="-458"/>
      <point x="-602" y="-549" type="curve"/>
    </contour>
  </outline>
</glyph>
<glyph name="slashshortnosp" format="1">
  <advance width="0"/>
  <unicode hex="0337"/>
  <outline>
    <contour>
      <point x="-217" y="1676" type="line"/>
      <point x="-454" y="1676" type="line"/>
      <point x="-1365" y="-199" type="line"/>
      <point x="-1129" y="-199" type="line"/>
    </contour>
  </outline>
</glyph>
<glyph name="seagullsubnosp" format="1">
  <advance width="0"/>
  <unicode hex="033C"/>
  <outline>
    <contour>
      <point x="-791" y="0" type="move" name="_markbottom"/>
    </contour>
    <contour>
      <point x="-791" y="-472" type="move" name="mkmkbottom_acc"/>
    </contour>
    <contour>
      <point x="-1339" y="-490" type="line"/>
      <point x="-1339" y="-293"/>
      <point x="-1209" y="-142"/>
      <point x="-1027" y="-142" type="curve" smooth="yes"/>
      <point x="-847" y="-142"/>
      <point x="-708" y="-293"/>
      <point x="-708" y="-490" type="curve"/>
      <point x="-869" y="-490" type="line"/>
      <point x="-869" y="-399"/>
      <point x="-931" y="-340"/>
      <point x="-1027" y="-340" type="curve" smooth="yes"/>
      <point x="-1119" y="-340"/>
      <point x="-1183" y="-399"/>
      <point x="-1183" y="-490" type="curve"/>
    </contour>
    <contour>
      <point x="-869" y="-490" type="line"/>
      <point x="-869" y="-293"/>
      <point x="-738" y="-142"/>
      <point x="-557" y="-142" type="curve" smooth="yes"/>
      <point x="-377" y="-142"/>
      <point x="-238" y="-293"/>
      <point x="-238" y="-490" type="curve"/>
      <point x="-399" y="-490" type="line"/>
      <point x="-399" y="-399"/>
      <point x="-461" y="-340"/>
      <point x="-557" y="-340" type="curve" smooth="yes"/>
      <point x="-649" y="-340"/>
      <point x="-708" y="-399"/>
      <point x="-708" y="-490" type="curve"/>
    </contour>
  </outline>
</glyph>
<glyph name="xsupnosp" format="1">
  <advance width="0"/>
  <unicode hex="033D"/>
  <outline>
    <contour>
      <point x="-792" y="1609" type="move" name="_marktop"/>
    </contour>
    <contour>
      <point x="-792" y="2500" type="move" name="mkmktop"/>
    </contour>
    <contour>
      <point x="-961" y="1738" type="line"/>
      <point x="-474" y="2229" type="line"/>
      <point x="-620" y="2376" type="line"/>
      <point x="-1107" y="1887" type="line"/>
    </contour>
    <contour>
      <point x="-623" y="1735" type="line"/>
      <point x="-476" y="1884" type="line"/>
      <point x="-958" y="2379" type="line"/>
      <point x="-1106" y="2230" type="line"/>
    </contour>
  </outline>
</glyph>
<glyph name="diaeresistonosnosp" format="1">
  <advance width="0"/>
  <unicode hex="0344"/>
  <outline>
    <component base="dieresistonos" xOffset="-1572"/>
    <contour>
      <point x="-813" y="1774" type="move" name="_marktop"/>
    </contour>
    <contour>
      <point x="-813" y="2571" type="move" name="mkmktop"/>
    </contour>
  </outline>
</glyph>
<glyph name="uni0347" format="1">
  <advance width="0"/>
  <unicode hex="0347"/>
  <outline>
    <contour>
      <point x="-793" y="0" type="move" name="_markbottom"/>
    </contour>
    <contour>
      <point x="-793" y="-760" type="move" name="mkmkbottom_acc"/>
    </contour>
    <contour>
      <point x="-1192" y="-109" type="line"/>
      <point x="-1192" y="-360" type="line"/>
      <point x="-396" y="-360" type="line"/>
      <point x="-396" y="-109" type="line"/>
    </contour>
    <contour>
      <point x="-1192" y="-509" type="line"/>
      <point x="-1192" y="-760" type="line"/>
      <point x="-396" y="-760" type="line"/>
      <point x="-396" y="-509" type="line"/>
    </contour>
  </outline>
</glyph>
<glyph name="uni034A" format="1">
  <advance width="0"/>
  <unicode hex="034A"/>
  <outline>
    <contour>
      <point x="-793" y="1720" type="move" name="_marktop"/>
    </contour>
    <contour>
      <point x="-793" y="2316" type="move" name="mkmktop"/>
    </contour>
    <contour>
      <point x="-751" y="2200" type="line"/>
      <point x="-976" y="1678" type="line"/>
      <point x="-806" y="1594" type="line"/>
      <point x="-583" y="2116" type="line"/>
    </contour>
    <component base="tilde" xOffset="-1477"/>
  </outline>
</glyph>
<glyph name="uni034C" format="1">
  <advance width="0"/>
  <unicode hex="034C"/>
  <outline>
    <contour>
      <point x="-792" y="1706" type="move" name="_marktop"/>
    </contour>
    <contour>
      <point x="-792" y="2408" type="move" name="mkmktop"/>
    </contour>
    <contour>
      <point x="-513" y="2046" type="line"/>
      <point x="-513" y="1975"/>
      <point x="-564" y="1940"/>
      <point x="-624" y="1940" type="curve" smooth="yes"/>
      <point x="-759" y="1940"/>
      <point x="-861" y="2038"/>
      <point x="-1005" y="2038" type="curve" smooth="yes"/>
      <point x="-1189" y="2038"/>
      <point x="-1320" y="1884"/>
      <point x="-1320" y="1719" type="curve"/>
      <point x="-1071" y="1706" type="line"/>
      <point x="-1071" y="1778"/>
      <point x="-1023" y="1812"/>
      <point x="-963" y="1812" type="curve" smooth="yes"/>
      <point x="-821" y="1812"/>
      <point x="-754" y="1713"/>
      <point x="-582" y="1713" type="curve" smooth="yes"/>
      <point x="-396" y="1713"/>
      <point x="-265" y="1862"/>
      <point x="-265" y="2032" type="curve"/>
    </contour>
    <contour>
      <point x="-513" y="2408" type="line"/>
      <point x="-513" y="2336"/>
      <point x="-564" y="2302"/>
      <point x="-624" y="2302" type="curve" smooth="yes"/>
      <point x="-759" y="2302"/>
      <point x="-861" y="2399"/>
      <point x="-1005" y="2399" type="curve" smooth="yes"/>
      <point x="-1189" y="2399"/>
      <point x="-1320" y="2245"/>
      <point x="-1320" y="2080" type="curve"/>
      <point x="-1071" y="2068" type="line"/>
      <point x="-1071" y="2140"/>
      <point x="-1023" y="2174"/>
      <point x="-963" y="2174" type="curve" smooth="yes"/>
      <point x="-821" y="2174"/>
      <point x="-754" y="2075"/>
      <point x="-582" y="2075" type="curve" smooth="yes"/>
      <point x="-396" y="2075"/>
      <point x="-265" y="2223"/>
      <point x="-265" y="2394" type="curve"/>
    </contour>
  </outline>
</glyph>
<glyph name="uni035A" format="1">
  <advance width="0"/>
  <unicode hex="035A"/>
  <outline>
    <contour>
      <point x="-770" y="0" type="move" name="_markbottom"/>
    </contour>
    <contour>
      <point x="-770" y="-672" type="move" name="mkmkbottom_acc"/>
    </contour>
    <contour>
      <point x="-1309" y="-399" type="curve"/>
      <point x="-1309" y="-550"/>
      <point x="-1180" y="-672"/>
      <point x="-1001" y="-672" type="curve" smooth="yes"/>
      <point x="-822" y="-672"/>
      <point x="-693" y="-550"/>
      <point x="-693" y="-399" type="curve" smooth="yes"/>
      <point x="-693" y="-248"/>
      <point x="-822" y="-120"/>
      <point x="-1001" y="-120" type="curve" smooth="yes"/>
      <point x="-1180" y="-120"/>
      <point x="-1309" y="-248"/>
    </contour>
    <contour>
      <point x="-1145" y="-399" type="curve"/>
      <point x="-1145" y="-319"/>
      <point x="-1090" y="-253"/>
      <point x="-1001" y="-253" type="curve" smooth="yes"/>
      <point x="-912" y="-253"/>
      <point x="-857" y="-319"/>
      <point x="-857" y="-399" type="curve" smooth="yes"/>
      <point x="-857" y="-479"/>
      <point x="-912" y="-542"/>
      <point x="-1001" y="-542" type="curve" smooth="yes"/>
      <point x="-1090" y="-542"/>
      <point x="-1145" y="-479"/>
    </contour>
    <contour>
      <point x="-847" y="-399" type="curve"/>
      <point x="-847" y="-550"/>
      <point x="-718" y="-672"/>
      <point x="-539" y="-672" type="curve" smooth="yes"/>
      <point x="-360" y="-672"/>
      <point x="-231" y="-550"/>
      <point x="-231" y="-399" type="curve" smooth="yes"/>
      <point x="-231" y="-248"/>
      <point x="-360" y="-120"/>
      <point x="-539" y="-120" type="curve" smooth="yes"/>
      <point x="-718" y="-120"/>
      <point x="-847" y="-248"/>
    </contour>
    <contour>
      <point x="-683" y="-399" type="curve"/>
      <point x="-683" y="-319"/>
      <point x="-628" y="-253"/>
      <point x="-539" y="-253" type="curve" smooth="yes"/>
      <point x="-450" y="-253"/>
      <point x="-395" y="-319"/>
      <point x="-395" y="-399" type="curve" smooth="yes"/>
      <point x="-395" y="-479"/>
      <point x="-450" y="-542"/>
      <point x="-539" y="-542" type="curve" smooth="yes"/>
      <point x="-628" y="-542"/>
      <point x="-683" y="-479"/>
    </contour>
  </outline>
</glyph>
<glyph name="uni0369" format="1">
  <advance width="0"/>
  <unicode hex="0369"/>
  <outline>
    <contour>
      <point x="-792" y="1609" type="move" name="_marktop"/>
    </contour>
    <contour>
      <point x="-792" y="2775" type="move" name="_mkmktop"/>
    </contour>
    <contour>
      <point x="-671" y="1826" type="line"/>
      <point x="-641" y="1651" type="line"/>
      <point x="-444" y="1651" type="line"/>
      <point x="-444" y="2738" type="line"/>
      <point x="-671" y="2738" type="line"/>
    </contour>
    <contour>
      <point x="-847" y="1638" type="curve" smooth="yes"/>
      <point x="-671" y="1638"/>
      <point x="-587" y="1811"/>
      <point x="-558" y="2016" type="curve"/>
      <point x="-558" y="2034" type="line"/>
      <point x="-587" y="2254"/>
      <point x="-671" y="2419"/>
      <point x="-846" y="2419" type="curve" smooth="yes"/>
      <point x="-1038" y="2419"/>
      <point x="-1141" y="2267"/>
      <point x="-1141" y="2036" type="curve" smooth="yes"/>
      <point x="-1141" y="2021" type="line" smooth="yes"/>
      <point x="-1141" y="1801"/>
      <point x="-1038" y="1638"/>
    </contour>
    <contour>
      <point x="-789" y="1821" type="curve" smooth="yes"/>
      <point x="-884" y="1821"/>
      <point x="-916" y="1909"/>
      <point x="-916" y="2021" type="curve" smooth="yes"/>
      <point x="-916" y="2036" type="line" smooth="yes"/>
      <point x="-916" y="2155"/>
      <point x="-881" y="2243"/>
      <point x="-788" y="2243" type="curve" smooth="yes"/>
      <point x="-694" y="2243"/>
      <point x="-649" y="2177"/>
      <point x="-649" y="2053" type="curve" smooth="yes"/>
      <point x="-649" y="1998" type="line" smooth="yes"/>
      <point x="-649" y="1889"/>
      <point x="-694" y="1821"/>
    </contour>
  </outline>
</glyph>
<glyph name="uni0377" format="1">
  <advance width="1792"/>
  <unicode hex="0377"/>
  <outline>
    <contour>
      <point x="1480" y="1488" type="line"/>
      <point x="1480" y="508" type="line" smooth="yes"/>
      <point x="1480" y="376"/>
      <point x="1512" y="332"/>
      <point x="1576" y="332" type="curve" smooth="yes"/>
      <point x="1588" y="332"/>
      <point x="1596" y="332"/>
      <point x="1600" y="336" type="curve"/>
      <point x="1636" y="0" type="line"/>
      <point x="1576" y="-24"/>
      <point x="1528" y="-28"/>
      <point x="1464" y="-28" type="curve" smooth="yes"/>
      <point x="1200" y="-28"/>
      <point x="1036" y="148"/>
      <point x="1036" y="508" type="curve" smooth="yes"/>
      <point x="1036" y="1488" type="line"/>
    </contour>
    <contour>
      <point x="1284" y="1356" type="line"/>
      <point x="600" y="0" type="line"/>
      <point x="352" y="132" type="line"/>
      <point x="1036" y="1488" type="line"/>
    </contour>
    <contour>
      <point x="156" y="1488" type="line"/>
      <point x="600" y="1488" type="line"/>
      <point x="600" y="0" type="line"/>
      <point x="156" y="0" type="line"/>
    </contour>
  </outline>
</glyph>
<glyph name="tonos" format="1">
  <advance width="1024"/>
  <unicode hex="0384"/>
  <outline>
    <contour>
      <point x="420" y="1776" type="move" name="_top"/>
    </contour>
    <contour>
      <point x="664" y="2000" type="move" name="_tonos"/>
    </contour>
    <contour>
      <point x="256" y="1728" type="line"/>
      <point x="520" y="1728" type="line"/>
      <point x="768" y="2204" type="line"/>
      <point x="368" y="2204" type="line"/>
    </contour>
  </outline>
</glyph>
<glyph name="Gamma" format="1">
  <advance width="1792"/>
  <unicode hex="0393"/>
  <outline>
    <contour>
      <point x="1568" y="2004" type="line"/>
      <point x="228" y="2004" type="line"/>
      <point x="228" y="0" type="line"/>
      <point x="692" y="0" type="line"/>
      <point x="692" y="1620" type="line"/>
      <point x="1568" y="1620" type="line"/>
    </contour>
    <contour>
      <point x="908" y="2200" type="move" name="top"/>
    </contour>
    <contour>
      <point x="680" y="0" type="move" name="right"/>
    </contour>
    <contour>
      <point x="508" y="1028" type="move" name="cross"/>
    </contour>
    <contour>
      <point x="1636" y="2200" type="move" name="top0315"/>
    </contour>
  </outline>
</glyph>
<glyph name="Phi" format="1">
  <advance width="2304"/>
  <unicode hex="03A6"/>
  <outline>
    <contour>
      <point x="1332" y="224" type="line"/>
      <point x="1832" y="224"/>
      <point x="2172" y="520"/>
      <point x="2172" y="988" type="curve" smooth="yes"/>
      <point x="2172" y="1476"/>
      <point x="1832" y="1780"/>
      <point x="1332" y="1780" type="curve" smooth="yes"/>
      <point x="976" y="1780" type="line" smooth="yes"/>
      <point x="472" y="1780"/>
      <point x="132" y="1472"/>
      <point x="132" y="984" type="curve" smooth="yes"/>
      <point x="132" y="516"/>
      <point x="472" y="224"/>
      <point x="976" y="224" type="curve" smooth="yes"/>
    </contour>
    <contour>
      <point x="976" y="628" type="line"/>
      <point x="748" y="628"/>
      <point x="584" y="740"/>
      <point x="584" y="984" type="curve" smooth="yes"/>
      <point x="584" y="1252"/>
      <point x="748" y="1376"/>
      <point x="976" y="1376" type="curve" smooth="yes"/>
      <point x="1336" y="1376" type="line" smooth="yes"/>
      <point x="1564" y="1376"/>
      <point x="1724" y="1256"/>
      <point x="1724" y="988" type="curve" smooth="yes"/>
      <point x="1724" y="744"/>
      <point x="1564" y="628"/>
      <point x="1336" y="628" type="curve" smooth="yes"/>
    </contour>
    <contour>
      <point x="1384" y="2004" type="line"/>
      <point x="928" y="2004" type="line"/>
      <point x="928" y="0" type="line"/>
      <point x="1384" y="0" type="line"/>
    </contour>
  </outline>
</glyph>
<glyph name="zeta" format="1">
  <advance width="1536"/>
  <unicode hex="03B6"/>
  <outline>
    <contour>
      <point x="1104" y="2004" type="line"/>
      <point x="556" y="1344" type="line" smooth="yes"/>
      <point x="328" y="1072"/>
      <point x="188" y="868"/>
      <point x="188" y="524" type="curve" smooth="yes"/>
      <point x="188" y="260"/>
      <point x="348" y="96"/>
      <point x="684" y="8" type="curve" smooth="yes"/>
      <point x="776" y="-20" type="line" smooth="yes"/>
      <point x="884" y="-44"/>
      <point x="916" y="-84"/>
      <point x="912" y="-148" type="curve"/>
      <point x="916" y="-196"/>
      <point x="876" y="-288"/>
      <point x="788" y="-372" type="curve"/>
      <point x="1012" y="-540" type="line"/>
      <point x="1176" y="-432"/>
      <point x="1356" y="-216"/>
      <point x="1356" y="-52" type="curve"/>
      <point x="1360" y="172"/>
      <point x="1192" y="252"/>
      <point x="944" y="324" type="curve" smooth="yes"/>
      <point x="860" y="348" type="line" smooth="yes"/>
      <point x="716" y="388"/>
      <point x="628" y="436"/>
      <point x="628" y="604" type="curve"/>
      <point x="628" y="832"/>
      <point x="716" y="964"/>
      <point x="888" y="1160" type="curve" smooth="yes"/>
      <point x="1392" y="1756" type="line"/>
      <point x="1392" y="2004" type="line"/>
    </contour>
    <contour>
      <point x="144" y="2004" type="line"/>
      <point x="144" y="1648" type="line"/>
      <point x="1184" y="1648" type="line"/>
      <point x="1184" y="2004" type="line"/>
    </contour>
  </outline>
</glyph>
<glyph name="pisymbolgreek" format="1">
  <advance width="2560"/>
  <unicode hex="03D6"/>
  <outline>
    <contour>
      <point x="1272" y="1776" type="move" name="top"/>
    </contour>
    <contour>
      <point x="2464" y="1776" type="move" name="top0315"/>
    </contour>
    <contour>
      <point x="2472" y="1488" type="line"/>
      <point x="92" y="1488" type="line"/>
      <point x="92" y="1184" type="line"/>
      <point x="2472" y="1184" type="line"/>
    </contour>
    <contour>
      <point x="1740" y="1488" type="line"/>
      <point x="1848" y="1260"/>
      <point x="1916" y="1024"/>
      <point x="1924" y="780" type="curve"/>
      <point x="1924" y="556"/>
      <point x="1884" y="332"/>
      <point x="1736" y="332" type="curve" smooth="yes"/>
      <point x="1616" y="332"/>
      <point x="1512" y="424"/>
      <point x="1512" y="688" type="curve"/>
      <point x="1512" y="940" type="line"/>
      <point x="1184" y="940" type="line"/>
      <point x="1184" y="736" type="line"/>
      <point x="1184" y="244"/>
      <point x="1408" y="-28"/>
      <point x="1748" y="-28" type="curve" smooth="yes"/>
      <point x="2216" y="-28"/>
      <point x="2364" y="320"/>
      <point x="2364" y="780" type="curve"/>
      <point x="2364" y="1080"/>
      <point x="2268" y="1320"/>
      <point x="2156" y="1488" type="curve"/>
    </contour>
    <contour>
      <point x="400" y="1488" type="line"/>
      <point x="288" y="1320"/>
      <point x="188" y="1080"/>
      <point x="188" y="780" type="curve" smooth="yes"/>
      <point x="188" y="320"/>
      <point x="340" y="-28"/>
      <point x="808" y="-28" type="curve" smooth="yes"/>
      <point x="1148" y="-28"/>
      <point x="1372" y="244"/>
      <point x="1372" y="736" type="curve" smooth="yes"/>
      <point x="1372" y="940" type="line"/>
      <point x="1044" y="940" type="line"/>
      <point x="1044" y="688" type="line" smooth="yes"/>
      <point x="1044" y="424"/>
      <point x="940" y="332"/>
      <point x="820" y="332" type="curve" smooth="yes"/>
      <point x="672" y="332"/>
      <point x="632" y="556"/>
      <point x="632" y="780" type="curve"/>
      <point x="640" y="1024"/>
      <point x="708" y="1260"/>
      <point x="816" y="1488" type="curve"/>
    </contour>
  </outline>
</glyph>
<glyph name="Koppa" format="1">
  <advance width="2048"/>
  <unicode hex="03DE"/>
  <outline>
    <contour>
      <point x="1496" y="1080" type="line" name="hr00"/>
      <point x="324" y="240" type="line"/>
      <point x="272" y="300" type="line"/>
      <point x="484" y="856" type="line"/>
      <point x="1740" y="1776" type="line"/>
      <point x="1776" y="1712" type="line"/>
    </contour>
    <contour>
      <point x="272" y="300" type="line"/>
      <point x="360" y="1464" type="line" smooth="yes"/>
      <point x="364" y="1508"/>
      <point x="364" y="1520"/>
      <point x="364" y="1528" type="curve" smooth="yes"/>
      <point x="364" y="1680"/>
      <point x="252" y="1704"/>
      <point x="132" y="1704" type="curve" smooth="yes"/>
      <point x="116" y="1704"/>
      <point x="96" y="1704"/>
      <point x="80" y="1700" type="curve"/>
      <point x="100" y="2024" type="line"/>
      <point x="140" y="2032"/>
      <point x="184" y="2032"/>
      <point x="244" y="2032" type="curve" smooth="yes"/>
      <point x="524" y="2032"/>
      <point x="720" y="1928"/>
      <point x="720" y="1592" type="curve" smooth="yes"/>
      <point x="720" y="1564"/>
      <point x="716" y="1532"/>
      <point x="716" y="1504" type="curve" smooth="yes"/>
      <point x="652" y="596" type="line"/>
    </contour>
    <contour>
      <point x="1776" y="1712" type="line"/>
      <point x="1688" y="580" type="line" smooth="yes"/>
      <point x="1684" y="528"/>
      <point x="1684" y="488"/>
      <point x="1684" y="480" type="curve" smooth="yes"/>
      <point x="1684" y="340"/>
      <point x="1796" y="300"/>
      <point x="1916" y="300" type="curve" smooth="yes"/>
      <point x="1932" y="300"/>
      <point x="1952" y="304"/>
      <point x="1972" y="304" type="curve"/>
      <point x="1948" y="-20" type="line"/>
      <point x="1908" y="-28"/>
      <point x="1884" y="-28"/>
      <point x="1812" y="-28" type="curve" smooth="yes"/>
      <point x="1512" y="-28"/>
      <point x="1328" y="72"/>
      <point x="1328" y="408" type="curve" smooth="yes"/>
      <point x="1328" y="436"/>
      <point x="1332" y="468"/>
      <point x="1332" y="504" type="curve" smooth="yes"/>
      <point x="1392" y="1420" type="line"/>
    </contour>
  </outline>
</glyph>
<glyph name="Sampi" format="1">
  <advance width="2304"/>
  <unicode hex="03E0"/>
  <outline>
    <contour>
      <point x="644" y="1116" type="line" name="hr00"/>
      <point x="652" y="1416"/>
      <point x="788" y="1652"/>
      <point x="1092" y="1652" type="curve" smooth="yes"/>
      <point x="1428" y="1652"/>
      <point x="1620" y="1336"/>
      <point x="1620" y="792" type="curve" smooth="yes"/>
      <point x="1620" y="640" type="line" smooth="yes"/>
      <point x="1620" y="100"/>
      <point x="1456" y="-160"/>
      <point x="1116" y="-160" type="curve"/>
      <point x="1116" y="-600" type="line"/>
      <point x="1748" y="-600"/>
      <point x="2088" y="-128"/>
      <point x="2088" y="640" type="curve" smooth="yes"/>
      <point x="2088" y="788" type="line" smooth="yes"/>
      <point x="2088" y="1556"/>
      <point x="1732" y="2032"/>
      <point x="1116" y="2032" type="curve" smooth="yes"/>
      <point x="504" y="2032"/>
      <point x="252" y="1584"/>
      <point x="220" y="1116" type="curve"/>
    </contour>
    <contour>
      <point x="472" y="856" type="line"/>
      <point x="648" y="544" type="line"/>
      <point x="1704" y="1160" type="line"/>
      <point x="1524" y="1468" type="line"/>
    </contour>
    <contour>
      <point x="764" y="284" type="line"/>
      <point x="944" y="-28" type="line"/>
      <point x="2000" y="588" type="line"/>
      <point x="1820" y="896" type="line"/>
    </contour>
  </outline>
</glyph>
<glyph name="uni03FB" format="1">
  <advance width="2048"/>
  <unicode hex="03FB"/>
  <outline>
    <contour>
      <point x="1016" y="512" type="line"/>
      <point x="668" y="1488" type="line"/>
      <point x="320" y="1488" type="line"/>
      <point x="872" y="0" type="line"/>
      <point x="1168" y="0" type="line"/>
      <point x="1720" y="1488" type="line"/>
      <point x="1372" y="1488" type="line"/>
    </contour>
    <contour>
      <point x="568" y="1488" type="line"/>
      <point x="124" y="1488" type="line"/>
      <point x="124" y="-572" type="line"/>
      <point x="568" y="-572" type="line"/>
    </contour>
    <contour>
      <point x="1484" y="0" type="line"/>
      <point x="1928" y="0" type="line"/>
      <point x="1928" y="1488" type="line"/>
      <point x="1484" y="1488" type="line"/>
    </contour>
  </outline>
</glyph>
<glyph name="afii10051" format="1">
  <advance width="2304"/>
  <unicode hex="0402"/>
  <outline>
    <contour>
      <point x="892" y="792" type="line"/>
      <point x="1064" y="840"/>
      <point x="1176" y="864"/>
      <point x="1376" y="864" type="curve"/>
      <point x="1576" y="864"/>
      <point x="1696" y="748"/>
      <point x="1696" y="584" type="curve" smooth="yes"/>
      <point x="1692" y="504"/>
      <point x="1680" y="320"/>
      <point x="1364" y="320" type="curve"/>
      <point x="1364" y="-28" type="line"/>
      <point x="1980" y="-28"/>
      <point x="2152" y="336"/>
      <point x="2152" y="612" type="curve"/>
      <point x="2152" y="1044"/>
      <point x="1840" y="1232"/>
      <point x="1404" y="1232" type="curve" smooth="yes"/>
      <point x="1224" y="1232"/>
      <point x="1040" y="1188"/>
      <point x="892" y="1152" type="curve"/>
    </contour>
    <contour>
      <point x="1088" y="2004" type="line"/>
      <point x="628" y="2004" type="line"/>
      <point x="628" y="0" type="line"/>
      <point x="1088" y="0" type="line"/>
    </contour>
    <contour>
      <point x="1716" y="2004" type="line"/>
      <point x="152" y="2004" type="line"/>
      <point x="152" y="1628" type="line"/>
      <point x="1716" y="1628" type="line"/>
    </contour>
  </outline>
</glyph>
<glyph name="afii10053" format="1">
  <advance width="2048"/>
  <unicode hex="0404"/>
  <outline>
    <contour>
      <point x="1052" y="2200" type="move" name="top"/>
    </contour>
    <contour>
      <point x="1928" y="2200" type="move" name="top0315"/>
    </contour>
    <contour>
      <point x="1212" y="1188" type="line"/>
      <point x="404" y="1188" type="line"/>
      <point x="404" y="816" type="line"/>
      <point x="1212" y="816" type="line"/>
    </contour>
    <contour>
      <point x="1396" y="676" type="line"/>
      <point x="1384" y="452"/>
      <point x="1268" y="340"/>
      <point x="1036" y="340" type="curve" smooth="yes"/>
      <point x="760" y="340"/>
      <point x="652" y="520"/>
      <point x="652" y="944" type="curve" smooth="yes"/>
      <point x="652" y="1056" type="line" smooth="yes"/>
      <point x="652" y="1484"/>
      <point x="780" y="1656"/>
      <point x="1032" y="1656" type="curve" smooth="yes"/>
      <point x="1292" y="1656"/>
      <point x="1388" y="1536"/>
      <point x="1400" y="1308" type="curve"/>
      <point x="1856" y="1308" type="line"/>
      <point x="1820" y="1724"/>
      <point x="1548" y="2032"/>
      <point x="1032" y="2032" type="curve" smooth="yes"/>
      <point x="524" y="2032"/>
      <point x="192" y="1656"/>
      <point x="192" y="1052" type="curve"/>
      <point x="192" y="944" type="line"/>
      <point x="192" y="344"/>
      <point x="508" y="-28"/>
      <point x="1036" y="-28" type="curve" smooth="yes"/>
      <point x="1528" y="-28"/>
      <point x="1832" y="256"/>
      <point x="1856" y="676" type="curve"/>
    </contour>
  </outline>
</glyph>
<glyph name="afii10037" format="1">
  <advance width="1792"/>
  <unicode hex="0423"/>
  <outline>
    <contour>
      <point x="940" y="2200" type="move" name="top"/>
    </contour>
    <contour>
      <point x="1788" y="2200" type="move" name="top0315"/>
    </contour>
    <contour>
      <point x="800" y="756" type="line" name="hr00"/>
      <point x="716" y="528" type="line"/>
      <point x="676" y="400"/>
      <point x="628" y="344"/>
      <point x="464" y="344" type="curve" smooth="yes"/>
      <point x="444" y="344"/>
      <point x="388" y="344"/>
      <point x="364" y="348" type="curve"/>
      <point x="372" y="-28" type="line"/>
      <point x="412" y="-28"/>
      <point x="476" y="-28"/>
      <point x="516" y="-28" type="curve" smooth="yes"/>
      <point x="848" y="-28"/>
      <point x="988" y="180"/>
      <point x="1092" y="416" type="curve"/>
      <point x="1768" y="2004" type="line"/>
      <point x="1280" y="2004" type="line"/>
    </contour>
    <contour>
      <point x="516" y="2004" type="line"/>
      <point x="24" y="2004" type="line"/>
      <point x="752" y="580" type="line"/>
      <point x="1088" y="580" type="line"/>
      <point x="940" y="1132" type="line"/>
    </contour>
  </outline>
</glyph>
<glyph name="zecyrillic" format="1">
  <advance width="1536"/>
  <unicode hex="0437"/>
  <outline>
    <contour>
      <point x="776" y="1772" type="move" name="top"/>
    </contour>
    <contour>
      <point x="776" y="-12" type="move" name="bottom"/>
    </contour>
    <contour>
      <point x="1488" y="1772" type="move" name="top0315"/>
    </contour>
    <contour>
      <point x="872" y="712" type="line"/>
      <point x="1188" y="712"/>
      <point x="1388" y="876"/>
      <point x="1388" y="1080" type="curve"/>
      <point x="1388" y="1364"/>
      <point x="1136" y="1516"/>
      <point x="752" y="1516" type="curve" smooth="yes"/>
      <point x="416" y="1516"/>
      <point x="144" y="1344"/>
      <point x="144" y="1056" type="curve"/>
      <point x="588" y="1056" type="line"/>
      <point x="588" y="1144"/>
      <point x="664" y="1184"/>
      <point x="780" y="1184" type="curve" smooth="yes"/>
      <point x="916" y="1184"/>
      <point x="948" y="1108"/>
      <point x="948" y="1040" type="curve"/>
      <point x="948" y="956"/>
      <point x="896" y="896"/>
      <point x="772" y="896" type="curve" smooth="yes"/>
      <point x="572" y="896" type="line"/>
      <point x="572" y="712" type="line"/>
    </contour>
    <contour>
      <point x="572" y="808" type="line"/>
      <point x="572" y="628" type="line"/>
      <point x="772" y="628" type="line" smooth="yes"/>
      <point x="904" y="628"/>
      <point x="972" y="580"/>
      <point x="972" y="464" type="curve" smooth="yes"/>
      <point x="972" y="384"/>
      <point x="924" y="304"/>
      <point x="780" y="304" type="curve" smooth="yes"/>
      <point x="628" y="304"/>
      <point x="564" y="364"/>
      <point x="564" y="440" type="curve"/>
      <point x="120" y="440" type="line"/>
      <point x="120" y="116"/>
      <point x="440" y="-28"/>
      <point x="752" y="-28" type="curve" smooth="yes"/>
      <point x="1140" y="-28"/>
      <point x="1416" y="140"/>
      <point x="1416" y="420" type="curve" smooth="yes"/>
      <point x="1416" y="672"/>
      <point x="1224" y="808"/>
      <point x="872" y="808" type="curve" smooth="yes"/>
    </contour>
  </outline>
</glyph>
<glyph name="iicyrillic" format="1">
  <advance width="1536"/>
  <unicode hex="0438"/>
  <outline>
    <contour>
      <point x="776" y="1776" type="move" name="top"/>
    </contour>
    <contour>
      <point x="1432" y="0" type="move" name="right"/>
    </contour>
    <contour>
      <point x="1560" y="1776" type="move" name="top0315"/>
    </contour>
    <contour>
      <point x="552" y="624" type="line"/>
      <point x="552" y="1488" type="line"/>
      <point x="108" y="1488" type="line"/>
      <point x="108" y="0" type="line"/>
      <point x="552" y="0" type="line"/>
      <point x="988" y="868" type="line"/>
      <point x="988" y="0" type="line"/>
      <point x="1432" y="0" type="line"/>
      <point x="1432" y="1488" type="line"/>
      <point x="988" y="1488" type="line"/>
    </contour>
  </outline>
</glyph>
<glyph name="kacyrillic" format="1">
  <advance width="1792"/>
  <unicode hex="043A"/>
  <outline>
    <contour>
      <point x="820" y="1776" type="move" name="top"/>
    </contour>
    <contour>
      <point x="1476" y="0" type="move" name="right"/>
    </contour>
    <contour>
      <point x="1608" y="1776" type="move" name="top0315"/>
    </contour>
    <contour>
      <point x="612" y="1488" type="line"/>
      <point x="172" y="1488" type="line"/>
      <point x="172" y="0" type="line"/>
      <point x="612" y="0" type="line"/>
    </contour>
    <contour>
      <point x="1580" y="1488" type="line"/>
      <point x="1012" y="1488" type="line"/>
      <point x="748" y="952" type="line"/>
      <point x="496" y="952" type="line"/>
      <point x="548" y="520" type="line"/>
      <point x="956" y="520" type="line"/>
    </contour>
    <contour>
      <point x="1024" y="0" type="line"/>
      <point x="1624" y="0" type="line"/>
      <point x="1120" y="800" type="line"/>
      <point x="716" y="608" type="line"/>
    </contour>
  </outline>
</glyph>
<glyph name="tecyrillic" format="1">
  <advance width="1536"/>
  <unicode hex="0442"/>
  <outline>
    <contour>
      <point x="988" y="0" type="move" name="right"/>
    </contour>
    <contour>
      <point x="784" y="1744" type="move" name="top"/>
    </contour>
    <contour>
      <point x="1504" y="1744" type="move" name="top0315"/>
    </contour>
    <contour>
      <point x="988" y="1488" type="line"/>
      <point x="544" y="1488" type="line"/>
      <point x="544" y="0" type="line"/>
      <point x="988" y="0" type="line"/>
    </contour>
    <contour>
      <point x="1460" y="1488" type="line"/>
      <point x="80" y="1488" type="line"/>
      <point x="80" y="1132" type="line"/>
      <point x="1460" y="1132" type="line"/>
    </contour>
  </outline>
</glyph>
<glyph name="ereversedcyrillic" format="1">
  <advance width="1536"/>
  <unicode hex="044D"/>
  <outline>
    <contour>
      <point x="748" y="1776" type="move" name="top"/>
    </contour>
    <contour>
      <point x="1484" y="1776" type="move" name="top0315"/>
    </contour>
    <contour>
      <point x="728" y="1160" type="curve" smooth="yes"/>
      <point x="936" y="1160"/>
      <point x="984" y="980"/>
      <point x="984" y="760" type="curve" smooth="yes"/>
      <point x="984" y="728" type="line" smooth="yes"/>
      <point x="984" y="512"/>
      <point x="932" y="332"/>
      <point x="728" y="332" type="curve"/>
      <point x="588" y="332"/>
      <point x="524" y="436"/>
      <point x="524" y="568" type="curve"/>
      <point x="108" y="568" type="line"/>
      <point x="108" y="192"/>
      <point x="360" y="-28"/>
      <point x="728" y="-28" type="curve" smooth="yes"/>
      <point x="1188" y="-28"/>
      <point x="1428" y="296"/>
      <point x="1428" y="728" type="curve" smooth="yes"/>
      <point x="1428" y="760" type="line" smooth="yes"/>
      <point x="1428" y="1188"/>
      <point x="1188" y="1516"/>
      <point x="728" y="1516" type="curve"/>
      <point x="372" y="1516"/>
      <point x="108" y="1292"/>
      <point x="108" y="960" type="curve"/>
      <point x="524" y="960" type="line"/>
      <point x="524" y="1084"/>
      <point x="592" y="1160"/>
    </contour>
    <contour>
      <point x="1116" y="872" type="line"/>
      <point x="628" y="872" type="line"/>
      <point x="628" y="620" type="line"/>
      <point x="1116" y="620" type="line"/>
    </contour>
  </outline>
</glyph>
<glyph name="ljecyrillic" format="1">
  <advance width="2560"/>
  <unicode hex="0459"/>
  <outline>
    <contour>
      <point x="380" y="1488" type="line"/>
      <point x="352" y="856" type="line" smooth="yes"/>
      <point x="336" y="516"/>
      <point x="280" y="376"/>
      <point x="152" y="360" type="curve" smooth="yes"/>
      <point x="100" y="356" type="line"/>
      <point x="108" y="0" type="line"/>
      <point x="240" y="0" type="line" smooth="yes"/>
      <point x="556" y="0"/>
      <point x="744" y="192"/>
      <point x="772" y="724" type="curve" smooth="yes"/>
      <point x="812" y="1488" type="line"/>
    </contour>
    <contour>
      <point x="1224" y="1488" type="line"/>
      <point x="492" y="1488" type="line"/>
      <point x="492" y="1132" type="line"/>
      <point x="1224" y="1132" type="line"/>
    </contour>
    <contour>
      <point x="1364" y="1052" type="line"/>
      <point x="1364" y="696" type="line"/>
      <point x="1788" y="696" type="line" smooth="yes"/>
      <point x="1952" y="696"/>
      <point x="2020" y="624"/>
      <point x="2020" y="528" type="curve" smooth="yes"/>
      <point x="2020" y="432"/>
      <point x="1952" y="356"/>
      <point x="1788" y="356" type="curve" smooth="yes"/>
      <point x="1540" y="356" type="line"/>
      <point x="1540" y="1488" type="line"/>
      <point x="1096" y="1488" type="line"/>
      <point x="1096" y="0" type="line"/>
      <point x="1788" y="0" type="line" smooth="yes"/>
      <point x="2212" y="0"/>
      <point x="2460" y="212"/>
      <point x="2460" y="528" type="curve" smooth="yes"/>
      <point x="2460" y="836"/>
      <point x="2212" y="1052"/>
      <point x="1788" y="1052" type="curve" smooth="yes"/>
    </contour>
  </outline>
</glyph>
<glyph name="Yuslittleiotifiedcyrillic" format="1">
  <advance width="2816"/>
  <unicode hex="0468"/>
  <outline>
    <contour>
      <point x="1300" y="872" type="line"/>
      <point x="448" y="872" type="line"/>
      <point x="448" y="568" type="line"/>
      <point x="1300" y="568" type="line"/>
    </contour>
    <component base="Yuslittlecyrillic" xOffset="732"/>
    <component base="I" xOffset="-44"/>
  </outline>
</glyph>
<glyph name="yusbigiotifiedcyrillic" format="1">
  <advance width="2816"/>
  <unicode hex="046D"/>
  <outline>
    <contour>
      <point x="1636" y="848" type="line"/>
      <point x="276" y="848" type="line"/>
      <point x="276" y="528" type="line"/>
      <point x="1636" y="528" type="line"/>
    </contour>
    <component base="dotlessi" xOffset="-32"/>
    <component base="yusbigcyrillic" xOffset="764"/>
  </outline>
</glyph>
<glyph name="afii10147" format="1">
  <advance width="2048"/>
  <unicode hex="0472"/>
  <outline>
    <contour>
      <point x="1404" y="1144" type="line"/>
      <point x="468" y="1144" type="line"/>
      <point x="468" y="880" type="line"/>
      <point x="1404" y="880" type="line"/>
    </contour>
    <component base="O"/>
    <contour>
      <point x="980" y="2200" type="move" name="top"/>
    </contour>
    <contour>
      <point x="1928" y="2200" type="move" name="top0315"/>
    </contour>
  </outline>
</glyph>
<glyph name="afii10148" format="1">
  <advance width="2048"/>
  <unicode hex="0474"/>
  <outline>
    <contour>
      <point x="1032" y="2200" type="move" name="top"/>
    </contour>
    <contour>
      <point x="1944" y="2200" type="move" name="top0315"/>
    </contour>
    <contour>
      <point x="1052" y="536" type="line"/>
      <point x="948" y="0" type="line"/>
      <point x="1284" y="0" type="line"/>
      <point x="1708" y="1496" type="line"/>
      <point x="1728" y="1572"/>
      <point x="1788" y="1644"/>
      <point x="1864" y="1644" type="curve"/>
      <point x="1912" y="1644" type="line"/>
      <point x="1916" y="2024" type="line"/>
      <point x="1868" y="2028" type="line"/>
      <point x="1572" y="2028"/>
      <point x="1416" y="1832"/>
      <point x="1316" y="1516" type="curve" smooth="yes"/>
    </contour>
    <contour>
      <point x="616" y="2004" type="line"/>
      <point x="132" y="2004" type="line"/>
      <point x="788" y="0" type="line"/>
      <point x="1124" y="0" type="line"/>
      <point x="1016" y="544" type="line"/>
    </contour>
  </outline>
</glyph>
<glyph name="Omegatitlocyrillic" format="1">
  <advance width="2816"/>
  <unicode hex="047C"/>
  <outline>
    <contour>
      <point x="2020" y="2324" type="line"/>
      <point x="1740" y="2324"/>
      <point x="1552" y="2492"/>
      <point x="1340" y="2492" type="curve" smooth="yes"/>
      <point x="1144" y="2492"/>
      <point x="1024" y="2396"/>
      <point x="1024" y="2192" type="curve" smooth="yes"/>
      <point x="1024" y="2140" type="line"/>
      <point x="1204" y="2140" type="line"/>
      <point x="1204" y="2168" type="line" smooth="yes"/>
      <point x="1204" y="2264"/>
      <point x="1264" y="2308"/>
      <point x="1348" y="2308" type="curve" smooth="yes"/>
      <point x="1500" y="2308"/>
      <point x="1712" y="2140"/>
      <point x="2020" y="2140" type="curve" smooth="yes"/>
      <point x="2036" y="2140" type="line"/>
      <point x="2036" y="2324" type="line"/>
    </contour>
    <contour>
      <point x="1340" y="1740" type="line"/>
      <point x="1436" y="1788"/>
      <point x="1556" y="1908"/>
      <point x="1556" y="2016" type="curve" smooth="yes"/>
      <point x="1556" y="2156" type="line"/>
      <point x="1324" y="2156" type="line"/>
      <point x="1324" y="2024" type="line" smooth="yes"/>
      <point x="1324" y="1956"/>
      <point x="1288" y="1892"/>
      <point x="1228" y="1816" type="curve"/>
    </contour>
    <contour>
      <point x="936" y="2004" type="line"/>
      <point x="520" y="2004"/>
      <point x="212" y="1756"/>
      <point x="212" y="1304" type="curve"/>
      <point x="212" y="672" type="line" smooth="yes"/>
      <point x="212" y="216"/>
      <point x="520" y="-28"/>
      <point x="936" y="-28" type="curve" smooth="yes"/>
      <point x="1300" y="-28"/>
      <point x="1568" y="220"/>
      <point x="1568" y="676" type="curve" smooth="yes"/>
      <point x="1568" y="1120" type="line"/>
      <point x="1192" y="1120" type="line"/>
      <point x="1192" y="676" type="line" smooth="yes"/>
      <point x="1192" y="440"/>
      <point x="1100" y="344"/>
      <point x="936" y="344" type="curve" smooth="yes"/>
      <point x="776" y="344"/>
      <point x="672" y="440"/>
      <point x="672" y="672" type="curve" smooth="yes"/>
      <point x="672" y="1304" type="line"/>
      <point x="672" y="1532"/>
      <point x="776" y="1628"/>
      <point x="936" y="1628" type="curve"/>
    </contour>
    <contour>
      <point x="1880" y="1628" type="line"/>
      <point x="2040" y="1628"/>
      <point x="2144" y="1532"/>
      <point x="2144" y="1304" type="curve" smooth="yes"/>
      <point x="2144" y="672" type="line" smooth="yes"/>
      <point x="2144" y="440"/>
      <point x="2040" y="344"/>
      <point x="1880" y="344" type="curve" smooth="yes"/>
      <point x="1716" y="344"/>
      <point x="1624" y="440"/>
      <point x="1624" y="676" type="curve" smooth="yes"/>
      <point x="1624" y="1120" type="line"/>
      <point x="1248" y="1120" type="line"/>
      <point x="1248" y="676" type="line" smooth="yes"/>
      <point x="1248" y="220"/>
      <point x="1516" y="-28"/>
      <point x="1880" y="-28" type="curve" smooth="yes"/>
      <point x="2296" y="-28"/>
      <point x="2604" y="216"/>
      <point x="2604" y="672" type="curve" smooth="yes"/>
      <point x="2604" y="1304" type="line" smooth="yes"/>
      <point x="2604" y="1756"/>
      <point x="2296" y="2004"/>
      <point x="1880" y="2004" type="curve"/>
    </contour>
  </outline>
</glyph>
<glyph name="koppacyrillic" format="1">
  <advance width="1536"/>
  <unicode hex="0481"/>
  <outline>
    <contour>
      <point x="820" y="1776" type="move" name="top"/>
    </contour>
    <contour>
      <point x="820" y="-16" type="move" name="bottom"/>
    </contour>
    <contour>
      <point x="1292" y="100" type="move" name="right"/>
    </contour>
    <contour>
      <point x="1500" y="1776" type="move" name="top0315"/>
    </contour>
    <contour>
      <point x="812" y="328" type="line"/>
      <point x="604" y="328"/>
      <point x="552" y="508"/>
      <point x="552" y="728" type="curve" smooth="yes"/>
      <point x="552" y="760" type="line" smooth="yes"/>
      <point x="552" y="976"/>
      <point x="604" y="1160"/>
      <point x="808" y="1160" type="curve"/>
      <point x="948" y="1160"/>
      <point x="1012" y="1052"/>
      <point x="1012" y="920" type="curve"/>
      <point x="1428" y="920" type="line"/>
      <point x="1428" y="1296"/>
      <point x="1180" y="1516"/>
      <point x="808" y="1516" type="curve" smooth="yes"/>
      <point x="348" y="1516"/>
      <point x="112" y="1188"/>
      <point x="112" y="760" type="curve" smooth="yes"/>
      <point x="112" y="728" type="line" smooth="yes"/>
      <point x="112" y="296"/>
      <point x="348" y="-28"/>
      <point x="812" y="-28" type="curve"/>
    </contour>
    <contour>
      <point x="1108" y="328" type="line"/>
      <point x="664" y="328" type="line"/>
      <point x="664" y="-492" type="line"/>
      <point x="1108" y="-492" type="line"/>
    </contour>
  </outline>
</glyph>
<glyph name="zhedescendercyrillic" format="1">
  <advance width="2816"/>
  <unicode hex="0497"/>
  <outline>
    <contour>
      <point x="2544" y="1776" type="move" name="top0315"/>
    </contour>
    <component base="zhecyrillic" xOffset="48"/>
    <component base="cyrillictic" xOffset="2128"/>
  </outline>
</glyph>
<glyph name="hadescendercyrillic" format="1">
  <advance width="1792"/>
  <unicode hex="04B3"/>
  <outline>
    <component base="x" xOffset="124"/>
    <component base="cyrillictic" xOffset="1084"/>
    <contour>
      <point x="1572" y="2200" type="move" name="top_dd"/>
    </contour>
    <contour>
      <point x="1572" y="-560" type="move" name="bottom_dd"/>
    </contour>
    <contour>
      <point x="1572" y="1760" type="move" name="top0315"/>
    </contour>
  </outline>
</glyph>
<glyph name="Enhookcyrillic" format="1">
  <advance width="2048"/>
  <unicode hex="04C7"/>
  <outline>
    <contour>
      <point x="192" y="2004" type="line"/>
      <point x="192" y="0" type="line"/>
      <point x="652" y="0" type="line"/>
      <point x="652" y="800" type="line"/>
      <point x="1396" y="800" type="line"/>
      <point x="1396" y="-12" type="line" smooth="yes"/>
      <point x="1396" y="-156"/>
      <point x="1340" y="-228"/>
      <point x="1236" y="-228" type="curve" smooth="yes"/>
      <point x="1172" y="-228"/>
      <point x="1144" y="-224"/>
      <point x="1096" y="-212" type="curve"/>
      <point x="1076" y="-580" type="line"/>
      <point x="1156" y="-596"/>
      <point x="1220" y="-600"/>
      <point x="1296" y="-600" type="curve" smooth="yes"/>
      <point x="1644" y="-600"/>
      <point x="1856" y="-392"/>
      <point x="1856" y="-12" type="curve" smooth="yes"/>
      <point x="1856" y="2004" type="line"/>
      <point x="1396" y="2004" type="line"/>
      <point x="1396" y="1168" type="line"/>
      <point x="652" y="1168" type="line"/>
      <point x="652" y="2004" type="line"/>
    </contour>
  </outline>
</glyph>
<glyph name="Dzeabkhasiancyrillic" format="1">
  <advance width="1792"/>
  <unicode hex="04E0"/>
  <outline>
    <contour>
      <point x="256" y="2004" type="line"/>
      <point x="256" y="1628" type="line"/>
      <point x="1084" y="1628" type="line"/>
      <point x="636" y="1204" type="line"/>
      <point x="636" y="1032" type="line"/>
      <point x="972" y="1032" type="line"/>
      <point x="1608" y="1692" type="line"/>
      <point x="1604" y="2004" type="line"/>
    </contour>
    <contour>
      <point x="636" y="1196" type="line"/>
      <point x="636" y="932" type="line"/>
      <point x="816" y="932" type="line" smooth="yes"/>
      <point x="1048" y="932"/>
      <point x="1176" y="832"/>
      <point x="1176" y="572" type="curve" smooth="yes"/>
      <point x="1176" y="444"/>
      <point x="1064" y="344"/>
      <point x="880" y="344" type="curve" smooth="yes"/>
      <point x="720" y="344"/>
      <point x="620" y="436"/>
      <point x="620" y="556" type="curve"/>
      <point x="160" y="556" type="line"/>
      <point x="160" y="148"/>
      <point x="524" y="-28"/>
      <point x="880" y="-28" type="curve" smooth="yes"/>
      <point x="1316" y="-28"/>
      <point x="1632" y="188"/>
      <point x="1632" y="560" type="curve" smooth="yes"/>
      <point x="1632" y="992"/>
      <point x="1364" y="1228"/>
      <point x="892" y="1228" type="curve" smooth="yes"/>
    </contour>
  </outline>
</glyph>
<glyph name="uni04FC" format="1">
  <advance width="2048"/>
  <unicode hex="04FC"/>
  <outline>
    <component base="X" xOffset="-128"/>
    <component base="cyrillichook" xOffset="1268"/>
    <contour>
      <point x="1668" y="2200" type="move" name="top_dd"/>
    </contour>
    <contour>
      <point x="1668" y="-560" type="move" name="bottom_dd"/>
    </contour>
    <contour>
      <point x="1668" y="2216" type="move" name="top0315"/>
    </contour>
  </outline>
</glyph>
<glyph name="uni0502" format="1">
  <advance width="2560"/>
  <unicode hex="0502"/>
  <outline>
    <contour>
      <point x="280" y="1204" type="move" name="cross"/>
    </contour>
    <contour>
      <point x="908" y="1356" type="line"/>
      <point x="428" y="1356"/>
      <point x="124" y="1068"/>
      <point x="124" y="680" type="curve" smooth="yes"/>
      <point x="124" y="284"/>
      <point x="428" y="0"/>
      <point x="908" y="0" type="curve" smooth="yes"/>
      <point x="1644" y="0" type="line"/>
      <point x="1644" y="2004" type="line"/>
      <point x="1184" y="2004" type="line"/>
      <point x="1184" y="372" type="line"/>
      <point x="908" y="372" type="line" smooth="yes"/>
      <point x="696" y="372"/>
      <point x="584" y="516"/>
      <point x="584" y="680" type="curve" smooth="yes"/>
      <point x="584" y="840"/>
      <point x="696" y="984"/>
      <point x="908" y="984" type="curve" smooth="yes"/>
      <point x="1352" y="984" type="line"/>
      <point x="1352" y="1356" type="line"/>
    </contour>
    <contour>
      <point x="1732" y="0" type="line"/>
      <point x="2228" y="0"/>
      <point x="2432" y="340"/>
      <point x="2436" y="736" type="curve"/>
      <point x="2444" y="884"/>
      <point x="2392" y="1200"/>
      <point x="2344" y="1344" type="curve"/>
      <point x="1896" y="1344" type="line"/>
      <point x="1948" y="1200"/>
      <point x="1980" y="876"/>
      <point x="1980" y="736" type="curve" smooth="yes"/>
      <point x="1972" y="604"/>
      <point x="1928" y="376"/>
      <point x="1732" y="372" type="curve" smooth="yes"/>
      <point x="1544" y="372" type="line"/>
      <point x="1544" y="0" type="line"/>
    </contour>
  </outline>
</glyph>
<glyph name="uni050B" format="1">
  <advance width="2560"/>
  <unicode hex="050B"/>
  <outline>
    <contour>
      <point x="1192" y="932" type="line"/>
      <point x="512" y="932" type="line"/>
      <point x="512" y="572" type="line"/>
      <point x="1192" y="572" type="line"/>
    </contour>
    <contour>
      <point x="652" y="1488" type="line"/>
      <point x="208" y="1488" type="line"/>
      <point x="208" y="0" type="line"/>
      <point x="652" y="0" type="line"/>
    </contour>
    <contour>
      <point x="1100" y="532" type="line"/>
      <point x="1124" y="132"/>
      <point x="1344" y="-36"/>
      <point x="1712" y="-28" type="curve"/>
      <point x="2052" y="-28"/>
      <point x="2348" y="200"/>
      <point x="2352" y="672" type="curve"/>
      <point x="2356" y="848"/>
      <point x="2308" y="1028"/>
      <point x="2260" y="1196" type="curve"/>
      <point x="1828" y="1196" type="line"/>
      <point x="1880" y="1024"/>
      <point x="1912" y="844"/>
      <point x="1912" y="672" type="curve" smooth="yes"/>
      <point x="1904" y="464"/>
      <point x="1836" y="336"/>
      <point x="1712" y="336" type="curve"/>
      <point x="1604" y="336"/>
      <point x="1540" y="420"/>
      <point x="1544" y="532" type="curve"/>
      <point x="1544" y="1488" type="line"/>
      <point x="1100" y="1488" type="line"/>
    </contour>
  </outline>
</glyph>
<glyph name="uni050C" format="1">
  <advance width="2048"/>
  <unicode hex="050C"/>
  <outline>
    <contour>
      <point x="1048" y="2244" type="move" name="top"/>
    </contour>
    <contour>
      <point x="1048" y="-16" type="move" name="bottom"/>
    </contour>
    <contour>
      <point x="1920" y="2244" type="move" name="top0315"/>
    </contour>
    <contour>
      <point x="1088" y="-28" type="curve" smooth="yes"/>
      <point x="1492" y="-28"/>
      <point x="1840" y="180"/>
      <point x="1848" y="616" type="curve"/>
      <point x="1852" y="772"/>
      <point x="1808" y="932"/>
      <point x="1772" y="1080" type="curve"/>
      <point x="1320" y="1080" type="line"/>
      <point x="1364" y="928"/>
      <point x="1392" y="768"/>
      <point x="1388" y="616" type="curve" smooth="yes"/>
      <point x="1384" y="452"/>
      <point x="1280" y="352"/>
      <point x="1088" y="348" type="curve"/>
      <point x="820" y="348"/>
      <point x="660" y="560"/>
      <point x="660" y="820" type="curve" smooth="yes"/>
      <point x="660" y="1184" type="line" smooth="yes"/>
      <point x="660" y="1440"/>
      <point x="820" y="1652"/>
      <point x="1088" y="1652" type="curve" smooth="yes"/>
      <point x="1248" y="1652"/>
      <point x="1380" y="1620"/>
      <point x="1500" y="1560" type="curve"/>
      <point x="1584" y="1908" type="line"/>
      <point x="1460" y="1988"/>
      <point x="1300" y="2032"/>
      <point x="1088" y="2032" type="curve" smooth="yes"/>
      <point x="560" y="2032"/>
      <point x="200" y="1668"/>
      <point x="200" y="1180" type="curve"/>
      <point x="200" y="820" type="line"/>
      <point x="200" y="336"/>
      <point x="560" y="-28"/>
    </contour>
  </outline>
</glyph>
<glyph name="uni050F" format="1">
  <advance width="1792"/>
  <unicode hex="050F"/>
  <outline>
    <contour>
      <point x="836" y="0" type="move" name="right"/>
    </contour>
    <contour>
      <point x="1328" y="1488" type="line"/>
      <point x="80" y="1488" type="line"/>
      <point x="80" y="1128" type="line"/>
      <point x="1328" y="1128" type="line"/>
    </contour>
    <contour>
      <point x="460" y="532" type="line"/>
      <point x="480" y="132"/>
      <point x="704" y="-36"/>
      <point x="1072" y="-28" type="curve"/>
      <point x="1408" y="-28"/>
      <point x="1704" y="172"/>
      <point x="1712" y="584" type="curve"/>
      <point x="1716" y="712"/>
      <point x="1668" y="844"/>
      <point x="1620" y="968" type="curve"/>
      <point x="1188" y="968" type="line"/>
      <point x="1240" y="844"/>
      <point x="1272" y="708"/>
      <point x="1268" y="584" type="curve"/>
      <point x="1264" y="428"/>
      <point x="1196" y="336"/>
      <point x="1072" y="336" type="curve"/>
      <point x="964" y="336"/>
      <point x="900" y="420"/>
      <point x="900" y="532" type="curve"/>
      <point x="900" y="1488" type="line"/>
      <point x="460" y="1488" type="line"/>
    </contour>
  </outline>
</glyph>
<glyph name="uni0518" format="1">
  <advance width="2816"/>
  <unicode hex="0518"/>
  <outline>
    <contour>
      <point x="2660" y="372" type="line"/>
      <point x="1596" y="372" type="line"/>
      <point x="1596" y="0" type="line"/>
      <point x="2660" y="0" type="line"/>
    </contour>
    <contour>
      <point x="2524" y="1208" type="line"/>
      <point x="1596" y="1208" type="line"/>
      <point x="1596" y="848" type="line"/>
      <point x="2524" y="848" type="line"/>
    </contour>
    <contour>
      <point x="2664" y="2004" type="line"/>
      <point x="1596" y="2004" type="line"/>
      <point x="1596" y="1628" type="line"/>
      <point x="2664" y="1628" type="line"/>
    </contour>
    <component base="afii10049" xOffset="252"/>
  </outline>
</glyph>
<glyph name="uni0520" format="1">
  <advance width="3072"/>
  <unicode hex="0520"/>
  <outline>
    <contour>
      <point x="2396" y="-600" type="curve" smooth="yes"/>
      <point x="2736" y="-600"/>
      <point x="2952" y="-396"/>
      <point x="2952" y="-20" type="curve" smooth="yes"/>
      <point x="2952" y="612" type="line" smooth="yes"/>
      <point x="2952" y="1076"/>
      <point x="2632" y="1292"/>
      <point x="2228" y="1292" type="curve" smooth="yes"/>
      <point x="2052" y="1292"/>
      <point x="1796" y="1268"/>
      <point x="1700" y="1240" type="curve"/>
      <point x="1700" y="868" type="line"/>
      <point x="1800" y="892"/>
      <point x="2020" y="920"/>
      <point x="2116" y="920" type="curve" smooth="yes"/>
      <point x="2356" y="920"/>
      <point x="2496" y="852"/>
      <point x="2496" y="612" type="curve" smooth="yes"/>
      <point x="2496" y="-20" type="line" smooth="yes"/>
      <point x="2496" y="-168"/>
      <point x="2444" y="-220"/>
      <point x="2324" y="-220" type="curve" smooth="yes"/>
      <point x="2280" y="-220"/>
      <point x="2244" y="-216"/>
      <point x="2200" y="-204" type="curve"/>
      <point x="2180" y="-580" type="line"/>
      <point x="2256" y="-596"/>
      <point x="2320" y="-600"/>
    </contour>
    <component base="afii10029" xOffset="68"/>
  </outline>
</glyph>
<glyph name="uni0528" format="1">
  <advance width="2048"/>
  <unicode hex="0528"/>
  <outline>
    <contour>
      <point x="332" y="388" type="line"/>
      <point x="332" y="-20" type="line" smooth="yes"/>
      <point x="332" y="-168"/>
      <point x="280" y="-220"/>
      <point x="164" y="-220" type="curve" smooth="yes"/>
      <point x="120" y="-220"/>
      <point x="84" y="-216"/>
      <point x="40" y="-204" type="curve"/>
      <point x="20" y="-580" type="line"/>
      <point x="96" y="-596"/>
      <point x="156" y="-600"/>
      <point x="232" y="-600" type="curve" smooth="yes"/>
      <point x="576" y="-600"/>
      <point x="796" y="-396"/>
      <point x="796" y="-20" type="curve" smooth="yes"/>
      <point x="796" y="388" type="line"/>
    </contour>
    <component base="H" xOffset="172"/>
  </outline>
</glyph>
<glyph name="uni052A" format="1">
  <advance width="4096"/>
  <unicode hex="052A"/>
  <outline>
    <contour>
      <point x="2720" y="2004" type="line"/>
      <point x="2260" y="2004" type="line"/>
      <point x="2260" y="0" type="line"/>
      <point x="2720" y="0" type="line"/>
    </contour>
    <contour>
      <point x="3916" y="2004" type="line"/>
      <point x="3348" y="2004" type="line"/>
      <point x="2884" y="1220" type="line"/>
      <point x="1612" y="1220" type="line"/>
      <point x="1668" y="804" type="line"/>
      <point x="3108" y="804" type="line"/>
    </contour>
    <contour>
      <point x="3376" y="0" type="line"/>
      <point x="3924" y="0" type="line"/>
      <point x="3192" y="1180" type="line"/>
      <point x="2840" y="904" type="line"/>
    </contour>
    <component base="afii10021" xOffset="44"/>
  </outline>
</glyph>
<glyph name="uni052B" format="1">
  <advance width="3328"/>
  <unicode hex="052B"/>
  <outline>
    <contour>
      <point x="2284" y="1488" type="line"/>
      <point x="1840" y="1488" type="line"/>
      <point x="1840" y="0" type="line"/>
      <point x="2284" y="0" type="line"/>
    </contour>
    <contour>
      <point x="3248" y="1488" type="line"/>
      <point x="2684" y="1488" type="line"/>
      <point x="2420" y="952" type="line"/>
      <point x="1376" y="952" type="line"/>
      <point x="1428" y="520" type="line"/>
      <point x="2628" y="520" type="line"/>
    </contour>
    <contour>
      <point x="2696" y="0" type="line"/>
      <point x="3292" y="0" type="line"/>
      <point x="2792" y="800" type="line"/>
      <point x="2388" y="608" type="line"/>
    </contour>
    <contour>
      <point x="404" y="1488" type="line"/>
      <point x="396" y="1020" type="line" smooth="yes"/>
      <point x="392" y="736"/>
      <point x="376" y="580"/>
      <point x="168" y="360" type="curve"/>
      <point x="128" y="360" type="line"/>
      <point x="136" y="0" type="line"/>
      <point x="196" y="0" type="line"/>
      <point x="536" y="72"/>
      <point x="832" y="344"/>
      <point x="840" y="1020" type="curve" smooth="yes"/>
      <point x="848" y="1488" type="line"/>
    </contour>
    <contour>
      <point x="528" y="1488" type="line"/>
      <point x="528" y="1132" type="line"/>
      <point x="1104" y="1132" type="line"/>
      <point x="1104" y="0" type="line"/>
      <point x="1544" y="0" type="line"/>
      <point x="1544" y="1488" type="line"/>
    </contour>
    <contour>
      <point x="36" y="360" type="line"/>
      <point x="36" y="-452" type="line"/>
      <point x="492" y="-452" type="line"/>
      <point x="492" y="0" type="line"/>
      <point x="1320" y="0" type="line"/>
      <point x="1320" y="-452" type="line"/>
      <point x="1764" y="-452" type="line"/>
      <point x="1764" y="360" type="line"/>
    </contour>
  </outline>
</glyph>
<glyph name="uni1AB0" format="1">
  <advance width="0"/>
  <unicode hex="1AB0"/>
  <outline>
    <contour>
      <point x="-767" y="1609" type="move" name="_marktop"/>
    </contour>
    <contour>
      <point x="-1177" y="1895" type="line"/>
      <point x="-960" y="1708" type="line"/>
      <point x="-583" y="1708" type="line"/>
      <point x="-367" y="1895" type="line"/>
      <point x="-150" y="1708" type="line"/>
      <point x="199" y="1708" type="line"/>
      <point x="199" y="1726" type="line"/>
      <point x="-239" y="2112" type="line"/>
      <point x="-494" y="2112" type="line"/>
      <point x="-771" y="1867" type="line"/>
      <point x="-1049" y="2112" type="line"/>
      <point x="-1304" y="2112" type="line"/>
      <point x="-1735" y="1731" type="line"/>
      <point x="-1735" y="1708" type="line"/>
      <point x="-1393" y="1708" type="line"/>
    </contour>
  </outline>
</glyph>
<glyph name="uni1AB4" format="1">
  <advance width="0"/>
  <unicode hex="1AB4"/>
  <outline>
    <contour>
      <point x="-792" y="1609" type="move" name="_marktop"/>
    </contour>
    <component base="dotbelow" xOffset="-355" yOffset="2159"/>
    <component base="dotbelow" xOffset="414" yOffset="2159"/>
    <component base="dotbelow" xOffset="29" yOffset="2571"/>
  </outline>
</glyph>
<glyph name="uni1AB5" format="1">
  <advance width="0"/>
  <unicode hex="1AB5"/>
  <outline>
    <contour>
      <point x="-793" y="0" type="move" name="_markbottom"/>
    </contour>
    <component base="uni036F" yScale="0.75" xOffset="-414" yOffset="-1994"/>
    <component base="uni036F" yScale="0.75" xOffset="411" yOffset="-1994"/>
  </outline>
</glyph>
<glyph name="uni1AB7" format="1">
  <advance width="0"/>
  <unicode hex="1AB7"/>
  <outline>
    <contour>
      <point x="-782" y="0" type="move" name="_markbottom"/>
    </contour>
    <contour>
      <point x="-919" y="-138" type="line"/>
      <point x="-919" y="-385" type="line" smooth="yes"/>
      <point x="-919" y="-630"/>
      <point x="-784" y="-763"/>
      <point x="-560" y="-763" type="curve" smooth="yes"/>
      <point x="-510" y="-763"/>
      <point x="-470" y="-760"/>
      <point x="-421" y="-748" type="curve"/>
      <point x="-421" y="-520" type="line"/>
      <point x="-451" y="-524"/>
      <point x="-476" y="-527"/>
      <point x="-506" y="-527" type="curve" smooth="yes"/>
      <point x="-586" y="-527"/>
      <point x="-657" y="-501"/>
      <point x="-657" y="-385" type="curve" smooth="yes"/>
      <point x="-657" y="-138" type="line"/>
    </contour>
  </outline>
</glyph>
<glyph name="uni1ABA" format="1">
  <advance width="0"/>
  <unicode hex="1ABA"/>
  <outline>
    <contour>
      <point x="-347" y="0" type="move" name="_bottom"/>
    </contour>
    <contour>
      <point x="-743" y="-635" type="curve" smooth="yes"/>
      <point x="-630" y="-635"/>
      <point x="-539" y="-546"/>
      <point x="-539" y="-435" type="curve" smooth="yes"/>
      <point x="-539" y="-322"/>
      <point x="-630" y="-231"/>
      <point x="-743" y="-231" type="curve" smooth="yes"/>
      <point x="-854" y="-231"/>
      <point x="-945" y="-322"/>
      <point x="-945" y="-435" type="curve" smooth="yes"/>
      <point x="-945" y="-546"/>
      <point x="-854" y="-635"/>
    </contour>
    <contour>
      <point x="-274" y="92" type="line"/>
      <point x="-468" y="210" type="line"/>
      <point x="-862" y="-414" type="line"/>
      <point x="-656" y="-521" type="line"/>
    </contour>
  </outline>
</glyph>
<glyph name="uni1D03" format="1">
  <advance width="2048"/>
  <unicode hex="1D03"/>
  <outline>
    <contour>
      <point x="992" y="1776" type="move" name="top"/>
    </contour>
    <contour>
      <point x="992" y="0" type="move" name="bottom"/>
    </contour>
    <contour>
      <point x="1956" y="1776" type="move" name="top0315"/>
    </contour>
    <contour>
      <point x="484" y="892" type="line"/>
      <point x="152" y="892" type="line"/>
      <point x="152" y="608" type="line"/>
      <point x="484" y="608" type="line"/>
    </contour>
    <contour>
      <point x="1900" y="892" type="line"/>
      <point x="1360" y="892" type="line"/>
      <point x="1360" y="608" type="line"/>
      <point x="1900" y="608" type="line"/>
    </contour>
    <component base="vecyrillic" xOffset="212"/>
  </outline>
</glyph>
<glyph name="uni1D05" format="1">
  <advance width="1792"/>
  <unicode hex="1D05"/>
  <outline>
    <contour>
      <point x="872" y="1776" type="move" name="top"/>
    </contour>
    <contour>
      <point x="872" y="0" type="move" name="bottom"/>
    </contour>
    <contour>
      <point x="1660" y="1776" type="move" name="top0315"/>
    </contour>
    <contour>
      <point x="860" y="0" type="line"/>
      <point x="1276" y="0"/>
      <point x="1580" y="268"/>
      <point x="1580" y="656" type="curve" smooth="yes"/>
      <point x="1580" y="832" type="line" smooth="yes"/>
      <point x="1580" y="1220"/>
      <point x="1276" y="1488"/>
      <point x="860" y="1488" type="curve" smooth="yes"/>
      <point x="392" y="1488" type="line"/>
      <point x="392" y="1132" type="line"/>
      <point x="860" y="1132" type="line" smooth="yes"/>
      <point x="1032" y="1132"/>
      <point x="1136" y="1008"/>
      <point x="1136" y="832" type="curve" smooth="yes"/>
      <point x="1136" y="656" type="line" smooth="yes"/>
      <point x="1136" y="480"/>
      <point x="1032" y="356"/>
      <point x="860" y="356" type="curve" smooth="yes"/>
      <point x="404" y="356" type="line"/>
      <point x="400" y="0" type="line"/>
    </contour>
    <contour>
      <point x="656" y="1488" type="line"/>
      <point x="212" y="1488" type="line"/>
      <point x="212" y="0" type="line"/>
      <point x="656" y="0" type="line"/>
    </contour>
  </outline>
</glyph>
<glyph name="uni1D08" format="1">
  <advance width="1536"/>
  <unicode hex="1D08"/>
  <outline>
    <contour>
      <point x="732" y="1776" type="move" name="top"/>
    </contour>
    <contour>
      <point x="1452" y="1776" type="move" name="top0315"/>
    </contour>
    <contour>
      <point x="732" y="0" type="move" name="bottom"/>
    </contour>
    <component base="zecyrillic"/>
  </outline>
</glyph>
<glyph name="uni1D0B" format="1">
  <advance width="1792"/>
  <unicode hex="1D0B"/>
  <outline>
    <contour>
      <point x="784" y="1776" type="move" name="top"/>
    </contour>
    <contour>
      <point x="784" y="0" type="move" name="bottom"/>
    </contour>
    <contour>
      <point x="1644" y="1776" type="move" name="top0315"/>
    </contour>
    <contour>
      <point x="628" y="1488" type="line"/>
      <point x="184" y="1488" type="line"/>
      <point x="184" y="0" type="line"/>
      <point x="628" y="0" type="line"/>
    </contour>
    <contour>
      <point x="1592" y="1488" type="line"/>
      <point x="1028" y="1488" type="line"/>
      <point x="748" y="956" type="line"/>
      <point x="512" y="956" type="line"/>
      <point x="560" y="520" type="line"/>
      <point x="956" y="520" type="line"/>
    </contour>
    <contour>
      <point x="1040" y="0" type="line"/>
      <point x="1608" y="0" type="line"/>
      <point x="1136" y="832" type="line"/>
      <point x="744" y="608" type="line"/>
    </contour>
  </outline>
</glyph>
<glyph name="uni1D15" format="1">
  <advance width="1536"/>
  <unicode hex="1D15"/>
  <outline>
    <contour>
      <point x="764" y="1776" type="move" name="top"/>
    </contour>
    <contour>
      <point x="764" y="0" type="move" name="bottom"/>
    </contour>
    <contour>
      <point x="1480" y="1776" type="move" name="top0315"/>
    </contour>
    <contour>
      <point x="136" y="572" type="line"/>
      <point x="136" y="188"/>
      <point x="404" y="-28"/>
      <point x="768" y="-28" type="curve" smooth="yes"/>
      <point x="1136" y="-28"/>
      <point x="1400" y="188"/>
      <point x="1400" y="572" type="curve" smooth="yes"/>
      <point x="1400" y="596" type="line" smooth="yes"/>
      <point x="1400" y="944"/>
      <point x="1136" y="1200"/>
      <point x="768" y="1200" type="curve" smooth="yes"/>
      <point x="404" y="1200"/>
      <point x="136" y="944"/>
      <point x="136" y="596" type="curve" smooth="yes"/>
    </contour>
    <contour>
      <point x="580" y="596" type="line"/>
      <point x="580" y="744"/>
      <point x="620" y="844"/>
      <point x="768" y="844" type="curve" smooth="yes"/>
      <point x="920" y="844"/>
      <point x="956" y="728"/>
      <point x="956" y="596" type="curve" smooth="yes"/>
      <point x="956" y="572" type="line" smooth="yes"/>
      <point x="956" y="436"/>
      <point x="920" y="332"/>
      <point x="768" y="332" type="curve" smooth="yes"/>
      <point x="620" y="332"/>
      <point x="580" y="436"/>
      <point x="580" y="572" type="curve" smooth="yes"/>
    </contour>
    <contour>
      <point x="956" y="1516" type="line"/>
      <point x="956" y="1340"/>
      <point x="928" y="1200"/>
      <point x="768" y="1200" type="curve" smooth="yes"/>
      <point x="604" y="1200"/>
      <point x="580" y="1340"/>
      <point x="580" y="1516" type="curve"/>
      <point x="140" y="1516" type="line"/>
      <point x="140" y="1172"/>
      <point x="400" y="844"/>
      <point x="768" y="844" type="curve" smooth="yes"/>
      <point x="1136" y="844"/>
      <point x="1400" y="1172"/>
      <point x="1400" y="1516" type="curve"/>
    </contour>
  </outline>
</glyph>
<glyph name="uni1D1E" format="1">
  <advance width="2304"/>
  <unicode hex="1D1E"/>
  <outline>
    <contour>
      <point x="304" y="168" type="curve" smooth="yes"/>
      <point x="408" y="168"/>
      <point x="488" y="252"/>
      <point x="488" y="384" type="curve" smooth="yes"/>
      <point x="488" y="512"/>
      <point x="408" y="600"/>
      <point x="304" y="600" type="curve" smooth="yes"/>
      <point x="200" y="600"/>
      <point x="120" y="512"/>
      <point x="120" y="384" type="curve" smooth="yes"/>
      <point x="120" y="252"/>
      <point x="200" y="168"/>
    </contour>
    <contour>
      <point x="304" y="868" type="curve" smooth="yes"/>
      <point x="408" y="868"/>
      <point x="488" y="952"/>
      <point x="488" y="1084" type="curve" smooth="yes"/>
      <point x="488" y="1212"/>
      <point x="408" y="1300"/>
      <point x="304" y="1300" type="curve" smooth="yes"/>
      <point x="200" y="1300"/>
      <point x="120" y="1212"/>
      <point x="120" y="1084" type="curve" smooth="yes"/>
      <point x="120" y="952"/>
      <point x="200" y="868"/>
    </contour>
    <component base="uni1D1D" xOffset="540"/>
  </outline>
</glyph>
<glyph name="uni1D1F" format="1">
  <advance width="1792"/>
  <unicode hex="1D1F"/>
  <outline>
    <contour>
      <point x="1312" y="1388" type="line"/>
      <point x="1628" y="1416" type="line"/>
      <point x="1628" y="1832" type="line"/>
      <point x="140" y="1832" type="line"/>
      <point x="140" y="1388" type="line"/>
    </contour>
    <contour>
      <point x="932" y="1444" type="line"/>
      <point x="1140" y="1444"/>
      <point x="1296" y="1352"/>
      <point x="1296" y="1172" type="curve" smooth="yes"/>
      <point x="1296" y="1052"/>
      <point x="1248" y="980"/>
      <point x="1044" y="980" type="curve" smooth="yes"/>
      <point x="140" y="980" type="line"/>
      <point x="140" y="536" type="line"/>
      <point x="1132" y="536" type="line" smooth="yes"/>
      <point x="1504" y="536"/>
      <point x="1656" y="716"/>
      <point x="1656" y="976" type="curve" smooth="yes"/>
      <point x="1656" y="1352"/>
      <point x="1348" y="1556"/>
      <point x="932" y="1556" type="curve"/>
    </contour>
    <contour>
      <point x="932" y="584" type="line"/>
      <point x="1140" y="584"/>
      <point x="1296" y="500"/>
      <point x="1296" y="320" type="curve" smooth="yes"/>
      <point x="1296" y="200"/>
      <point x="1248" y="128"/>
      <point x="1044" y="128" type="curve" smooth="yes"/>
      <point x="140" y="128" type="line"/>
      <point x="140" y="-320" type="line"/>
      <point x="1044" y="-320" type="line" smooth="yes"/>
      <point x="1476" y="-320"/>
      <point x="1656" y="-128"/>
      <point x="1656" y="152" type="curve" smooth="yes"/>
      <point x="1656" y="528"/>
      <point x="1348" y="720"/>
      <point x="932" y="720" type="curve"/>
    </contour>
  </outline>
</glyph>
<glyph name="uni1D24" format="1">
  <advance width="1536"/>
  <unicode hex="1D24"/>
  <outline>
    <contour>
      <point x="764" y="1776" type="move" name="top"/>
    </contour>
    <contour>
      <point x="764" y="0" type="move" name="bottom"/>
    </contour>
    <contour>
      <point x="1488" y="1776" type="move" name="top0315"/>
    </contour>
    <contour>
      <point x="564" y="1032" type="curve"/>
      <point x="120" y="1032" type="line"/>
      <point x="120" y="1316"/>
      <point x="368" y="1516"/>
      <point x="764" y="1516" type="curve" smooth="yes"/>
      <point x="1148" y="1516"/>
      <point x="1372" y="1296"/>
      <point x="1372" y="1044" type="curve" smooth="yes"/>
      <point x="1372" y="820"/>
      <point x="1204" y="704"/>
      <point x="916" y="664" type="curve"/>
      <point x="916" y="536" type="line"/>
      <point x="660" y="620" type="line"/>
      <point x="660" y="960" type="line"/>
      <point x="848" y="980"/>
      <point x="948" y="1008"/>
      <point x="948" y="1092" type="curve" smooth="yes"/>
      <point x="948" y="1168"/>
      <point x="872" y="1212"/>
      <point x="764" y="1212" type="curve" smooth="yes"/>
      <point x="624" y="1212"/>
      <point x="564" y="1144"/>
    </contour>
    <contour>
      <point x="1000" y="476" type="curve"/>
      <point x="1416" y="476" type="line"/>
      <point x="1416" y="240"/>
      <point x="1188" y="-28"/>
      <point x="764" y="-28" type="curve" smooth="yes"/>
      <point x="372" y="-28"/>
      <point x="120" y="168"/>
      <point x="120" y="432" type="curve" smooth="yes"/>
      <point x="120" y="700"/>
      <point x="344" y="804"/>
      <point x="688" y="852" type="curve"/>
      <point x="916" y="536" type="line"/>
      <point x="612" y="536"/>
      <point x="548" y="472"/>
      <point x="548" y="396" type="curve" smooth="yes"/>
      <point x="548" y="332"/>
      <point x="616" y="280"/>
      <point x="752" y="280" type="curve" smooth="yes"/>
      <point x="896" y="280"/>
      <point x="996" y="332"/>
    </contour>
  </outline>
</glyph>
<glyph name="uni1D26" format="1">
  <advance width="1280"/>
  <unicode hex="1D26"/>
  <outline>
    <contour>
      <point x="672" y="1776" type="move" name="top"/>
    </contour>
    <contour>
      <point x="1180" y="1776" type="move" name="top0315"/>
    </contour>
    <contour>
      <point x="672" y="0" type="move" name="bottom"/>
    </contour>
    <component base="gecyrillic"/>
  </outline>
</glyph>
<glyph name="uni1D29" format="1">
  <advance width="1792"/>
  <unicode hex="1D29"/>
  <outline>
    <contour>
      <point x="880" y="1776" type="move" name="top"/>
    </contour>
    <contour>
      <point x="1652" y="1776" type="move" name="top0315"/>
    </contour>
    <contour>
      <point x="880" y="0" type="move" name="bottom"/>
    </contour>
    <component base="uni1D18" xOffset="32"/>
  </outline>
</glyph>
<glyph name="uni1D2B" format="1">
  <advance width="1536"/>
  <unicode hex="1D2B"/>
  <outline>
    <contour>
      <point x="844" y="1776" type="move" name="top"/>
    </contour>
    <contour>
      <point x="1624" y="1776" type="move" name="top0315"/>
    </contour>
    <contour>
      <point x="844" y="0" type="move" name="bottom"/>
    </contour>
    <component base="elcyrillic" xOffset="-4"/>
  </outline>
</glyph>
<glyph name="uni1D36" format="1">
  <advance width="1280"/>
  <unicode hex="1D36"/>
  <outline>
    <contour>
      <point x="836" y="1360" type="line"/>
      <point x="836" y="1212"/>
      <point x="756" y="1136"/>
      <point x="652" y="1136" type="curve" smooth="yes"/>
      <point x="532" y="1136"/>
      <point x="452" y="1204"/>
      <point x="452" y="1340" type="curve"/>
      <point x="140" y="1340" type="line"/>
      <point x="140" y="1020"/>
      <point x="348" y="872"/>
      <point x="652" y="872" type="curve" smooth="yes"/>
      <point x="924" y="872"/>
      <point x="1144" y="1052"/>
      <point x="1144" y="1360" type="curve" smooth="yes"/>
      <point x="1144" y="2376" type="line"/>
      <point x="836" y="2376" type="line"/>
    </contour>
  </outline>
</glyph>
<glyph name="uni1D37" format="1">
  <advance width="1536"/>
  <unicode hex="1D37"/>
  <outline>
    <contour>
      <point x="476" y="2384" type="line"/>
      <point x="168" y="2384" type="line"/>
      <point x="168" y="900" type="line"/>
      <point x="476" y="900" type="line"/>
    </contour>
    <contour>
      <point x="1360" y="2384" type="line"/>
      <point x="972" y="2384" type="line"/>
      <point x="596" y="1896" type="line"/>
      <point x="372" y="1600" type="line"/>
      <point x="448" y="1292" type="line"/>
      <point x="780" y="1640" type="line"/>
    </contour>
    <contour>
      <point x="992" y="900" type="line"/>
      <point x="1368" y="900" type="line"/>
      <point x="816" y="1776" type="line"/>
      <point x="580" y="1572" type="line"/>
    </contour>
  </outline>
</glyph>
<glyph name="uni1D39" format="1">
  <advance width="1792"/>
  <unicode hex="1D39"/>
  <outline>
    <contour>
      <point x="264" y="2384" type="line"/>
      <point x="788" y="900" type="line"/>
      <point x="1008" y="900" type="line"/>
      <point x="1528" y="2384" type="line"/>
      <point x="1252" y="2384" type="line"/>
      <point x="896" y="1336" type="line"/>
      <point x="540" y="2384" type="line"/>
    </contour>
    <contour>
      <point x="128" y="2384" type="line"/>
      <point x="128" y="900" type="line"/>
      <point x="436" y="900" type="line"/>
      <point x="436" y="1268" type="line"/>
      <point x="388" y="2384" type="line"/>
    </contour>
    <contour>
      <point x="1408" y="2384" type="line"/>
      <point x="1360" y="1268" type="line"/>
      <point x="1360" y="900" type="line"/>
      <point x="1664" y="900" type="line"/>
      <point x="1664" y="2384" type="line"/>
    </contour>
  </outline>
</glyph>
<glyph name="uni1D42" format="1">
  <advance width="2048"/>
  <unicode hex="1D42"/>
  <outline>
    <contour>
      <point x="588" y="1068" type="line"/>
      <point x="620" y="900" type="line"/>
      <point x="792" y="900" type="line"/>
      <point x="1116" y="2240" type="line"/>
      <point x="1056" y="2384" type="line"/>
      <point x="896" y="2384" type="line"/>
    </contour>
    <contour>
      <point x="460" y="2384" type="line"/>
      <point x="156" y="2384" type="line"/>
      <point x="480" y="900" type="line"/>
      <point x="680" y="900" type="line"/>
      <point x="704" y="1060" type="line"/>
    </contour>
    <contour>
      <point x="1352" y="1068" type="line"/>
      <point x="1372" y="900" type="line"/>
      <point x="1572" y="900" type="line"/>
      <point x="1892" y="2384" type="line"/>
      <point x="1592" y="2384" type="line"/>
    </contour>
    <contour>
      <point x="1156" y="2384" type="line"/>
      <point x="992" y="2384" type="line"/>
      <point x="932" y="2240" type="line"/>
      <point x="1260" y="900" type="line"/>
      <point x="1432" y="900" type="line"/>
      <point x="1464" y="1060" type="line"/>
    </contour>
  </outline>
</glyph>
<glyph name="uni1D50" format="1">
  <advance width="1792"/>
  <unicode hex="1D50"/>
  <outline>
    <contour>
      <point x="360" y="1484" type="line"/>
      <point x="360" y="1632"/>
      <point x="416" y="1748"/>
      <point x="572" y="1748" type="curve" smooth="yes"/>
      <point x="684" y="1748"/>
      <point x="744" y="1684"/>
      <point x="744" y="1488" type="curve" smooth="yes"/>
      <point x="744" y="900" type="line"/>
      <point x="1052" y="900" type="line"/>
      <point x="1052" y="1596" type="line" smooth="yes"/>
      <point x="1052" y="1892"/>
      <point x="916" y="2016"/>
      <point x="684" y="2016" type="curve" smooth="yes"/>
      <point x="436" y="2016"/>
      <point x="296" y="1792"/>
      <point x="296" y="1480" type="curve"/>
    </contour>
    <contour>
      <point x="396" y="1768" type="line"/>
      <point x="332" y="2004" type="line"/>
      <point x="88" y="2004" type="line"/>
      <point x="88" y="900" type="line"/>
      <point x="396" y="900" type="line"/>
    </contour>
    <contour>
      <point x="1016" y="1484" type="line"/>
      <point x="1016" y="1632"/>
      <point x="1072" y="1748"/>
      <point x="1228" y="1748" type="curve" smooth="yes"/>
      <point x="1340" y="1748"/>
      <point x="1400" y="1684"/>
      <point x="1400" y="1488" type="curve" smooth="yes"/>
      <point x="1400" y="900" type="line"/>
      <point x="1708" y="900" type="line"/>
      <point x="1708" y="1596" type="line" smooth="yes"/>
      <point x="1708" y="1892"/>
      <point x="1572" y="2016"/>
      <point x="1340" y="2016" type="curve" smooth="yes"/>
      <point x="1092" y="2016"/>
      <point x="952" y="1792"/>
      <point x="952" y="1480" type="curve"/>
    </contour>
  </outline>
</glyph>
<glyph name="uni1D55" format="1">
  <advance width="1280"/>
  <unicode hex="1D55"/>
  <outline>
    <contour>
      <point x="860" y="1468" type="line"/>
      <point x="860" y="1448" type="line" smooth="yes"/>
      <point x="860" y="1272"/>
      <point x="792" y="1152"/>
      <point x="640" y="1152" type="curve" smooth="yes"/>
      <point x="488" y="1152"/>
      <point x="420" y="1272"/>
      <point x="420" y="1448" type="curve" smooth="yes"/>
      <point x="420" y="1468" type="line"/>
      <point x="112" y="1468" type="line"/>
      <point x="112" y="1448" type="line" smooth="yes"/>
      <point x="112" y="1128"/>
      <point x="300" y="888"/>
      <point x="640" y="888" type="curve" smooth="yes"/>
      <point x="984" y="888"/>
      <point x="1168" y="1128"/>
      <point x="1168" y="1448" type="curve" smooth="yes"/>
      <point x="1168" y="1468" type="line"/>
    </contour>
  </outline>
</glyph>
<glyph name="uni1D59" format="1">
  <advance width="1280"/>
  <unicode hex="1D59"/>
  <outline>
    <contour>
      <point x="664" y="1651" type="line"/>
      <point x="814" y="1651"/>
      <point x="931" y="1598"/>
      <point x="931" y="1440" type="curve" smooth="yes"/>
      <point x="931" y="1327"/>
      <point x="864" y="1268"/>
      <point x="671" y="1268" type="curve" smooth="yes"/>
      <point x="83" y="1268" type="line"/>
      <point x="83" y="961" type="line"/>
      <point x="776" y="961" type="line" smooth="yes"/>
      <point x="1073" y="961"/>
      <point x="1198" y="1096"/>
      <point x="1198" y="1327" type="curve" smooth="yes"/>
      <point x="1198" y="1577"/>
      <point x="972" y="1716"/>
      <point x="663" y="1716" type="curve"/>
    </contour>
    <contour>
      <point x="947" y="1618" type="line"/>
      <point x="1184" y="1680" type="line"/>
      <point x="1184" y="1926" type="line"/>
      <point x="83" y="1926" type="line"/>
      <point x="83" y="1618" type="line"/>
    </contour>
  </outline>
</glyph>
<glyph name="uni1D5B" format="1">
  <advance width="1280"/>
  <unicode hex="1D5B"/>
  <outline>
    <contour>
      <point x="668" y="1356" type="line"/>
      <point x="584" y="900" type="line"/>
      <point x="804" y="900" type="line"/>
      <point x="1168" y="2004" type="line"/>
      <point x="824" y="2004" type="line"/>
    </contour>
    <contour>
      <point x="460" y="2004" type="line"/>
      <point x="112" y="2004" type="line"/>
      <point x="476" y="900" type="line"/>
      <point x="696" y="900" type="line"/>
      <point x="620" y="1356" type="line"/>
    </contour>
  </outline>
</glyph>
<glyph name="uni1D61" format="1">
  <advance width="1280"/>
  <unicode hex="1D61"/>
  <outline>
    <contour>
      <point x="1200" y="2000" type="line"/>
      <point x="868" y="2000" type="line"/>
      <point x="128" y="484" type="line"/>
      <point x="448" y="484" type="line"/>
    </contour>
    <contour>
      <point x="260" y="2016" type="curve" smooth="yes"/>
      <point x="188" y="2016"/>
      <point x="144" y="2008"/>
      <point x="80" y="1992" type="curve"/>
      <point x="88" y="1744" type="line"/>
      <point x="108" y="1748"/>
      <point x="140" y="1752"/>
      <point x="156" y="1752" type="curve" smooth="yes"/>
      <point x="232" y="1752"/>
      <point x="300" y="1728"/>
      <point x="332" y="1660" type="curve" smooth="yes"/>
      <point x="700" y="832" type="line" smooth="yes"/>
      <point x="744" y="728"/>
      <point x="824" y="496"/>
      <point x="996" y="472" type="curve" smooth="yes"/>
      <point x="1056" y="468"/>
      <point x="1120" y="468"/>
      <point x="1168" y="480" type="curve"/>
      <point x="1180" y="736" type="line"/>
      <point x="1164" y="736"/>
      <point x="1140" y="736"/>
      <point x="1124" y="740" type="curve" smooth="yes"/>
      <point x="1076" y="756"/>
      <point x="1036" y="804"/>
      <point x="1012" y="856" type="curve" smooth="yes"/>
      <point x="608" y="1736" type="line" smooth="yes"/>
      <point x="560" y="1844"/>
      <point x="504" y="2016"/>
    </contour>
  </outline>
</glyph>
<glyph name="uni1D75" format="1">
  <advance width="1280"/>
  <unicode hex="1D75"/>
  <outline>
    <contour>
      <point x="664" y="2200" type="move" name="top"/>
    </contour>
    <contour>
      <point x="880" y="0" type="move" name="bottom"/>
    </contour>
    <contour>
      <point x="1256" y="2200" type="move" name="top0315"/>
    </contour>
    <contour>
      <point x="1132" y="1488" type="line"/>
      <point x="244" y="1488" type="line"/>
      <point x="244" y="1168" type="line"/>
      <point x="1132" y="1168" type="line"/>
    </contour>
    <contour>
      <point x="440" y="1860" type="line"/>
      <point x="440" y="428" type="line" smooth="yes"/>
      <point x="440" y="104"/>
      <point x="608" y="-28"/>
      <point x="896" y="-28" type="curve" smooth="yes"/>
      <point x="992" y="-28"/>
      <point x="1076" y="-16"/>
      <point x="1148" y="12" type="curve"/>
      <point x="1148" y="344" type="line"/>
      <point x="1120" y="340"/>
      <point x="1084" y="336"/>
      <point x="1036" y="336" type="curve" smooth="yes"/>
      <point x="924" y="336"/>
      <point x="884" y="368"/>
      <point x="884" y="484" type="curve" smooth="yes"/>
      <point x="884" y="1860" type="line"/>
    </contour>
    <contour>
      <point x="956" y="968" type="line"/>
      <point x="956" y="884"/>
      <point x="904" y="844"/>
      <point x="844" y="844" type="curve" smooth="yes"/>
      <point x="708" y="844"/>
      <point x="540" y="956"/>
      <point x="392" y="956" type="curve" smooth="yes"/>
      <point x="208" y="956"/>
      <point x="80" y="776"/>
      <point x="80" y="584" type="curve"/>
      <point x="328" y="568" type="line"/>
      <point x="328" y="652"/>
      <point x="376" y="692"/>
      <point x="436" y="692" type="curve" smooth="yes"/>
      <point x="576" y="692"/>
      <point x="716" y="576"/>
      <point x="884" y="576" type="curve" smooth="yes"/>
      <point x="1072" y="576"/>
      <point x="1204" y="752"/>
      <point x="1204" y="952" type="curve"/>
    </contour>
  </outline>
</glyph>
<glyph name="uni1D7F" format="1">
  <advance width="2048"/>
  <unicode hex="1D7F"/>
  <outline>
    <contour>
      <point x="1020" y="1776" type="move" name="top"/>
    </contour>
    <contour>
      <point x="1020" y="0" type="move" name="bottom"/>
    </contour>
    <contour>
      <point x="1948" y="1776" type="move" name="top0315"/>
    </contour>
    <contour>
      <point x="1904" y="912" type="line"/>
      <point x="144" y="912" type="line"/>
      <point x="144" y="652" type="line"/>
      <point x="1904" y="652" type="line"/>
    </contour>
    <component base="upsilonlatin" xOffset="152"/>
  </outline>
</glyph>
<glyph name="uni1D82" format="1">
  <advance width="1024"/>
  <unicode hex="1D82"/>
  <outline>
    <contour>
      <point x="596" y="360" type="line"/>
      <point x="596" y="-80" type="line" smooth="yes"/>
      <point x="596" y="-232"/>
      <point x="464" y="-264"/>
      <point x="360" y="-264" type="curve" smooth="yes"/>
      <point x="324" y="-264"/>
      <point x="288" y="-260"/>
      <point x="252" y="-256" type="curve"/>
      <point x="252" y="-552" type="line"/>
      <point x="316" y="-568"/>
      <point x="368" y="-572"/>
      <point x="432" y="-572" type="curve" smooth="yes"/>
      <point x="724" y="-572"/>
      <point x="900" y="-396"/>
      <point x="900" y="-80" type="curve" smooth="yes"/>
      <point x="900" y="360" type="line"/>
    </contour>
    <component base="f" xOffset="-8"/>
    <contour>
      <point x="604" y="2340" type="move" name="top"/>
    </contour>
    <contour>
      <point x="472" y="-616" type="move" name="bottom"/>
    </contour>
    <contour>
      <point x="1008" y="2340" type="move" name="top0315"/>
    </contour>
  </outline>
</glyph>
<glyph name="uni1D88" format="1">
  <advance width="1792"/>
  <unicode hex="1D88"/>
  <outline>
    <contour>
      <point x="1184" y="360" type="line"/>
      <point x="1184" y="-80" type="line" smooth="yes"/>
      <point x="1184" y="-232"/>
      <point x="1056" y="-264"/>
      <point x="952" y="-264" type="curve" smooth="yes"/>
      <point x="912" y="-264"/>
      <point x="880" y="-260"/>
      <point x="840" y="-256" type="curve"/>
      <point x="840" y="-552" type="line"/>
      <point x="904" y="-568"/>
      <point x="956" y="-572"/>
      <point x="1020" y="-572" type="curve" smooth="yes"/>
      <point x="1312" y="-572"/>
      <point x="1488" y="-396"/>
      <point x="1488" y="-80" type="curve" smooth="yes"/>
      <point x="1488" y="360" type="line"/>
    </contour>
    <component base="p" xOffset="72"/>
    <contour>
      <point x="1000" y="1776" type="move" name="top"/>
    </contour>
    <contour>
      <point x="1000" y="-616" type="move" name="bottom"/>
    </contour>
    <contour>
      <point x="1656" y="1776" type="move" name="top0315"/>
    </contour>
  </outline>
</glyph>
<glyph name="uni1D8A" format="1">
  <advance width="1536"/>
  <unicode hex="1D8A"/>
  <outline>
    <contour>
      <point x="1112" y="432" type="line"/>
      <point x="1112" y="-80" type="line" smooth="yes"/>
      <point x="1112" y="-232"/>
      <point x="984" y="-264"/>
      <point x="876" y="-264" type="curve" smooth="yes"/>
      <point x="840" y="-264"/>
      <point x="808" y="-260"/>
      <point x="768" y="-256" type="curve"/>
      <point x="768" y="-552" type="line"/>
      <point x="832" y="-568"/>
      <point x="884" y="-572"/>
      <point x="948" y="-572" type="curve" smooth="yes"/>
      <point x="1240" y="-572"/>
      <point x="1416" y="-396"/>
      <point x="1416" y="-80" type="curve" smooth="yes"/>
      <point x="1416" y="432" type="line"/>
    </contour>
    <component base="s" xOffset="64"/>
    <contour>
      <point x="792" y="1776" type="move" name="top"/>
    </contour>
    <contour>
      <point x="792" y="-616" type="move" name="bottom"/>
    </contour>
    <contour>
      <point x="1508" y="1776" type="move" name="top0315"/>
    </contour>
  </outline>
</glyph>
<glyph name="uni1D98" format="1">
  <advance width="1280"/>
  <unicode hex="1D98"/>
  <outline>
    <contour>
      <point x="904" y="2340" type="move" name="top"/>
    </contour>
    <contour>
      <point x="372" y="-616" type="move" name="bottom"/>
    </contour>
    <contour>
      <point x="1224" y="2340" type="move" name="top0315"/>
    </contour>
    <contour>
      <point x="88" y="-56" type="line" name="hr00"/>
      <point x="88" y="-108" type="line" smooth="yes"/>
      <point x="88" y="-424"/>
      <point x="264" y="-600"/>
      <point x="556" y="-600" type="curve" smooth="yes"/>
      <point x="620" y="-600"/>
      <point x="672" y="-596"/>
      <point x="736" y="-580" type="curve"/>
      <point x="736" y="-284" type="line"/>
      <point x="700" y="-288"/>
      <point x="664" y="-292"/>
      <point x="628" y="-292" type="curve" smooth="yes"/>
      <point x="524" y="-292"/>
      <point x="392" y="-256"/>
      <point x="392" y="-108" type="curve" smooth="yes"/>
      <point x="392" y="-56" type="line"/>
    </contour>
    <contour>
      <point x="864" y="516" type="line"/>
      <point x="864" y="1644" type="line" smooth="yes"/>
      <point x="864" y="1756"/>
      <point x="940" y="1816"/>
      <point x="1076" y="1816" type="curve" smooth="yes"/>
      <point x="1128" y="1816"/>
      <point x="1160" y="1812"/>
      <point x="1196" y="1804" type="curve"/>
      <point x="1196" y="2144" type="line"/>
      <point x="1128" y="2164"/>
      <point x="1060" y="2176"/>
      <point x="980" y="2176" type="curve" smooth="yes"/>
      <point x="636" y="2176"/>
      <point x="420" y="1988"/>
      <point x="420" y="1644" type="curve" smooth="yes"/>
      <point x="420" y="516" type="line"/>
    </contour>
    <contour>
      <point x="420" y="1576" type="line"/>
      <point x="420" y="448" type="line" smooth="yes"/>
      <point x="420" y="336"/>
      <point x="344" y="276"/>
      <point x="204" y="276" type="curve" smooth="yes"/>
      <point x="156" y="276"/>
      <point x="120" y="280"/>
      <point x="88" y="288" type="curve"/>
      <point x="88" y="-56" type="line"/>
      <point x="152" y="-72"/>
      <point x="224" y="-84"/>
      <point x="300" y="-84" type="curve" smooth="yes"/>
      <point x="648" y="-84"/>
      <point x="864" y="104"/>
      <point x="864" y="448" type="curve" smooth="yes"/>
      <point x="864" y="1576" type="line"/>
    </contour>
  </outline>
</glyph>
